<?xml version="1.0" encoding="UTF-8"?>
<svg width="1667px" height="317px" viewBox="0 0 1667 317" version="1.1" xmlns="http://www.w3.org/2000/svg" xmlns:xlink="http://www.w3.org/1999/xlink">
    <!-- Generator: Sketch 46 (44423) - http://www.bohemiancoding.com/sketch -->
    <title>Group</title>
    <desc>Created with Sketch.</desc>
    <defs>
        <linearGradient x1="79.7770842%" y1="0%" x2="80.8771058%" y2="100%" id="linearGradient-1">
            <stop stop-color="#2DA79B" offset="0%"></stop>
            <stop stop-color="#2EBB8C" offset="100%"></stop>
        </linearGradient>
    </defs>
    <g id="Page-1" stroke="none" stroke-width="1" fill="none" fill-rule="evenodd">
        <g id="Artboard-3-Copy-4" transform="translate(-522.000000, -1041.000000)" fill="url(#linearGradient-1)">
            <g id="Group" transform="translate(522.000000, 1041.000000)">
                <path d="M141.053387,215.891701 L90.9196799,222.202888 C96.4777318,254.248679 116.526361,268.6 141.038797,268.6 C164.628618,268.6 178.080126,259.33118 185.302603,244.6 L247.22473,244.6 C233.094714,286.246105 197.318716,315.6 143.208387,315.6 C86.4013854,315.6 46.2085387,281.716582 35.9554053,229.122181 L0.385287963,233.6 L22.4496154,196.6 L33.5233741,195.066462 C36.2692931,130.670147 79.7910147,87.6 148.208387,87.6 C172.49175,87.6 193.762783,95.1656103 210.741489,108.064342 L184.396166,153.695781 C173.420252,143.133742 160.017737,135.6 150.038797,135.6 C130.404404,135.6 96.2372239,138.005148 90.2827967,187.20618 L163.290659,177.095774 L141.053387,215.891701 Z M593.760575,216.28006 L543.811964,222.567945 C549.361499,254.638247 569.415791,269 593.937135,269 C617.526956,269 630.978463,259.73118 638.200941,245 L699.956401,245 C685.826386,286.646105 650.050388,316 595.940058,316 C539.127883,316 498.932889,282.110409 488.684276,229.50781 L453,234 L475.064327,197 L486.255741,195.450169 C489.008306,131.062882 532.528456,88 600.940058,88 C625.344529,88 646.706548,95.6412622 663.726873,108.657729 L637.422146,154.218852 C626.422638,143.592314 612.954791,136 602.937135,136 C583.308057,136 549.15406,138.403846 543.185977,187.566231 L615.998572,177.482867 L593.760575,216.28006 Z M785.4,91.4 L785.4,130.6 C800.333408,102.333192 821.933192,88.2 850.2,88.2 L850.2,145.8 L836.2,145.8 C819.399916,145.8 806.733376,149.999958 798.2,158.4 C789.666624,166.800042 785.4,181.266564 785.4,201.8 L785.4,313 L729,313 L729,91.4 L785.4,91.4 Z M862.30588,202.2 C862.30588,167.799828 872.439112,140.200104 892.70588,119.4 C912.972648,98.599896 939.239052,88.2 971.50588,88.2 C998.439348,88.2 1020.97246,94.733268 1039.10588,107.8 C1057.2393,120.866732 1069.37252,139.39988 1075.50588,163.4 L1014.70588,163.4 C1007.50584,144.999908 993.105988,135.8 971.50588,135.8 C955.239132,135.8 942.505926,141.733274 933.30588,153.6 C924.105834,165.466726 919.50588,181.666564 919.50588,202.2 C919.50588,222.733436 924.105834,238.933274 933.30588,250.8 C942.505926,262.666726 955.239132,268.6 971.50588,268.6 C992.83932,268.6 1007.23918,259.26676 1014.70588,240.6 L1075.50588,240.6 C1069.10585,263.800116 1056.77264,282.199932 1038.50588,295.8 C1020.23912,309.400068 997.906012,316.2 971.50588,316.2 C939.239052,316.2 912.972648,305.800104 892.70588,285 C872.439112,264.199896 862.30588,236.600172 862.30588,202.2 Z M1090.41176,201.8 C1090.41176,167.666496 1101.34498,140.200104 1123.21176,119.4 C1145.07854,98.599896 1172.2116,88.2 1204.61176,88.2 C1237.01192,88.2 1264.14498,98.599896 1286.01176,119.4 C1307.87854,140.200104 1318.81176,167.666496 1318.81176,201.8 C1318.81176,235.933504 1307.81187,263.533228 1285.81176,284.6 C1263.81165,305.666772 1236.54526,316.2 1204.01176,316.2 C1171.47826,316.2 1144.41187,305.666772 1122.81176,284.6 C1101.21165,263.533228 1090.41176,235.933504 1090.41176,201.8 Z M1244.61176,251.2 C1255.94515,239.599942 1261.61176,223.200106 1261.61176,202 C1261.61176,180.799894 1256.01182,164.466724 1244.81176,153 C1233.6117,141.533276 1220.07851,135.8 1204.21176,135.8 C1188.34501,135.8 1174.94515,141.533276 1164.01176,153 C1153.07837,164.466724 1147.61176,180.86656 1147.61176,202.2 C1147.61176,223.53344 1153.07837,239.933276 1164.01176,251.4 C1174.94515,262.866724 1188.27835,268.6 1204.01176,268.6 C1219.74517,268.6 1233.27837,262.800058 1244.61176,251.2 Z M1403.71764,59.4 C1397.05094,66.0667 1388.98435,69.4 1379.51764,69.4 C1370.05093,69.4 1361.98434,66.0667 1355.31764,59.4 C1348.65094,52.7333 1345.31764,44.600048 1345.31764,35 C1345.31764,25.399952 1348.65094,17.2667 1355.31764,10.6 C1361.98434,3.9333 1370.05093,0.6 1379.51764,0.6 C1388.98435,0.6 1397.05094,3.9333 1403.71764,10.6 C1410.38434,17.2667 1413.71764,25.399952 1413.71764,35 C1413.71764,44.600048 1410.38434,52.7333 1403.71764,59.4 Z M1351.31764,313 L1351.31764,91.4 L1407.71764,91.4 L1407.71764,313 L1351.31764,313 Z M1511.82352,91.4 L1511.82352,124.6 C1525.95692,100.333212 1548.89003,88.2 1580.62352,88.2 C1605.95698,88.2 1626.62344,96.53325 1642.62352,113.2 C1658.6236,129.86675 1666.62352,152.999852 1666.62352,182.6 L1666.62352,313 L1610.62352,313 L1610.62352,190.6 C1610.62352,173.26658 1606.22356,160.000046 1597.42352,150.8 C1588.62348,141.599954 1576.6236,137 1561.42352,137 C1546.22344,137 1534.1569,141.599954 1525.22352,150.8 C1516.29014,160.000046 1511.82352,173.26658 1511.82352,190.6 L1511.82352,313 L1455.42352,313 L1455.42352,91.4 L1511.82352,91.4 Z M238.8,91.4 L298.8,91.4 L356,264.6 L412.8,91.4 L472.8,91.4 L391.2,313 L320.4,313 L238.8,91.4 Z" id="Combined-Shape"></path>
            </g>
        </g>
    </g>
</svg>