<svg height="100" width="100" xmlns="http://www.w3.org/2000/svg"><path d="M59.529 10h.342c1.35.125 2.45 1.279 2.34 2.667.044 24.707 0 49.415.022 74.117.196 1.49-.68 3.026-2.247 3.216h-.338c-.849-.163-1.567-.637-2.144-1.268-4.245-4.294-8.511-8.571-12.762-12.86-.876-.849-1.513-1.986-1.486-3.233-.07-6.568.011-13.142-.032-19.711.141-1.339-.762-2.82-2.199-2.868-5.382-.18-10.775.049-16.158-.098-1.186.027-1.991-.947-2.367-1.97v-.582c.24-1.464 1.513-2.357 2.46-3.37 10.405-10.464 20.8-20.935 31.194-31.411 1.029-.975 1.927-2.264 3.375-2.629" fill="#2754F0" fill-rule="evenodd"/></svg>