<svg height="100" width="100" xmlns="http://www.w3.org/2000/svg"><path d="M60.26 66.773L50 56.513l-10.26 10.26-6.443-6.444 10.26-10.26-10.26-10.26 6.443-6.443L50 43.626l10.26-10.26 6.443 6.443-10.26 10.26 10.26 10.26zM50.08 77.136l-9.676-9.853 5.043-5.077 4.595 4.382 4.664-4.438 5.093 5.267zm0-54.273l9.719 9.72-5.093 5.267-4.664-4.438-4.594 4.382-5.1-5.23zM50 10c-22.091 0-40 17.908-40 40 0 22.091 17.909 40 40 40s40-17.909 40-40c0-22.092-17.909-40-40-40z" fill="#2754F0" fill-rule="evenodd"/></svg>