<svg height="100" width="100" xmlns="http://www.w3.org/2000/svg"><path d="M88.292 36.072c4.235 4.373 6.087 10.659 5.644 16.66-8.377.093-16.76.007-25.136.046.013-1.72.02-3.433.066-5.154 6.623 0 13.246.047 19.87-.02-1.31-5.77-5.539-10.937-11.348-12.531-4.288-1.529-9.157-.622-12.856 1.932-3.368 2.348-5.995 5.57-8.436 8.826-1.026-1.522-2.058-3.044-3.064-4.572 3.428-4.016 7.014-8.238 12.003-10.335 7.794-3.46 17.573-1.138 23.257 5.148zm-1.482 21.86a92.972 92.972 0 0 1 5.763-.006c-1.932 4.116-4.79 7.914-8.787 10.21-5.637 3.447-12.995 4.168-19.042 1.37-4.632-2.138-8.238-5.91-11.295-9.906-4.936-6.338-8.773-13.51-14.278-19.413-2.084-2.25-4.691-3.95-7.49-5.187-6.028-1.82-12.962.304-16.939 5.18-2.474 2.826-3.493 6.551-3.79 10.223.337 4.585 2.275 9.15 5.934 12.062 4.824 4.083 12.34 5.002 17.74 1.522 3.75-2.316 6.47-5.876 9.243-9.23a194.474 194.474 0 0 0 2.93 4.387c-4.102 5.518-9.494 10.566-16.461 11.95-7.146.88-14.716-1.728-19.347-7.332-6.021-6.775-6.67-17.534-1.535-24.997 5.743-9.118 19.155-12.433 28.213-6.339 9.23 6.14 13.696 16.733 20.577 25.037 2.845 3.725 6.564 6.822 11.01 8.416 6.815 1.324 14.2-1.78 17.554-7.946z" fill="#2754F0" fill-rule="evenodd"/></svg>