<svg height="100" width="100" xmlns="http://www.w3.org/2000/svg"><path d="M50 10c22.091 0 40 17.909 40 40S72.091 90 50 90 10 72.091 10 50s17.909-40 40-40zm1.732 54.961c17.05-1.995 30.097-10.239 29.14-18.412-.956-8.173-15.554-13.181-32.604-11.186-17.05 1.996-30.097 10.24-29.14 18.413.956 8.174 15.554 13.181 32.604 11.185zm-11.97 14.55c6.087 2.123 14.082-4.133 19.978-14.733a66.811 66.811 0 0 1-3.54.738c-7.637 5.104-15.424 8.096-21.687 8.627 1.204 2.681 2.965 4.57 5.25 5.368zM25.282 69.01c4.282 5.615 16.018 4.103 27.889-3.017-.43.06-.863.115-1.298.166-11.306 1.324-21.613-.202-28.132-3.619-.252 2.527.229 4.747 1.541 6.47zm34.956-48.197c-6.087-2.123-14.082 4.133-19.979 14.735a67.195 67.195 0 0 1 3.54-.74c7.638-5.103 15.426-8.096 21.689-8.626-1.205-2.682-2.965-4.572-5.25-5.369zm14.48 10.502C70.436 25.7 58.7 27.211 46.829 34.331c.43-.059.863-.115 1.298-.166 11.306-1.323 21.613.203 28.132 3.62.252-2.527-.228-4.748-1.541-6.47zm-12.92 9.558c3.536.67 4.633 3.595 3.495 7.17-1.138 3.576-6.663 4.247-6.663 4.247-2.214.304-6.278.264-6.278.264-.284 2.519 1.28 2.885 4.043 2.925 2.763.04 6.196-1.544 6.196-1.544l-.853 4.388s-3.393.914-5.912.874c-2.519-.04-5.87.081-7.917-3.068-2.046 2.295-4.678 3.23-8.192 3.25-3.515.02-6.034-2.072-5.06-6.561.976-4.49 6.847-4.977 6.847-4.977 2.987-.407 6.359-.285 6.359-.285.427-2.742-2.174-2.905-4.835-2.885-2.662.021-5.404 1.504-5.404 1.504l.752-4.327s2.864-.67 6.52-.955c3.657-.284 6.38 1.118 7.253 3.109 2.154-2.358 6.115-3.8 9.65-3.13zm-4.474 8.126c2.499-.275 2.941-2.3 2.331-3.551-.61-1.248-3.093-1.31-4.814-.091-1.722 1.219-1.89 3.748-1.89 3.748s1.874.168 4.373-.106zm-11.839 5.607c-1.035 1.036-3.26 1.523-4.585.472-1.326-1.051-.518-3.154 1.066-3.703 1.584-.548 5.181-.35 5.181-.35s-.625 2.545-1.662 3.58" fill="#2754F0" fill-rule="evenodd"/></svg>