<svg height="100" width="100" xmlns="http://www.w3.org/2000/svg"><path d="M37.236 57.814c4.258 7.204 13.536 9.61 20.758 5.387 7.105-4.275 9.397-13.5 5.124-20.603-4.275-7.103-13.5-9.397-20.603-5.122-7.001 4.211-9.347 13.251-5.279 20.338m32.566-18.876c6.076 10.472 2.285 23.514-8.62 29.85-10.902 6.336-24.133 3.147-30.166-7.325-6.032-10.473-2.298-23.431 8.648-29.75 10.947-6.321 24.076-3.247 30.138 7.225zM88.98 59.193A40.223 40.223 0 0 1 58.21 89.36l-1.437-6.924a33.142 33.142 0 0 0 25.34-24.795c.087-.373.173-.761.245-1.135l6.951 1.437c-.115.382-.224.8-.329 1.25zM90 48.706l-7.082.244A32.938 32.938 0 0 0 70.32 24.14l4.31-5.56A40.009 40.009 0 0 1 90 48.707zm-50.594-29.88A32.82 32.82 0 0 0 17.86 42.601l-6.897-1.61a39.865 39.865 0 0 1 26.175-28.816zm6.68 71.165a40.156 40.156 0 0 1-5.243-.862C23.863 85.213 11.385 70.744 10 53.376l7.053-.577a32.888 32.888 0 0 0 25.4 29.436c1.417.332 2.857.572 4.309.718zM65.622 13.21l-2.758 6.521a33.28 33.28 0 0 0-13.03-2.629v-7.096a40.447 40.447 0 0 1 15.788 3.204z" fill="#2754F0" fill-rule="evenodd"/></svg>