<svg height="100" width="100" xmlns="http://www.w3.org/2000/svg"><path d="M65.624 58.664c-6.816 0-12.342 5.526-12.342 12.342a8.739 8.739 0 0 1-8.739 8.739 8.738 8.738 0 1 1 0-17.477c6.816 0 12.343-5.526 12.343-12.343 0-6.816-5.527-12.342-12.343-12.342l.005-.005c-.032 0-.063.005-.095.005a8.739 8.739 0 1 1 8.738-8.739h.001c0 6.817 5.525 12.343 12.342 12.343l-.005.005c.032 0 .063-.005.095-.005a8.738 8.738 0 1 1 0 17.477m-35.675-8.739a8.738 8.738 0 0 1 8.739-8.738 8.739 8.739 0 1 1-8.74 8.738M50 10c-22.092 0-40 17.908-40 40s17.909 40 40 40 40-17.908 40-40-17.909-40-40-40" fill="#2754F0" fill-rule="evenodd"/></svg>