<svg height="100" width="100" xmlns="http://www.w3.org/2000/svg"><path d="M89.999 37.303H90l-.18 1.056c-.097.822-.74 3.761-1.535 6.578a87.688 87.688 0 0 1-5.703 14.928c-3.293 6.672-7.295 12.495-11.885 17.285-5.663 5.9-12.214 10.257-19.517 12.972l-.406.15-.775.309-.768-.28-.428-.155c-7.32-2.721-13.89-7.086-19.515-12.973-4.609-4.84-8.603-10.645-11.88-17.284a87.849 87.849 0 0 1-6.874-19.661 41.422 41.422 0 0 1-.347-1.757L10 37.386l.434-.382.322-.28c6.705-5.867 14.636-10.899 23.202-15.127 5.704-2.816 10.92-4.908 14.86-6.22L49.975 15l.788.244.392.134c3.932 1.311 9.148 3.403 14.852 6.22 8.552 4.221 16.472 9.244 23.17 15.098zm-19.98 22.045c3.1-.511 6.943-4.096 6.323-10.37-.62-6.275-7.86-9.501-7.86-9.501.224-1.434 0-1.921 0-1.921-15.375-9.602-27.352-7.529-27.352-7.529l2.975 3.074c-.298-.025-.62-.025-.918-.025-12.473.46-22.44 11.267-22.44 24.557 0 .423.026.815.05 1.208 3.069 6.095 6.75 11.413 10.97 15.817 5.28 5.501 11.385 9.557 18.216 12.105 6.808-2.542 12.918-6.611 18.214-12.13a58.3 58.3 0 0 0 4.485-5.303c-11.306-.84-10.623-7.932-10.623-7.932 0-.283 0-.564.05-.846 0 0 .545-5.583 5.281-5.583a3.205 3.205 0 0 1 1.761.41c2.479 1.383.867 3.97.867 3.97zm-7.712-19.257c-4.34-.947-5.902-3.251-5.902-3.251 4.09-.025 7.786.973 10.489 2.662 0 0-1.462-.485-2.951-.69-.743.794-1.389 1.125-1.588 1.229h.002z" fill="#2754F0" fill-rule="evenodd"/></svg>