<svg height="100" width="100" xmlns="http://www.w3.org/2000/svg"><path d="M54.849 55.557l-2.77-2.079v-7.622l9.724 3.469 1.358-2.776-11.083-6.93v-7.622c0-1.108-.97-2.078-2.078-2.078-1.108 0-2.078.97-2.078 2.078v7.623l-11.083 6.929 1.188 2.602 9.895-3.295v7.622l-2.77 2.079v2.079L50 56.25l4.849 1.386zm29.704-33.453l-1.776 28.792a37.547 37.547 0 0 1-2.692 11.79l-8.883-16.387a3.823 3.823 0 0 0 1.198-2.783 3.821 3.821 0 0 0-1.091-2.679l11.863-21.73a3.461 3.461 0 0 1 1.38 2.997zm-8.145 47.458l-22.603 5.955c-.13-.51-.362-.98-.673-1.385l14.663-26.859a3.836 3.836 0 0 0 1.902-.092l9.498 17.521a36.868 36.868 0 0 1-1.447 2.74c-.422.722-.87 1.428-1.34 2.12zm-10.6 10.392l-13.911 9.022a3.474 3.474 0 0 1-.938.425v-9.204a3.839 3.839 0 0 0 2.867-2.883l20.942-5.518a37.55 37.55 0 0 1-8.96 8.158zm-31.617 0a37.532 37.532 0 0 1-8.61-7.727c3.81.917 10.756 2.601 20.755 5.032a3.839 3.839 0 0 0 2.88 2.938v9.249a3.472 3.472 0 0 1-1.113-.47zM20.671 64.42l9.568-17.103a3.825 3.825 0 0 0 1.906-.235l14.93 27.008a3.822 3.822 0 0 0-.694 1.386 7183.043 7183.043 0 0 0-22.463-5.44 36.986 36.986 0 0 1-1.666-2.594 37.046 37.046 0 0 1-1.58-3.022zm-5.224-42.316a3.46 3.46 0 0 1 1.278-2.916l11.74 21.238a3.83 3.83 0 0 0-1.563 3.09 3.83 3.83 0 0 0 1.689 3.178l-8.788 15.71a37.542 37.542 0 0 1-2.58-11.508zm36.875-10.637c11.6.266 21.453 2.539 29.341 6.766L69.836 39.897a3.831 3.831 0 0 0-2.164-.11zm-20 28.557a3.82 3.82 0 0 0-2.245-.286L18.222 18.294c8.049-4.343 18.155-6.64 30.08-6.838zM48.46 72.99L33.585 46.084a3.82 3.82 0 0 0 .987-2.568c0-.916-.32-1.755-.855-2.415l16.445-29.398a.174.174 0 0 1 .306.002l15.645 28.863a3.827 3.827 0 0 0-1.383 2.948c0 1.23.58 2.323 1.48 3.025L51.758 73.01a3.819 3.819 0 0 0-1.672-.384 3.82 3.82 0 0 0-1.628.363zm35.565-56.24C75.068 11.607 63.621 9 50 9c-13.621 0-25.069 2.607-34.024 7.75a5.891 5.891 0 0 0-2.964 5.504l1.775 28.792a40.01 40.01 0 0 0 5.357 17.627A40.012 40.012 0 0 0 32.864 82l13.911 9.022c.98.636 2.102.953 3.225.953a5.924 5.924 0 0 0 3.225-.953L67.137 82a40.013 40.013 0 0 0 12.719-13.328 40.01 40.01 0 0 0 5.357-17.627l1.775-28.792a5.891 5.891 0 0 0-2.964-5.504z" fill="#2754F0" fill-rule="evenodd"/></svg>