<svg height="100" width="100" xmlns="http://www.w3.org/2000/svg"><path d="M45.97 39.897c-.174.41-.66.867-.312 1.323 1.459 2.343 2.68 4.83 4.212 7.125-1.387 1.994-2.395 4.221-3.716 6.258-.298.46-.532.956-.739 1.465 2.986 0 5.972.046 8.958-.043 1.508-2.47 2.828-5.055 4.405-7.483-2.733-4.93-5.627-9.779-8.373-14.702-.099-.247-.539-.887-.74-.372-1.247 2.132-2.42 4.31-3.694 6.429zm8.373-29.843c2.852 5.148 5.864 10.21 8.81 15.304-1.3 2.612-2.972 5.023-4.26 7.64 2.838.02 5.68-.029 8.517.02.44-.059.542.49.762.76 2.733 4.887 5.644 9.68 8.37 14.57-1.136 2.697-3.009 5.079-4.24 7.753a543.2 543.2 0 0 0 8.658.003c3.127 5.098 6.008 10.35 9.04 15.507-2.96 5.105-5.857 10.252-8.889 15.314-1.918.145-3.863.263-5.787.099-4.028-.066-8.058-.023-12.089-.063 1.37-2.414 2.773-4.812 4.162-7.213 1.748-2.621 3.15-5.446 4.829-8.107a409 409 0 0 1-3.912-6.796c-.283-.44-.549-1.1-1.196-.956-2.618.003-5.236-.017-7.854.023 1.41 2.595 2.95 5.114 4.402 7.686-1.603 2.687-3.305 5.335-4.668 8.153-1.485 2.349-2.822 4.786-4.201 7.197-5.965.07-11.934.013-17.902.03 2.591-4.69 5.347-9.293 8.064-13.911.338-.64 1.031-1.387.46-2.096-2.871-4.924-5.703-9.864-8.57-14.788-1.449 2.542-2.881 5.098-4.412 7.594 1.37 2.644 3.081 5.134 4.362 7.808-1.241 2.69-2.986 5.147-4.352 7.788-1.445 2.533-2.946 5.036-4.359 7.588-3.531-.052-17.449-.036-18.088-.036 2.831-4.97 6.204-10.278 9.009-15.264-2.963-5.128-5.949-10.239-8.918-15.363 2.999-.004 6.004-.02 9.01-.01 1.491 2.48 2.848 5.039 4.431 7.46 2.776-4.763 5.466-9.576 8.294-14.306.263-.453.601-1.034.214-1.524-2.76-4.848-5.67-9.611-8.37-14.496-.056-.101-.161-.312-.217-.414 2.773.023 5.545-.01 8.317.023l-.01-.344c1.567 2.7 3.049 5.456 4.74 8.08 2.816-5.062 5.739-10.071 8.666-15.07.187-.293-.125-.608-.217-.878-2.825-4.943-5.735-9.834-8.554-14.781 5.956.046 11.954-.118 17.948.016z" fill="#2754F0" fill-rule="evenodd"/></svg>