<svg height="100" width="100" xmlns="http://www.w3.org/2000/svg"><path d="M10 26h22.826c-7.24 4.939-12.088 13.198-12.74 21.95-1.002 10.418 4.079 21.08 12.74 26.93H10zm38.534 0h2.953c6.074.474 11.99 3.055 16.232 7.464 5.468 5.57 8.07 13.89 6.466 21.563-1.37 7.44-6.466 14.033-13.274 17.312-2.932 1.517-6.201 2.19-9.46 2.54h-2.994c-3.238-.412-6.497-1.048-9.414-2.58-7.699-3.712-13.116-11.732-13.57-20.28-.473-6.528 1.89-13.157 6.299-17.974C36.044 29.305 42.2 26.494 48.534 26zm18.67 0h22.79c.006 16.293 0 32.587.006 48.88H67.2c9.017-6.034 14.103-17.322 12.637-28.076C78.895 38.47 74.13 30.71 67.205 26zm-20.783 9.649c.376 1.42.733 2.846 1.069 4.282-.688.183-1.38.377-2.067.565a67.068 67.068 0 0 1-1.07-4.328c-.937.219-1.868.448-2.8.687.382 1.462.754 2.923 1.12 4.39-1.813.473-3.635.91-5.463 1.344l.733 2.866c1.166-.122 2.571-.998 3.605-.066 1.084 3.142 1.634 6.451 2.546 9.649.224 1.16.8 2.332.585 3.528-.713.642-1.853.448-2.571 1.039-.036 1.044.071 2.087.137 3.131 1.859-.27 3.666-.794 5.49-1.237a58.491 58.491 0 0 1 1.099 4.45c.937-.209 1.874-.423 2.81-.636-.381-1.477-.753-2.959-1.14-4.435.723-.168 1.446-.336 2.174-.5a82.152 82.152 0 0 0 1.064 4.39c.907-.224 1.813-.458 2.72-.688a73.26 73.26 0 0 0-1.126-4.399c1.996-.743 4.16-1.436 5.611-3.09 2.785-3.218.667-9.66-4.043-9.262 2.307-1.955 1.655-5.86-.789-7.383-1.746-1.095-3.905-.703-5.845-.636a271.457 271.457 0 0 0-1.12-4.339c-.912.225-1.818.443-2.73.678zm-.158 7.978c1.741-.366 3.564-1.09 5.346-.565 1.527.413 2.291 2.571 1.12 3.742-1.339 1.38-3.345 1.676-5.112 2.205a377.809 377.809 0 0 1-1.354-5.382zm2.006 8.111c2.215-.616 4.638-1.405 6.914-.636 1.548.621 1.935 2.892.693 4.002-1.665 1.548-4.002 1.91-6.115 2.515-.484-1.965-.963-3.926-1.492-5.88z" fill="#2754F0" fill-rule="evenodd"/></svg>