<svg height="100" width="100" xmlns="http://www.w3.org/2000/svg"><path d="M50 10c22.091 0 40 17.909 40 40S72.091 90 50 90 10 72.091 10 50s17.909-40 40-40zm21.022 48.37a9.522 9.522 0 0 0-2.426-6.481c-1.573-1.728-3.84-2.809-6.8-3.24v-.064c2.593-.418 4.63-1.481 6.015-3.181a9.315 9.315 0 0 0 2.156-6.015c0-3.652-1.178-6.133-3.611-8.085-2.434-1.952-6.09-2.593-11.041-2.593H36.607V46.12h-10.74v6.666h29.318c2.308 0 4.04.163 5.185 1.085 1.145.923 1.73 2.115 1.73 3.878s-.578 3.267-1.73 4.211c-1.151.945-2.885 1.567-5.185 1.567H45.13V58.34h-8.52v11.852h19.315c4.911 0 8.667-1.282 11.27-3.274 2.604-1.993 3.826-4.938 3.826-8.549zM54.115 35.363c4.618 0 6.926 1.804 6.926 5.37 0 3.567-2.308 5.37-6.926 5.37H45.13v-10.74z" fill="#2754F0" fill-rule="evenodd"/></svg>