<svg xmlns="http://www.w3.org/2000/svg" width="100" height="100"><g fill="#2754F0" fill-rule="evenodd"><path d="M49.507 9L24.619 33.973l9.155 9.185 15.733-15.785L65.25 43.167l9.155-9.185zM9 49.512l9.274 9.274 9.274-9.274-9.274-9.274zm40.512 23.115L33.785 56.841l-9.166 9.173.013.013L49.512 91l24.889-24.981.004-.005-9.156-9.181zm22.94-23.115l9.274 9.274L91 49.512l-9.274-9.274z"/><path d="M58.777 49.507h.004l-9.269-9.269-6.85 6.85h-.001l-.787.787-1.623 1.624-.013.013.013.013 9.261 9.261 9.269-9.269.005-.005z"/></g></svg>