<svg height="100" width="100" xmlns="http://www.w3.org/2000/svg"><path d="M50 90c-22.091 0-40-17.909-40-40s17.909-40 40-40 40 17.909 40 40-17.909 40-40 40zM32.79 28.5A2.79 2.79 0 0 0 30 31.29v37.392a2.791 2.791 0 0 0 2.79 2.793h19.673c12.399 0 17.004-2.028 19.826-4.85A9.752 9.752 0 0 0 75 59.915v-.087c0-.15-.005-.297-.012-.447 0-5.703-3.492-8.54-10.37-9.76 7.122-1.479 9.76-4.85 9.76-9.82a9.287 9.287 0 0 0-2.593-7c-2.882-2.883-7.06-4.301-18.91-4.301zm8.754 9.15h12.033c3.736 0 6.496.229 7.792 1.525a3.04 3.04 0 0 1 .793 2.349 3.203 3.203 0 0 1-.854 2.394c-1.28 1.342-4.04 1.525-7.731 1.525H47.11a1.86 1.86 0 0 0-1.86 1.86v4.88a1.86 1.86 0 0 0 1.906 1.922h6.298c4.04 0 7.045.108 8.463 1.525a3.48 3.48 0 0 1 .915 2.579 3.313 3.313 0 0 1-.915 2.514c-1.403 1.419-4.407 1.724-8.463 1.724h-11.91z" fill="#2754F0" fill-rule="evenodd"/></svg>