<svg height="100" width="100" xmlns="http://www.w3.org/2000/svg"><path d="M44.71 30.166v15.037h7.133c1.393 0 2.778-.203 4.11-.603a10.845 10.845 0 0 0 3.24-1.593 8.298 8.298 0 0 0 2.315-2.58 5.51 5.51 0 0 0 0-5.483 8.257 8.257 0 0 0-2.315-2.58 10.948 10.948 0 0 0-3.24-1.6 14.527 14.527 0 0 0-4.11-.597H44.71zm19.975 28.086a10.165 10.165 0 0 0-3.076-2.997 14.84 14.84 0 0 0-4.18-1.8 21.603 21.603 0 0 0-5.435-.694H44.71v17.02h7.284c1.835 0 3.66-.236 5.435-.697a15.017 15.017 0 0 0 4.18-1.797 10.181 10.181 0 0 0 3.076-3 5.462 5.462 0 0 0 .907-3.02 5.453 5.453 0 0 0-.907-3.015zm-27.088 19.64H22.5l1.44-8.112h5.299a2.887 2.887 0 0 0 2.886-2.888V33.047a2.882 2.882 0 0 0-2.886-2.881h-6.693v-8.118h15.051V10h7.113v12.047h6.134V10h7.113v12.047h.148c2.182 0 4.352.32 6.441.94a19.057 19.057 0 0 1 5.668 2.8 16.355 16.355 0 0 1 4.599 5.124 13.6 13.6 0 0 1 1.802 6.77c0 2.382-.62 4.714-1.802 6.776a16.345 16.345 0 0 1-2.646 3.458c.259.15.513.303.766.456a18.286 18.286 0 0 1 5.535 5.398 13.574 13.574 0 0 1 0 15 18.296 18.296 0 0 1-5.535 5.397 23.237 23.237 0 0 1-6.45 2.777c-2.44.627-4.95.947-7.47.947h-1.055v12.108h-7.113V77.891H44.71V90h-7.113V77.891z" fill="#2754F0" fill-rule="evenodd"/></svg>