<svg xmlns="http://www.w3.org/2000/svg" width="100" height="100"><g fill="none"><path fill="#2754F0" d="M88.413 59.746C83.111 81.041 61.571 94 40.301 88.69c-21.261-5.31-34.205-26.876-28.9-48.17 5.3-21.295 26.84-34.254 48.104-28.946 21.269 5.309 34.21 26.88 28.908 48.173"/><path fill="#FEFEFE" d="M64.072 55.205c-1.49.257-2.229.353-3.737.442-.688.04-1.38.084-2.071.121 2.001 1.373 3.255 3.249 2.605 5.857-1.212 4.87-7.566 4.209-12.265 3.165l-1.58 6.475-.07.284-2.06 8.43 5.273 1.315 2.2-8.82c9.059 1.716 15.872 1.022 18.738-7.182 1.785-5.1.492-9.029-2.268-11.473a1.6 1.6 0 0 1-.175.076c-1.283.464-3.088 1.051-4.59 1.31"/><path fill="#FEFEFE" d="M62.512 44.487c-1.498 6.01-10.744 2.956-13.743 2.207l2.645-10.62c3 .748 12.658 2.146 11.098 8.413zm2.022-20.876l-5.313-1.326-2.118 8.508a229.634 229.634 0 0 0-4.258-1.002l2.134-8.565-5.31-1.325-2.177 8.735c-1.156-.263-2.29-.524-3.392-.798l-7.322-1.859-1.414 5.682s3.943.904 3.86.96c2.151.538 2.54 1.963 2.476 3.093l-1.59 6.381-1.383 5.559-2.989 11.999c-.264.655-.93 1.638-2.435 1.263.053.079-3.863-.964-3.863-.964l-2.636 6.088 6.914 1.726c1.286.324 2.546.662 3.786.98l-2.198 8.838 5.306 1.327 2.179-8.746 1.726-6.4 2.917-11.71c.614.15 1.228.283 1.926.443 2.143.5 4.393.684 6.58.848 1.346.1 2.696.168 4.045.151 2.011-.025 4.063-.4 5.964-1.038 1.596-.534 3.495-1.217 4.68-2.476 1.387-1.472 2.083-3.429 2.379-5.401.963-6.452-3.942-9.92-10.65-12.232l2.176-8.739z"/></g></svg>