<svg height="100" width="100" xmlns="http://www.w3.org/2000/svg"><path d="M46.314 86.68a37.303 37.303 0 0 0 5.323.147c.002-2.678.005-8.28.005-10.457h-5.32c0 1.972-.003 7.211-.008 10.31zm-6.946-1.374v-9.14c-3.253-.032-8.13-.075-14.63-.128l-.275-.248 1.64-7.816c4.636.86 7.389.237 8.256-1.868.245-9.497 0-19.002.123-28.499.016-1.672.082-3.875-1.686-4.723-1.773-.599-4.55-.82-8.333-.662l-.354-7.252h15.258c0-4.881 0-8.306-.004-10.275C24.19 19.26 13.137 33.34 13.137 50c0 16.663 11.056 30.743 26.231 35.306zm6.95-71.987l.005 11.447h5.114l-.005-11.601a37.516 37.516 0 0 0-5.115.154zm12.285.827c-.004 3.08-.005 8.783-.005 10.783 4.476.604 9.288 1.289 12.864 4.291 5.466 4.887 4.787 15.151-1.899 18.708 3.805.93 7.586 3.313 8.78 7.237 1.49 5.442.606 11.985-3.534 16.089-4.37 3.973-10.614 4.48-16.228 5.001.015 1.96.017 6.759.014 9.6C74.808 81.983 86.863 67.4 86.863 50c0-17.397-12.051-31.979-28.26-35.854zM50 90c-22.091 0-40-17.909-40-40s17.909-40 40-40 40 17.909 40 40-17.909 40-40 40zm-3.473-21.952c5.475-.44 11.604.481 16.375-2.799 3.429-2.235 3.06-7.816-.434-9.798-4.779-2.889-10.622-1.967-15.94-2.122zm0-35.124v13.258c4.428-.065 9.337.408 13.216-2.121 3.257-2.08 3.077-7.433-.245-9.35-3.887-2.317-8.642-1.672-12.97-1.787z" fill="#2754F0"/></svg>