<svg height="100" width="100" xmlns="http://www.w3.org/2000/svg"><path d="M69.722 71.97c-5.422 0-10.519-2.186-14.353-6.152L41.042 50.984 55.369 36.15C59.201 32.185 64.3 30 69.722 30c5.423 0 10.52 2.185 14.352 6.15 7.901 8.179 7.901 21.49 0 29.668-3.832 3.966-8.93 6.152-14.352 6.152zM48.497 50.984L59.12 39.987c2.834-2.932 6.6-4.547 10.602-4.547 4.004 0 7.77 1.615 10.603 4.547 5.856 6.065 5.856 15.93-.002 21.994-2.832 2.93-6.597 4.545-10.6 4.545-4.004 0-7.77-1.615-10.603-4.545zM30.115 71.97c-5.379 0-10.435-2.186-14.236-6.152-7.839-8.177-7.839-21.489 0-29.668 3.8-3.965 8.857-6.15 14.236-6.15s10.435 2.185 14.236 6.15l.672.702-3.72 3.835-.673-.7c-2.809-2.932-6.544-4.547-10.517-4.547-3.971 0-7.706 1.615-10.516 4.547-5.812 6.065-5.812 15.928 0 21.994 2.81 2.93 6.545 4.545 10.516 4.545s7.706-1.615 10.517-4.545l.672-.702 3.72 3.835-.671.704c-3.803 3.966-8.858 6.152-14.236 6.152z" fill="#2754F0" fill-rule="evenodd"/></svg>