<svg height="100" width="100" xmlns="http://www.w3.org/2000/svg"><path d="M48.696 15.739c-1.617.665-2.576 2.6-2.065 4.287.445 1.845 2.496 3.061 4.334 2.583 1.979-.42 3.295-2.69 2.617-4.611-.555-2.002-3-3.125-4.886-2.26m-.591-5.513c3.088-.722 6.46.334 8.638 2.62 3.376 3.398 3.245 9.467-.264 12.725-3.231 3.308-9.012 3.445-12.398.294-3.298-2.807-4.02-8.067-1.62-11.67 1.266-1.988 3.328-3.478 5.644-3.97zM20.909 25.787c2.637-.765 5.605-.237 7.803 1.407 2.894 2.062 4.288 5.875 3.533 9.334 1.21.691 2.416 1.397 3.632 2.088 2.734-3.235 6.483-5.644 10.67-6.443 6.514-1.346 13.675 1.203 17.769 6.47 1.233-.695 2.46-1.407 3.683-2.125-.375-2.032-.19-4.198.765-6.049 1.293-2.643 3.96-4.518 6.867-4.92 3.329-.524 6.858 1.044 8.752 3.817 2.092 2.961 2.162 7.192.094 10.18-1.704 2.552-4.765 4.23-7.86 4.063-2.155-.017-4.237-.93-5.831-2.353-1.27.649-2.48 1.404-3.723 2.102 1.885 4.82 1.65 10.463-.822 15.032-2.603 5.093-7.746 8.715-13.384 9.587-.003 1.404.01 2.807-.057 4.21 2.002.713 3.826 2 4.966 3.814 1.654 2.533 1.911 5.895.652 8.645-.933 2.152-2.784 3.83-4.936 4.722-2.754 1.1-6.035.752-8.475-.946-3.469-2.239-4.912-7.027-3.348-10.834.975-2.543 3.168-4.491 5.727-5.357.01-1.407.007-2.813 0-4.224-5.898-.922-11.258-4.869-13.728-10.326-2.125-4.441-2.255-9.728-.488-14.31-1.223-.701-2.426-1.436-3.672-2.095-1.668 1.39-3.763 2.37-5.969 2.34-3.074.107-6.135-1.52-7.793-4.107-1.43-2.156-1.868-4.94-1.14-7.426.816-3.004 3.296-5.504 6.313-6.296zm28.496 51.57c-1.193.228-2.222 1.113-2.664 2.243-.838 1.952.462 4.411 2.53 4.849 2.102.591 4.425-1.136 4.475-3.315.23-2.286-2.112-4.304-4.341-3.776zM47.747 37.36c-4.545.819-8.478 4.304-9.858 8.705a12.808 12.808 0 0 0 .05 8.014c1.113 3.395 3.73 6.259 7.005 7.683a12.971 12.971 0 0 0 8.792.578c3.034-.96 5.788-2.954 7.409-5.721 2.282-3.717 2.439-8.609.427-12.469-2.45-4.992-8.378-7.906-13.825-6.79zm-5.397 9.882c1.086-3.349 4.375-5.845 7.91-5.915 1.985-.037 4.244.427 5.598 1.985-.779 1.056-1.51 2.145-2.29 3.204-1.306-.765-2.873-1.36-4.38-.808-2.52.768-3.666 3.986-2.523 6.279.655 1.504 2.239 2.526 3.88 2.49 1.109.043 2.058-.589 3.02-1.046a40.814 40.814 0 0 1 2.353 3.388c-3.616 3.101-9.691 2.189-12.361-1.718-1.654-2.218-2.102-5.246-1.207-7.86zm-20.448 9.25c4.197-.77 8.682 1.918 10.029 5.955 1.166 3.255.267 7.131-2.24 9.514-2.222 2.225-5.65 3.094-8.675 2.279-3.976-1.04-7.007-4.963-6.747-9.11.074-4.214 3.452-8.064 7.633-8.638zm.431 5.487c-1.397.39-2.496 1.687-2.61 3.141-.247 1.998 1.467 3.93 3.469 3.957 2.242.177 4.22-2.099 3.72-4.294-.332-2.039-2.61-3.44-4.579-2.804zm52.145-5.28c5.026-1.514 10.774 2.199 11.41 7.412.875 4.865-2.955 9.875-7.86 10.346-4.71.698-9.508-2.934-10.113-7.653-.762-4.4 2.25-9.002 6.563-10.105zm1.317 5.307c-1.46.447-2.543 1.901-2.533 3.432-.057 1.975 1.751 3.746 3.726 3.642 2.025.013 3.786-1.928 3.546-3.947-.137-2.235-2.624-3.883-4.739-3.127zm-.348-30.795a3.693 3.693 0 0 0-2.078 2.473c-.582 2.092 1.136 4.408 3.301 4.471 2.273.234 4.301-2.065 3.813-4.284-.357-2.219-2.997-3.64-5.036-2.66zm-53.472-.037c-1.493.598-2.482 2.246-2.239 3.847.228 1.924 2.183 3.428 4.108 3.107 2.045-.22 3.559-2.416 3.044-4.41-.441-2.103-2.93-3.423-4.913-2.544z" fill="#2754F0" fill-rule="evenodd"/></svg>