<svg height="100" width="100" xmlns="http://www.w3.org/2000/svg"><path d="M70.678 77.88c-.022.02-.068.058-.091.077-.83.571-1.684 1.105-2.533 1.647-5.965 3.591-12.958 5.398-19.917 5.032-7.096-.45-14.077-3.061-19.62-7.549-5.541-4.38-9.758-10.492-11.67-17.317-1.843-6.386-1.74-13.222-.06-19.635 2.025-6.615 5.987-12.643 11.403-16.966 5.085-4.198 11.423-6.855 17.967-7.625 5.854-.6 11.83.213 17.273 2.478 7.527 3.157 13.845 9.12 17.483 16.428 3.676 7.294 4.586 15.903 2.628 23.83-1.782 7.812-6.582 14.709-12.863 19.6m18.824-33.414c.583 2.982.621 6.123.286 9.124-.484 8.04-4.034 15.64-9.02 21.866a964.013 964.013 0 0 0-3.832 4.094c-5.351 4.83-11.979 8.247-19.06 9.642-11.498 2.395-24.041-.625-33.068-8.178-4.906-4.03-8.879-9.215-11.404-15.04-.335-.653-1.916-4.766-2.259-6.204-3.12-12.627.206-26.826 9.107-36.391 1.928-2.307 4.243-4.313 6.727-6.005 5.085-3.813 11.259-6.124 17.536-7.008 10.105-1.388 20.732 1.2 28.955 7.27 8.616 6.33 14.722 16.162 16.032 26.83zM60.055 56.663c-1.52 1.113-3.134 2.18-5.005 2.585-4.06 1.045-8.714-.355-11.354-3.656-2.133-2.59-2.758-6.352-1.402-9.444 2.088-4.991 8.27-7.412 13.309-5.792 1.554.412 2.86 1.373 4.239 2.15 1.12-1.833 6.113-8.864 7.542-10.484-3.364-2.863-7.409-4.976-11.781-5.73-4.868-.729-10.002-.283-14.444 1.951-6.315 2.955-11.152 8.834-12.824 15.606-1.463 5.532-.743 11.571 1.85 16.657 1.738 3.607 4.564 6.527 7.687 8.964.102.069 5.757 3.964 13.133 4.041 6.08.221 12.063-2.223 16.57-6.249-2.404-3.05-7.33-10.32-7.52-10.599z" fill="#2754F0" fill-rule="evenodd"/></svg>