<svg height="100" width="100" xmlns="http://www.w3.org/2000/svg"><path d="M83.012 48.147c.094.187.094.375.187.657l-7.788 22.71c-.094.187-.188.375-.376.468L49.698 89.906h-.188c-.094.094-.281.094-.375.094-.094 0-.282 0-.375-.094h-.188L23.235 71.982c-.188-.093-.282-.281-.376-.469l-7.789-22.71a.802.802 0 0 1 0-.656l6.475-16.704-3.66-7.695c-.093-.188-.093-.376-.093-.563l2.346-12.387c.094-.282.281-.563.563-.657.281-.188.563-.188.844 0l6.57 3.753 8.914 1.502c.188.094.376.188.563.375l2.44 2.91 8.821-1.971h.376l8.82 1.97 2.44-2.909c.188-.187.376-.375.564-.375l8.915-1.502 6.569-3.753c.281-.094.563-.094.844 0 .282.094.47.375.563.657l2.346 12.48c0 .188 0 .376-.094.564l-3.66 7.695zm-9.478 22.428l7.32-22.24L75.128 33.6c-.094.282-.47.47-.75.47-.095 0-.282 0-.376-.094-.47-.188-.657-.751-.47-1.22l4.599-9.666-1.595-8.727-1.502 3.284a.961.961 0 0 1-.563.47l-5.443 1.595-4.223 6.85c-.187.282-.563.47-.844.47-.188 0-.282 0-.47-.095-.375-.281-.562-.844-.28-1.313l4.41-7.132c.187-.188.375-.282.563-.376l5.443-1.595 1.595-3.566-4.505 2.628c-.093 0-.187.093-.281.093L61.71 17.18l-1.596 1.97 1.314.282c.563.094.845.657.75 1.126-.093.47-.468.75-.938.75h-.187L49.04 18.68l-12.106 2.722h-.187c-.47 0-.845-.282-.939-.751-.093-.47.282-1.032.751-1.126l1.314-.282-1.595-1.97-8.728-1.502c-.094 0-.187 0-.281-.094l-4.505-2.627 1.502 3.566 5.443 1.595c.281 0 .469.188.563.376l4.41 7.131c.282.47.188 1.033-.281 1.314-.094.094-.282.094-.47.094-.375 0-.656-.188-.844-.47l-4.223-6.85-5.443-1.595c-.281 0-.469-.188-.563-.47l-1.501-3.284-1.596 8.728 4.599 9.665c.187.47 0 1.033-.47 1.22-.093.094-.281.094-.375.094-.281 0-.563-.187-.75-.469L17.04 48.428l7.507 22.147 24.493 17.36zM37.78 55.185l-.938 4.316c0 .47-.563.845-1.033.751-.469 0-.844-.563-.75-1.032l.563-3.566-4.41-.845 2.814 8.54c.094.375 0 .75-.281 1.032l-5.255 4.41c-.094.095-.376.188-.563.188-.094 0-.282 0-.376-.093-.281-.094-.563-.376-.563-.751l-.563-7.507-2.815.469c-.282 0-.563-.094-.75-.282-.188-.187-.282-.469-.282-.75l.657-5.913-3.379-2.158c-.281-.188-.469-.657-.375-1.032l1.69-6.194c.093-.469.656-.75 1.125-.657.47.094.75.657.657 1.127l-1.501 5.536 3.284 2.159c.375.281.47.563.47.938l-.564 5.255 2.534-.47c.281 0 .563 0 .75.189s.376.375.376.656l.47 6.757 3.378-2.815-3.097-9.384c-.094-.376 0-.751.187-.939s.564-.375.845-.281l6.944 1.313c.47.094.845.564.751 1.033zm-9.947-11.637l-2.91-4.035c-.28-.469-.187-1.032.282-1.314s1.033-.187 1.314.282l2.44 3.66c1.97 0 9.196-.094 9.384-.094.563 0 .657 0 4.505 4.974h.187l3.097-2.347-.938-3.19c-.094-.47.187-.939.656-1.126.47-.094.939.187 1.127.657l1.126 3.753c.187.376 0 .751-.282 1.033l-4.41 3.378c-.188.094-.376.188-.563.188h-.094c-.188 0-.376-.094-.563-.282l-6.757 1.408h-.188c-.375 0-.657-.188-.844-.563l-2.628-5.912h-3.19c-.282-.094-.563-.188-.751-.47zm13.138 3.848a20.85 20.85 0 0 1-1.596-2.065c-.187.751-.844 1.314-1.595 1.314-.845 0-1.595-.75-1.595-1.595 0-.376.187-.75.469-1.032h-2.721l1.97 4.41zm4.692-11.261l-8.54-6.475c-.469-.282-.469-.939-.188-1.314.282-.47.939-.47 1.314-.188l6.288 4.88-1.314-4.88c-.094-.375 0-.844.375-1.032.376-.281.845-.281 1.126 0l3.472 2.534v-7.038l-7.32 2.533 1.315 1.502c.375.375.281.938-.094 1.314s-.939.281-1.314-.094l-2.252-2.628c-.188-.187-.282-.563-.188-.844 0-.282.282-.563.563-.657l9.947-3.472h.563l9.854 3.378c.281.094.469.375.563.657.094.281 0 .563-.188.844l-2.252 2.628c-.375.375-.938.47-1.314.094-.375-.376-.469-.939-.094-1.314l1.314-1.501-7.32-2.534v7.038l3.379-2.628a1.2 1.2 0 0 1 1.126 0c.375.282.47.657.375 1.033l-1.314 4.88 6.288-4.88c.375-.282 1.032-.188 1.314.187.281.376.187 1.033-.188 1.314l-8.54 6.663c-.187.094-.375.188-.563.188s-.375-.094-.563-.188c-.375-.188-.469-.657-.375-1.032l1.408-4.974-2.722 2.065h-1.126l-2.721-2.065 1.407 4.974c.094.375 0 .844-.375 1.032-.188.094-.376.188-.563.188-.188 0-.376-.094-.563-.188zm10.885 18.58l4.692 13.326c.094.282.094.563 0 .75L57.58 76.3c-.187.375-.469.563-.844.563h-15.39c-.375 0-.657-.281-.845-.563l-3.66-7.507a1.036 1.036 0 0 1 0-.75l4.693-13.326c.187-.47.75-.751 1.22-.564s.75.751.563 1.22l-4.599 12.95 3.191 6.57h6.194V73.11l-3.566-1.41c-.282-.094-.47-.375-.563-.657l-1.502-6.287c-.094-.47.188-1.033.657-1.127l4.974-1.407v-3.19l-2.065 1.407c-.47.281-1.032.188-1.314-.282-.281-.469-.187-1.032.282-1.313l3.566-2.44h.938l3.566 2.44c.47.281.563.844.282 1.313-.282.47-.845.563-1.314.282l-2.065-1.408v3.19l4.974 1.502c.47.188.75.657.657 1.126l-1.501 6.288c-.094.281-.282.563-.564.657l-3.566 1.407v1.783h6.194l3.19-6.662-4.598-12.95c-.187-.47.094-1.033.563-1.22.47-.188 1.033.093 1.22.563zm-12.105 10.51l1.22 4.974 3.378 1.314 3.472-1.314 1.126-4.973-4.598-1.314zm8.54 13.42c.562-.094 1.032.188 1.126.657.187.47-.188 1.032-.657 1.126l-4.223 1.126h-.376l-4.223-1.126c-.469-.094-.75-.657-.656-1.126.093-.47.656-.75 1.126-.657l3.941 1.032zm22.052-33.407c-.094-.47.188-1.033.47-.939.469-.094 1.032.188 1.125.657l1.69 6.194c.093.375 0 .844-.376 1.032l-3.378 2.158.657 5.912c0 .282-.094.563-.282.75-.187.282-.469.282-.75.282l-2.816-.469-.563 7.508c0 .281-.281.656-.563.75-.094.094-.281.094-.375.094-.188 0-.375 0-.563-.188l-5.255-4.41c-.282-.282-.376-.657-.282-1.032l2.815-8.54-4.41.845.563 3.566c.094.469-.282.938-.75 1.032-.47.094-.94-.282-1.033-.75l-.75-4.505c-.095-.47.28-.939.75-1.033l6.85-1.22c.282-.093.657 0 .845.282.188.282.281.657.188.938l-3.097 9.385 3.378 2.815.47-6.757c0-.281.187-.469.375-.657.187-.187.469-.187.75-.187l2.628.375-.563-5.255c0-.375.188-.75.47-.938l3.284-2.159zM55.047 47.02c3.847-4.974 3.941-4.974 4.41-5.068.188 0 7.414.094 9.385.094l2.44-3.66c.281-.47.844-.563 1.313-.281.47.281.563.844.282 1.313l-2.722 4.13c-.093.28-.469.469-.75.469h-3.19l-2.628 5.912c-.188.375-.47.563-.845.563h-.188l-6.756-1.408c-.094.094-.376.282-.563.282h-.094c-.188 0-.376-.094-.563-.188l-4.41-3.378c-.282-.282-.376-.657-.282-1.033l1.126-3.753a.833.833 0 0 1 1.126-.657.833.833 0 0 1 .657 1.126l-.939 3.19 3.003 2.347zm7.226 1.407l2.064-4.41h-2.721c.281.281.469.656.469 1.032 0 .844-.75 1.595-1.595 1.595s-1.502-.563-1.596-1.314c-.469.563-1.126 1.314-1.689 2.065zm-13.232-.657a.94.94 0 0 1 .938.939v4.973c0 .563-.375.939-.938.939s-.938-.376-.938-.939V48.71c0-.563.375-.939.938-.939zM26.52 32.287c-.47-.187-.657-.75-.563-1.126l1.22-3.096c.188-.47.657-.657 1.126-.564l3.66.939c.47.094.75.657.657 1.126-.094.47-.657.75-1.126.657l-2.816-.75-.938 2.345c-.094.376-.47.563-.845.563-.187 0-.281-.094-.375-.094zm40.352-2.064c-.47.094-1.032-.188-1.126-.75-.188-.47.188-1.033.657-1.127l3.66-.938c.469-.094.938.093 1.126.563l1.22 3.096c.187.47-.094 1.033-.563 1.22-.188.094-.282.094-.376.094-.375 0-.657-.187-.844-.563l-.939-2.346z" fill="#2754F0" fill-rule="evenodd"/></svg>