<svg height="100" width="100" xmlns="http://www.w3.org/2000/svg"><path d="M50.699 53.613c3.413 10.527 6.897 21.033 10.505 31.497.31.946.806 1.85.868 2.86-3.684.927-7.425 1.84-11.249 1.857-5.151-.027-10.419-.576-15.19-2.633.558-1.67 1.333-3.254 1.95-4.905 4.002-10.087 7.178-20.47 10.924-30.651.262-.492.461-1.169.754-1.687.565 1.097 1.024 2.503 1.438 3.662zm31.375-26.58c4.668 6.467 7.192 14.359 7.438 22.31 0 8.535-2.527 17.149-7.608 24.06-1.48 1.921-2.954 3.894-4.8 5.483-2.857-3.875-5.34-8.019-7.678-12.224-2.703-5.208-5.433-10.416-7.649-15.851-4.67-11.892-8.146-24.211-11.362-36.565-.243-.857-.41-1.749-.862-2.527-.965 2.789-1.711 5.648-2.552 8.478-2.705 8.997-5.556 17.96-8.794 26.781-3.803 9.849-8.708 19.246-14.23 28.235-.667 1.106-1.343 2.211-2.094 3.265-5.909-5.88-10.065-13.578-11.33-21.854-1.027-5.757-.579-11.716.976-17.338 2.135-7.73 6.705-14.762 12.91-19.843 6.914-5.713 15.779-9.019 24.752-9.168 3.089-.059 6.165.4 9.186 1.009 9.476 2.108 18.09 7.824 23.697 15.748z" fill="#2754F0" fill-rule="evenodd"/></svg>