<svg height="100" width="100" xmlns="http://www.w3.org/2000/svg"><path d="M45.168 57.629H64.96c7.352 0 13.334-5.983 13.334-13.337 0-7.353-5.982-13.335-13.334-13.335h-6.305L45.168 19.25H64.96C78.789 19.25 90 30.463 90 44.292c0 10.492-6.454 19.476-15.607 23.201l15.605 13.548H72.141zm9.664-14.963H35.04c-7.35 0-13.335 5.98-13.335 13.334 0 7.352 5.983 13.335 13.335 13.335h6.305L54.832 81.04H35.041C21.21 81.041 10 69.83 10 56c0-10.492 6.454-19.477 15.607-23.203L10.002 19.25h17.857z" fill="#2754F0" fill-rule="evenodd"/></svg>