<svg height="100" width="100" xmlns="http://www.w3.org/2000/svg"><path d="M36.266 61.467c-5.666 2.31-12.053 1.28-18.006 1.51-.005-8.57-.005-17.143 0-25.717 6.154.288 12.72-.972 18.482 1.793 4.489 2.11 6.962 6.688 8.91 11.007-2.03 4.498-4.559 9.416-9.386 11.407m36.483 1.51c-3.657-.037-7.518-.457-10.624-2.562-3.653-2.408-5.56-6.534-7.315-10.374l-.001-.002c1.647-3.308 3.313-6.78 6.24-9.16 3.105-2.61 7.264-3.52 11.233-3.615 5.904-.014 11.808.005 17.718-.004V29H70.432c-4.423.373-8.897 1.435-12.636 3.916-3.134 1.973-5.564 4.847-7.537 7.943-1.855-2.996-4.163-5.776-7.117-7.743-3.766-2.62-8.355-3.756-12.875-4.116H10v42.242h8.288c3.491-.01 7.104.014 10.592-.005 5.157-.104 10.467-1.303 14.682-4.404 2.77-1.915 4.861-4.62 6.668-7.423 1.42 2.322 3.082 4.536 5.149 6.32 4.352 3.855 10.261 5.441 15.981 5.507 6.213.015 12.424.005 18.64.005v-8.26c-5.749-.01-11.502.014-17.25-.005" fill="#2754F0" fill-rule="evenodd"/></svg>