<svg height="100" width="100" xmlns="http://www.w3.org/2000/svg"><path d="M50 10c22.1 0 40.035 17.9 40 40 0 22.1-17.9 40-40 40S10 72.1 10 50s17.9-40 40-40zm11.262 63.724c6.178 0 11.227-5.189 11.227-11.473 0-6.285-5.048-11.474-11.227-11.474H29.418v22.948h31.844zM60.38 55.72c3.636-.036 6.566 2.859 6.636 6.496 0 3.601-3.106 6.567-6.672 6.567h-25.63V55.72zM29.064 35.596v11.297H48.48V27.83h-4.235v7.767h-15.18zm3.884 7.414v-3.53h10.944v3.53zm-3.53-14.828v4.59H41.42v-4.59zm21.888-.353v19.064h19.418V35.596H58.72v3.884h7.767v3.53H55.543V31.712H70.37V27.83z" fill="#2754F0" fill-rule="evenodd"/></svg>