<svg height="100" width="100" xmlns="http://www.w3.org/2000/svg"><path d="M64.51 67.183c-5.051 4.557-14.718 4.4-26.08 3.832v-14.59h12.805V43.766H38.429V28.729c10.952-.153 21.32.458 26.637 5.677 3.376 3.314 4.994 8.723 4.943 16.535-.423 7.972-2.221 13.285-5.498 16.242m10.154-42.559c-10.548-10.351-27.186-9.888-43.28-9.44l-6.66.186v28.396H15v12.659h9.724v27.634l6.525.312c1.28.061 2.547.127 3.803.193 4.216.22 8.365.436 12.367.436 10.145 0 19.344-1.391 26.272-7.641 6.135-5.535 9.411-13.997 10.012-25.868l.009-.284c.107-11.807-2.852-20.502-9.047-26.583" fill="#2754F0" fill-rule="evenodd"/></svg>