<svg height="100" width="100" xmlns="http://www.w3.org/2000/svg"><path d="M70.49 61.112c-1.76 3.28-4.1 5.824-7.022 7.632-2.027 1.252-4.288 2.157-6.782 2.714-2.495.556-5.78.834-9.854.834h-11.21V47.597h-6.008v-4.892h6.008V27.9h11.09c4.334 0 7.777.314 10.332.94 2.553.626 4.715 1.485 6.484 2.579a19.827 19.827 0 0 1 7.066 7.543c1.689 3.14 2.534 6.867 2.534 11.18 0 4.034-.88 7.692-2.639 10.971M50 10c22.091 0 40 17.909 40 40S72.091 90 50 90 10 72.091 10 50s17.909-40 40-40zm9.712 25.621a18.425 18.425 0 0 0-5.576-2.072c-1.967-.387-4.323-.581-7.065-.581h-5.546v9.737h11.558v4.892H41.525v19.627h5.546c2.842 0 5.321-.209 7.438-.626a16.702 16.702 0 0 0 5.829-2.325c2.206-1.412 3.86-3.27 4.964-5.576 1.103-2.305 1.654-5.188 1.654-8.646 0-3.478-.606-6.41-1.818-8.795-1.213-2.385-3.022-4.263-5.426-5.635z" fill="#2754F0" fill-rule="evenodd"/></svg>