<svg height="100" width="100" xmlns="http://www.w3.org/2000/svg"><path d="M83.696 61.234a14.676 14.676 0 0 1-7.175 12.554L57.833 84.773a14.578 14.578 0 0 1-14.766 0L24.38 73.793a14.676 14.676 0 0 1-7.175-12.56V38.745a14.672 14.672 0 0 1 7.175-12.55l18.687-10.99a14.474 14.474 0 0 1 14.762 0l18.688 10.99a14.684 14.684 0 0 1 7.175 12.55zm-5.552-37.816a17.91 17.91 0 0 1 8.76 15.31v22.506a17.896 17.896 0 0 1-8.785 15.305L59.43 87.53A17.711 17.711 0 0 1 50.44 90a17.71 17.71 0 0 1-8.996-2.471l-18.687-10.99A17.896 17.896 0 0 1 14 61.234V38.736a17.91 17.91 0 0 1 8.757-15.314L41.444 12.45a17.781 17.781 0 0 1 18.012 0zm-27.02 23.673c4.685 2.448 12.248-3.696 7.119-9.532a60.31 60.31 0 0 1-7.749-10.585l-.053-.103a.914.914 0 0 1-.054.103 60.658 60.658 0 0 1-7.744 10.595c-5.154 5.826 2.541 11.97 7.217 9.522l-2.789 5.71 3.365 3.172 3.37-3.173zm10.532 6.36a8.89 8.89 0 0 0-3.608.764l-1.897 1.136-5.69 4.984-5.404-4.759-1.897-1.219-.263-.142a8.836 8.836 0 0 0-3.613-.764c-5.154 0-9.348 4.44-9.348 9.821s4.179 9.826 9.348 9.826a8.92 8.92 0 0 0 1.53-.132 9.387 9.387 0 0 0 2.083-.636l1.892-1.136 2.53-2.218a.634.634 0 0 0 .064-.89l-2.223-2.238a.637.637 0 0 0-.863 0l-1.951 1.713-1.336.788a4.517 4.517 0 0 1-1.707.338c-2.716 0-4.925-2.418-4.925-5.385s2.21-5.386 4.925-5.386a4.637 4.637 0 0 1 1.707.338l1.317.813 4.788 4.2 3.35 2.938 5.408 4.769 1.897 1.219.263.137a8.743 8.743 0 0 0 3.608.768c5.16 0 9.348-4.44 9.348-9.826s-4.203-9.82-9.333-9.82zm-.785 15.133a4.982 4.982 0 0 1-.922-.264l-1.316-.813-4.818-4.235 4.808-4.23 1.336-.798a4.76 4.76 0 0 1 .936-.269c.26-.045.522-.068.785-.069 2.716 0 4.925 2.42 4.925 5.386 0 3.256-2.652 5.875-5.724 5.312z" fill="#2754F0" fill-rule="evenodd"/></svg>