<svg height="100" width="100" xmlns="http://www.w3.org/2000/svg"><path d="M50.653 14.27c4.36-1.02 9.056 2.85 8.702 7.353.16 4.135-3.9 7.69-7.966 7.167a7.215 7.215 0 0 1-5.053-2.716 7.369 7.369 0 0 1-1.024-7.486c.892-2.232 3.013-3.85 5.341-4.318zm-28.584 7.537c2.448-.534 5.123-.446 7.405.66 2.975 1.306 5.216 4.022 6.106 7.126.975 2.55 2.133 5.113 3.979 7.16 1.438 1.58 3.694 1.779 5.693 1.896 1.319.101 2.592-.278 3.81-.74 2.737-.863 5.856 1.661 5.537 4.53.024 2.398-2.26 4.42-4.617 4.231-1.597 0-3.035-1.042-3.79-2.411-1.405-2.12-3.243-4.41-5.94-4.742-2.45-.534-5.003.1-7.22 1.175-1.439.669-2.7 1.678-4.193 2.239-3.545 1.359-7.808.786-10.787-1.611a11.065 11.065 0 0 1-4.138-6.976c-.493-2.615.159-5.362 1.515-7.625a11.458 11.458 0 0 1 6.64-4.912zm46.567 13.23a14.97 14.97 0 0 1 17.428 12.094c.405 2.927.191 5.992-1.06 8.706a14.982 14.982 0 0 1-22.085 6.362c-4.482-2.99-7.14-8.553-6.472-13.918.48-6.484 5.782-12.17 12.19-13.244zM48.97 52.313c1.005-.139 2.093-.163 3.018.312a4.555 4.555 0 0 1 2.503 4.437c-.192 2.445-2.637 4.413-5.065 4-2.443-.553-5.14-1.138-7.52-.038-3.186 1.678-5.108 5.008-5.916 8.422-.72 3.595-3.28 6.752-6.712 8.09-1.853.839-3.944.916-5.936.686a11.118 11.118 0 0 1-8.6-6.952c-2.084-5.02.268-11.295 5.086-13.772a11.077 11.077 0 0 1 10.047-.24c2.725 1.379 5.633 2.542 8.692 2.844 2.198.15 3.952-1.439 5.549-2.73 1.462-1.14 1.726-3.189 3.215-4.287a3.819 3.819 0 0 1 1.64-.772zm2.438 18.72c4.06-.511 8.105 3.042 7.947 7.172.24 3.476-2.52 6.755-5.91 7.35-2.936.606-6.198-.818-7.687-3.433a7.4 7.4 0 0 1-.455-6.63 7.314 7.314 0 0 1 6.105-4.46z" fill="#2754F0"/></svg>