<svg height="100" width="100" xmlns="http://www.w3.org/2000/svg"><path d="M57.817 74.188c.134-.783.427-1.521.657-2.275 1.978-6.253 3.964-12.503 5.935-18.756.476.642.824 1.362 1.223 2.051C69.09 61.303 72.535 67.404 76 73.493c.118.222.21.457.302.693-6.163.007-12.324.002-18.485.002m14.059 4.099c-5.797 3.637-11.598 7.272-17.395 10.909-.593.37-1.171.764-1.795 1.079 1.304-4.424 2.772-8.803 4.13-13.212.214-.037.43-.058.65-.067 5.099.008 10.198.008 15.298.002.323 0 .648.018.974.044-.568.49-1.233.842-1.862 1.245M50.09 88.849c-.802-2.134-1.39-4.341-2.11-6.505-.54-1.776-1.158-3.528-1.647-5.32 2.533-.042 5.07-.036 7.603-.001-1.097 3.519-2.259 7.019-3.37 10.534-.135.44-.29.872-.476 1.292M39.972 85.6c-3.927-2.459-7.85-4.923-11.778-7.384-.592-.375-1.214-.71-1.747-1.171.79-.072 1.582-.04 2.373-.044 4.219 0 8.438.002 12.656 0 .63.004 1.264-.046 1.888.062 1.357 4.408 2.825 8.785 4.13 13.21-2.548-1.491-5.009-3.126-7.522-4.673m-4.766-31.5c.157-.29.33-.575.575-.8 2.043 6.387 4.05 12.785 6.082 19.175.194.585.382 1.172.535 1.772-6.186.02-12.375.02-18.563-.002C27.569 67.5 31.439 60.827 35.206 54.1m-7.71.016c.987-4.502 1.968-9.005 2.957-13.507.169-.747.278-1.512.543-2.232 1.157 3.59 2.296 7.187 3.442 10.782.178.345-.079.668-.228.967-3.163 5.516-6.25 11.076-9.431 16.581.838-4.21 1.823-8.392 2.718-12.591m11.2-29.75c3.33-4.527 6.608-9.098 9.969-13.605.046 4.353-.004 8.703.024 13.056.013.404-.015.822-.247 1.169-3.996 7-7.937 14.036-11.945 21.032a3.419 3.419 0 0 1-.372-.869c-1.243-4.013-2.58-7.996-3.8-12.012 2.08-2.954 4.257-5.84 6.371-8.77m11.393 3.456c4.104 7.112 8.12 14.28 12.204 21.405.148.276.352.585.202.905-2.538 8.005-5.074 16.012-7.613 24.017-3.159.09-6.323.02-9.483.035-2.575-7.944-5.049-15.92-7.594-23.873-.18-.355-.093-.719.121-1.032 4.068-7.145 8.074-14.326 12.163-21.457m1.424-17.062c5.294 7.146 10.492 14.365 15.764 21.528.202.274.39.561.576.848-1.334 4.348-2.739 8.678-4.113 13.014-1.777-2.977-3.423-6.034-5.149-9.044-2.304-4.078-4.609-8.158-6.915-12.236-.23-.37-.18-.819-.188-1.235.028-4.291-.023-8.584.025-12.875m17.87 28.194c1.321 6.063 2.652 12.122 3.974 18.184.666 3.143 1.42 6.269 2.025 9.422-1.104-1.743-2.048-3.586-3.09-5.368-2.162-3.814-4.328-7.627-6.487-11.443-.251-.322-.037-.707.048-1.046 1.123-3.44 2.186-6.9 3.313-10.338.083.192.164.385.216.589m10.42 34.62c-2.967-13.57-5.936-27.136-8.903-40.705-.174-.816-.771-1.429-1.237-2.088-5.77-7.882-11.535-15.77-17.302-23.653-.557-.744-1.034-1.579-1.805-2.129h-.94c-.762.559-1.242 1.387-1.797 2.129-5.768 7.885-11.532 15.773-17.303 23.655-.464.659-1.063 1.27-1.237 2.086a112321.34 112321.34 0 0 1-8.903 40.702c-.16.802-.445 1.605-.36 2.433.024.32.266.56.518.73C30.25 82.81 39.949 88.92 49.663 95h.856c9.68-6.054 19.34-12.141 29.021-18.195.33-.22.656-.54.668-.963-.002-.774-.257-1.517-.404-2.268" fill="#2754F0" fill-rule="evenodd"/></svg>