<svg height="100" width="100" xmlns="http://www.w3.org/2000/svg"><path d="M69.555 58.037c1.03-2.475 1.604-5.188 1.604-8.037s-.574-5.562-1.604-8.037l14.225-8.212v32.498zM52.927 70.742a20.877 20.877 0 0 0 13.902-8.028l14.244 8.223-28.146 16.25zm-19.313-8.028a20.884 20.884 0 0 0 13.9 8.028v16.444l-28.145-16.25zm-2.726-20.751c-1.03 2.475-1.605 5.188-1.605 8.037s.574 5.562 1.605 8.037l-14.225 8.212V33.751zm16.626-12.707a20.878 20.878 0 0 0-13.9 8.03l-14.245-8.223 28.145-16.251zm5.413 0V12.812l28.146 16.251-14.242 8.223c-3.308-4.315-8.247-7.298-13.904-8.03zM50.22 5L11.25 27.5v45L50.22 95l38.972-22.5v-45z" fill="#2754F0" fill-rule="evenodd"/></svg>