<svg height="100" width="100" xmlns="http://www.w3.org/2000/svg"><path d="M50 81.396c-3.55 0-6.948-.62-10.131-1.71.518-.671.834-1.02 1.217-1.55C52.235 64.462 73.53 58.168 75.973 38.538l-6.32 3.72s-2.643 3.265-4.256 5.381c-5.29 6.942-14.326 10.172-22.973 10.71-.172-7.655 5.034-14.216 11.852-17.208 6.496-3.444 14.866-5.784 19.923-11.12A31.247 31.247 0 0 1 81.396 50c0 17.311-14.085 31.396-31.396 31.396M18.604 50c0-17.311 14.085-31.396 31.396-31.396a31.18 31.18 0 0 1 15.302 4.01C52.968 27.66 37.253 29.717 30.895 42.95c-5.76 10 .402 21.1-.235 31.732C23.336 68.929 18.604 60.015 18.604 50M50 10c-22.09 0-40 17.91-40 40s17.91 40 40 40 40-17.91 40-40-17.91-40-40-40" fill="#2754F0" fill-rule="evenodd"/></svg>