<svg height="100" width="100" xmlns="http://www.w3.org/2000/svg"><path d="M48.812 90h-1.173c.374.057.765.055 1.173 0 3.335-.122 7.782-1.267 13.138-3.435 5.868-2.576 11.735-5.867 15.885-9.445.144 0 .144-.143.287-.143 0 0 0 .143.143.143s.143.286-.143.43c0 .142-.287.715-1.002 1.144-3.721 3.005-8.873 6.154-14.025 8.3-4.437 1.861-8.3 2.863-11.163 3.006zM25.296 18.498c.5-.382 1.024-.761 1.57-1.133a4 4 0 0 0-.352.157c2.147-1.58 4.836-3.122 7.672-4.374a33.76 33.76 0 0 1 2.252-.802c.971-.4 1.926-.683 2.83-.952l.213-.106c5.152-1.288 8.3-.572 7.728 2.29-.143 1.002-.858 2.003-1.86 3.005-.859.286-2.72 0-3.006-.286.86-1.002 1.288-1.86 1.575-2.576.548-2.194-1.848-2.788-5.768-1.852.46-.162.674-.256 1.041-.437l-2.143.715-.21.076c.455-.136.892-.253 1.312-.354-.287.101-.669.229-1.245.42-.639.183-.987.308-1.49.523-.123.062-.247.126-.37.193a45.511 45.511 0 0 0-4.783 2.282c-.191.124-.346.216-.796.467a4.496 4.496 0 0 0-.432.4c-1.145.715-1.145.715-1.717 1.145-1.431.858-1.575.858-2.004 1.288l-1.336 1.069a12.73 12.73 0 0 0-1.097 1.22c-.555.556-1.024.94-1.474 1.419.49-.425.943-.85 1.474-1.275-.43.715-.859 1.43-1.002 2.003s-.143 1.002.143 1.288l-.07.083c1.097 1.19 4.755.874 9.373-1.085 1.574-.572 3.148-1.288 4.436-2.146.573-.143 1.145.715 1.431.858.144.144.287.716 0 1.002-1.717 1.002-3.577 2.004-5.581 2.72-5.702 2.503-10.458 2.843-11.772 1.284l-.106.147c-.287-.573-.43-.86-.143-1.575 0-.143 0-.286.143-.572.137-.171.282-.334.435-.492-.251.248-.494.505-.722.778 0-.143.144-.572.144-.716.429-.715.715-1.144 1.288-1.86.117-.094.229-.187.34-.28.537-.739 1.186-1.39 1.95-2.153.445-.423.93-.847 1.446-1.267.098-.081.197-.162.318-.259l-.064.055c.128-.102.258-.203.39-.304l.179-.175-.14.144zm62.859 43.917a6.63 6.63 0 0 0 .5-.751c-.166.24-.332.492-.5.75C85.448 69 72.865 78.638 59.088 84.563c-8.873 3.72-16.172 5.009-20.036 3.864 1.002.286 2.576.715 3.72.858 10.877 1.718 38.355-11.878 44.223-24.042.452-.792.815-1.852 1.16-2.827zM24.639 81.08c3.072 1.77 9.07 1.528 16.923-.673l.209-.282-.207.282c2.515-.705 5.219-1.61 8.078-2.715 1.86-.572 2.576.716 2.576.716.143.143.143.858-.858 1.288-4.193 1.636-8.056 2.815-11.46 3.538a8.833 8.833 0 0 0-.133.326c.03-.104.067-.212.109-.321-6.114 1.295-10.743 1.116-13.132-.538a38.445 38.445 0 0 0-2.105-1.62 5.23 5.23 0 0 1-.757-.526c.235.156.492.335.757.525zM11.687 60.533c.25.964.516 1.834.889 2.705-.286-1.002-.716-2.004-.859-3.292 3.006 4.294 14.598 3.292 29.338-3.005 18.891-8.014 35.922-21.61 38.355-30.34.572-2.147.143-3.72-1.002-4.866.859.859 1.717 1.86 2.433 2.72 1.002 1.144 1.145 2.719.715 4.722-2.29 9.016-19.75 22.755-39.213 30.912-15.895 6.83-28.016 7.517-30.291 2.437a2.72 2.72 0 0 1-.192-.433c-.244-.856-.593-2.128-.867-3.105.118.363.278.697.581 1.101l.088.346c.003-.08.008-.16.018-.24.008-.129.02-.259.037-.392a6.388 6.388 0 0 0-.025.308c.008-.055.014-.11.025-.165-.012.071-.019.138-.027.205a5.726 5.726 0 0 0-.008.346c.007-.08.015-.161.027-.245-.008.094-.016.188-.022.28zm-1.577-7.13c.004-.105.01-.208.017-.312.01.252.016.49.016.701v.027a4.897 4.897 0 0 1-.033-.416l.016-.314a35.884 35.884 0 0 0-.007-.174l-.002.019.002-.026c-.041-.903-.119-1.954-.119-2.693 0 1.001.286 1.717.716 2.433v-.144c11.305 12.022 62.397-19.177 62.97-32.343.112-1.917-.664-2.857-1.348-3.379l.775.517 1.717 1.145c1.288 1.145 1.86 2.862 1.288 5.152-2.147 8.443-18.89 21.61-36.923 29.195-14.343 6.164-25.446 7.026-28.348 2.992-.518-.523-.679-1.049-.7-1.794a5.057 5.057 0 0 1-.038-.898 4.66 4.66 0 0 0 .001.311zm10.051 23.43c-.716-.858-1.574-1.717-2.004-2.575.716.858 1.718 2.003 2.433 2.862-.143-.143-.286-.286-.429-.286zm5.275-58.479c.34-.277.701-.555 1.078-.832-.272.14-.497.325-1.078.832zm22.793-8.217a5.705 5.705 0 0 1-1.02.119h-.572a3.879 3.879 0 0 1 1.592-.119zm3.846 3.584c.61-2.32-.969-3.494-3.846-3.61.82-.042 1.72-.111 2.415-.111 3.578 0 5.295 1.288 4.58 4.007-.86 3.292-5.439 7.871-11.306 11.879-1.145.572-2.433-1.002-2.004-1.718 0-.143.143-.143.143-.143 5.295-3.578 9.16-7.442 10.018-10.304zM86.28 33.9c-.572-.143-1.574-2.147-1.717-3.006 0-.528-.04-.976-.162-1.387l.734 1.387.573.86c.572 1.287.572 1.287.572 2.003zm-1.88-4.393a2.996 2.996 0 0 0-.553-1.045zM66.673 17.728c.661-2.383-.147-4.03-2.084-4.944.942.395 2.095.86 2.942 1.223 2.004 1.002 2.863 2.72 2.147 5.295-2.004 7.728-16.887 19.32-33.202 26.333a98.486 98.486 0 0 1-8.873 3.292c-1.574.143-1.717-1.86-1.002-2.863.143-.286.286-.286.573-.572 2.576-.716 5.295-1.717 8.157-2.862 15.456-6.583 29.481-17.746 31.342-24.902zm-2.076-4.652a6.182 6.182 0 0 0-.5-.5c.157.16.325.327.5.5zm-7.8 53.597c15.6-8.158 28.623-19.32 30.77-26.906.286-1.288.286-2.576 0-3.577.43 1.288 1.002 2.576 1.145 3.72.143.86.143 1.861-.143 3.006-2.004 7.442-14.74 18.461-30.197 26.476-1.717.715-2.719-.573-2.433-1.718.143-.572.573-.858.859-1.001zm17.604-2.576c8.014-5.868 13.739-12.022 14.883-16.745.144-.858.287-1.717.144-2.576l.429 2.147v1.288c0 .716 0 1.145-.143 2.004-1.145 4.58-6.727 10.447-14.455 16.315-1.145.858-1.86-.287-1.717-1.145.143-.716.716-1.145.859-1.288zM21.735 34.902c-2.003.286-4.866.143-6.297-1.288.573-1.002 1.002-1.86 1.718-2.863 1.288 1.718 5.581 1.718 11.306-.143.715-.286.715 1.288.715 1.288 0 .859-.143 2.004-7.442 3.006zM12.29 49.356c-1.718-.859-2.433-2.147-2.147-4.293-.13 1.035.093 1.952.56 2.648-.368-.701-.532-1.439-.417-2.362 0-.123.027-.273.057-.426l.23-1.72.144-.651c.078-.404.17-.807.285-1.21v.286l-.275 1.235c-.045.877.138 1.684.598 2.225.033-.151.068-.303.106-.455.286.573.859.859 1.574 1.145.43.859 0 2.576 0 2.576-.143.573-.286 1.145-.715 1.002zm-2.18 3.812zM72.337 16.94a5.821 5.821 0 0 0-.513-.5zm-26.13 50.305c-16.368 6.82-28.836 7.53-30.961 2.378-.097-.127-.113-.268-.238-.517l-.859-1.718c3.292 4.294 15.027 3.435 30.34-3.291 11.592-4.866 22.612-11.879 30.054-18.462 1.288-.572 1.717.43 2.003 1.002.287 1.002 0 1.717-.286 2.147-7.44 6.726-18.46 13.595-30.052 18.461zm-12.88 11.592c-6.154 1.002-10.448.573-12.595-1.717-.643-.772-1.516-1.774-2.206-2.593 1.988 2.204 6.465 2.698 12.797 1.734 1.288 0 2.146 1.145 2.29 1.431s.286 1.002-.287 1.145zM18.8 74.757c-.171-.17-.341-.339-.5-.5.157.173.325.338.5.5zm71.09-20.965l.45-.715c-.12.274-.29.552-.5.832l.05-.117zM39.07 85.885C56.526 84.158 86.902 66.21 89.84 53.91c-.138.973-.27 2.063-.27 2.889 0 .143 0 .286-.143.572-2.147 7.3-16.458 18.605-32.2 25.331-7.152 3.08-13.336 4.571-17.84 4.67.067.167.144.328.236.482a3.477 3.477 0 0 1-.327-.48c-1.945.035-3.574-.19-4.825-.665-1.002-.572-2.433-1.001-3.291-1.574 2.05.846 4.735 1.057 7.828.757.008-.146.022-.302.043-.47 0 .155.007.31.017.464zm-21.913-55.42c-.716 1.288-1.288 2.147-1.718 3.149-.572-.716-.572-1.288-.572-2.004 0-.143 0-.286.143-.716l.228-.342a3.25 3.25 0 0 1 .201-.516c.143-.573.43-1.002.859-1.431-.037.11-.093.23-.16.355.055-.068.11-.138.16-.212.047-.188.11-.375.189-.553-.12.164-.234.312-.332.41.286-.43.572-1.002 1.002-1.288.06-.076.117-.15.172-.223.098-.15.198-.296.3-.436.267-.464.569-.89.959-1.345l-.27.45c.122-.145.257-.294.413-.45l-.573.716c-.11.11-.218.233-.322.361l-.272.383c-.292.526-.546 1.105-.837 1.832l-.045.072c-.089.816-.027 1.412.475 1.788zm-4.544 10.067a4.843 4.843 0 0 0-.036.237c-.572-.715-.716-1.574-.572-2.576 0-.286 0-.572.143-.859.286-1.001.715-1.86 1.145-2.862-.287 1.145-.144 2.147.286 3.006-.231.923-.648 1.754-.876 2.642.276-.772.63-1.635.876-2.5 2.003 2.863 9.875 2.147 19.892-2.003 12.594-5.581 24.33-14.74 25.904-20.465.572-2.147-.143-3.578-2.004-4.293.286-.143.286-.143 1.288.143.716.143 1.145.286 1.575.286 2.146.859 3.005 2.433 2.432 4.723-1.717 6.44-14.454 16.458-28.336 22.325-10.964 4.557-19.376 5.43-21.717 2.196zM11.35 59.015a86.107 86.107 0 0 0-.491-.5c.154.178.31.341.49.5zm2.085-25.83c0 .572-.143.858-.287 1.287-.429 1.002-.715 2.004-1.144 3.006 0-.143.143-.573.143-.716.286-1.002 1.001-2.576 1.288-3.578z" fill="#2754F0" fill-rule="evenodd"/></svg>