<svg height="100" width="100" xmlns="http://www.w3.org/2000/svg"><path d="M49.72 27.18c-13.74 0-25.56 12.6-22.18 28.4.06.22.1.44.16.66.04.14.1.34.26.18l15.02-11.78c.14-.08.24-.06.36.04.18.18 10.18 12.96 10.18 12.96.14.18.32.36.08.54L38.56 69.84c-.26.16.04.4.16.56l15.16 19.38.02.02c-1.34.14-2.68.2-4.04.2C27.84 90 10 72.16 10 50.14c0-17.88 11.76-33 27.98-38.04.02.02.04.06.06.08l11.6 14.86c.02.04.06.1.08.14zM50.14 10C72.16 10 90 27.84 90 49.84c0 17.88-11.78 33-27.98 38.06-.02-.02-.04-.06-.06-.08l-11.6-14.86c-.02-.04-.06-.1-.08-.14 13.74 0 25.54-12.62 22.16-28.42-.06-.22-.1-.44-.16-.66-.04-.1-.08-.24-.16-.24-.02 0-.06.02-.1.06L57 55.34c-.06.04-.1.06-.16.06s-.12-.02-.18-.08c-.18-.18-10.18-12.96-10.18-12.96-.14-.18-.32-.36-.08-.54l15.04-11.66c.26-.16-.04-.4-.16-.56L46.12 10.22l-.02-.02c1.34-.14 2.68-.2 4.04-.2zM53 13.52l10.9 13.92c.82.94 1.14 1.98.98 3.08-.14.94-.66 1.8-1.44 2.36l-12.5 9.68c2.2 2.82 4.72 6.04 6.4 8.16l12.5-9.8c.64-.52 1.44-.82 2.26-.82 1.38 0 2.98.88 3.46 2.84l.18.72c.02 0 .02.02.02.04.92 4.26.9 8.46-.08 12.48-.92 3.8-2.62 7.26-5.08 10.3-2.42 3-5.52 5.46-8.98 7.14-1.6.78-3.3 1.38-5.02 1.82l6.62 8.46c2.84-1.08 5.54-2.54 8.04-4.32 3.1-2.2 5.82-4.88 8.1-7.92 4.74-6.34 7.24-13.88 7.24-21.8 0-9.74-3.8-18.9-10.68-25.78C69.7 17.88 61.66 14.2 53 13.52z" fill="#2754F0"/></svg>