<svg height="100" width="100" xmlns="http://www.w3.org/2000/svg"><path d="M79.835 79.814h-7.376V69.199c-5.454 6.374-13.548 10.425-22.575 10.425-16.387 0-29.719-13.332-29.719-29.719s13.332-29.719 29.719-29.719c14.716 0 26.962 10.755 29.307 24.816h-7.512c-2.242-9.969-11.16-17.44-21.795-17.44-12.32 0-22.344 10.023-22.344 22.343S37.563 72.25 49.884 72.25c8.245 0 15.456-4.493 19.328-11.155H53.739v-7.376h26.096zM50 10c-22.091 0-40 17.908-40 40s17.908 40 40 40h40V50c0-22.092-17.909-40-40-40z" fill="#2754F0" fill-rule="evenodd"/></svg>