<svg height="100" width="100" xmlns="http://www.w3.org/2000/svg"><path d="M42.049 10H57.95c11.144 0 15.185 1.16 19.26 3.34s7.271 5.375 9.45 9.45S90 30.904 90 42.048V57.95c0 11.144-1.16 15.185-3.34 19.26s-5.375 7.271-9.45 9.45S69.096 90 57.952 90H42.05c-11.144 0-15.185-1.16-19.26-3.34s-7.271-5.375-9.45-9.45S10 69.096 10 57.952V42.05c0-11.144 1.16-15.185 3.34-19.26s5.375-7.271 9.45-9.45S30.904 10 42.048 10zM50 85c19.33 0 35-15.67 35-35S69.33 15 50 15 15 30.67 15 50s15.67 35 35 35z" fill="#2754F0" fill-rule="evenodd"/></svg>