<svg height="100" width="100" xmlns="http://www.w3.org/2000/svg"><path d="M83.336 31.204a38.883 38.883 0 0 1 5.62 20.132C88.892 72.676 71.564 90 50.228 90h-.068C28.824 90 11.432 72.54 11.5 51.204a38.607 38.607 0 0 1 5.684-20.132l.668-1.136 3.544 3.544c-.668 1-1.272 2.072-1.672 3.276-2.808 7.692 1.204 16.188 8.964 18.996 4.616 1.604 9.5.868 13.312-1.672l8.228 8.296 9.432-9.432c.872.604 1.872 1.072 2.944 1.472 7.56 2.676 15.852-1.272 18.528-8.764 1.604-4.412.868-9.028-1.472-12.708L82.604 30zm-1.404-6.156L50.36 56.488 18.388 24.38l1.272-1.336C27.552 14.684 38.32 10 49.892 10h.068c11.704 0 22.944 5.016 30.768 13.712zM49.96 13.744c-9.968 0-19.264 3.748-26.352 10.636l26.756 26.824 26.42-26.288c-7.092-7.088-16.724-11.172-26.756-11.172zm18.932 35.784c-1.672 0-3.144-.468-4.416-1.336L75.448 37.22c.868 1.272 1.336 2.812 1.336 4.416 0 4.348-3.544 7.892-7.892 7.892zm-36.856 1.008c-4.348 0-7.892-3.544-7.892-7.892 0-1.804.6-3.48 1.604-4.816l11.104 11.036a7.661 7.661 0 0 1-4.816 1.672z" fill="#2754F0" fill-rule="evenodd"/></svg>