<svg height="100" width="100" xmlns="http://www.w3.org/2000/svg"><path d="M49.215 43.434a14.418 14.418 0 0 1-10.238-4.242c-2.705-2.76-4.241-6.363-4.241-10.237a14.441 14.441 0 0 1 4.241-10.237c2.706-2.76 6.363-4.242 10.238-4.242a14.418 14.418 0 0 1 10.237 4.242c2.76 2.705 4.241 6.362 4.241 10.237a14.418 14.418 0 0 1-4.241 10.237c-2.706 2.773-6.35 4.242-10.237 4.242m10.237 23.6c2.705 2.76 4.241 6.363 4.241 10.238a14.418 14.418 0 0 1-4.241 10.237c-2.706 2.76-6.363 4.242-10.237 4.242a14.418 14.418 0 0 1-10.238-4.242c-2.705-2.76-4.241-6.363-4.241-10.237a14.418 14.418 0 0 1 4.241-10.237c2.706-2.76 6.363-4.242 10.238-4.242 3.888.014 7.531 1.482 10.237 4.242m2.297-25.6c3.358-3.358 5.18-7.776 5.18-12.535 0-4.154-1.458-8.176-4.12-11.365L73.116 7.23 70.817 5 60.512 15.305c-3.181-2.65-7.124-4.12-11.297-4.12-9.79.008-17.722 7.95-17.715 17.74a17.727 17.727 0 0 0 5.18 12.51c2.936 2.937 6.77 4.772 10.89 5.125v13.065a17.213 17.213 0 0 0-10.89 5.126c-6.906 6.93-6.906 18.14 0 25.07C40.038 93.177 44.456 95 49.215 95a17.628 17.628 0 0 0 12.534-5.18c3.358-3.358 5.18-7.776 5.18-12.535 0-4.758-1.822-9.176-5.18-12.534-2.936-2.937-6.77-4.772-10.89-5.126V46.56a17.18 17.18 0 0 0 10.89-5.125" fill="#2754F0" fill-rule="evenodd"/></svg>