<svg height="100" width="100" xmlns="http://www.w3.org/2000/svg"><path d="M81.592 58.198c7.917 2.84 7.079 11.41 6.613 14.39-.466 2.84-2.002 6.053-2.002 6.053s-.839-8.149-5.961-9.546c-6.752-1.863-15.554 5.635-27.15 12.713-10.85 6.613-15.879 8.988-26.823 7.963-9.965-.931-11.176-10.198-11.176-10.198s2.142 1.77 5.588 2.468c1.258.28 2.562.466 3.912.466 8.848 0 15.088-12.714 15.088-21.608-.046-.047-.046-.14-.093-.186-.605-.047-6.752-.56-14.762-4.89-2.468-1.35-4.378-2.934-5.775-4.517-3.166-3.54-3.958-6.939-4.051-7.218 5.448 4.144 12.247 4.191 19.652 4.191 17.835 0 28.919-12.015 28.919-29.897 0-1.723-.14-3.446-.42-5.122 3.353 2.98 7.73 6.985 7.824 19.326.186 16.857-8.336 28.266-8.336 28.266s11.037-5.495 18.953-2.654zM47.924 40.735c-8.01 4.238-24.635 2.794-24.635 2.794l8.29-5.542a16.008 16.008 0 0 1-5.403-12.014C26.176 17.17 33.255 10 41.963 10c8.662 0 15.74 7.171 15.693 15.973 0 6.66-4.004 12.387-9.732 14.762z" fill="#2754F0" fill-rule="evenodd"/></svg>