<svg height="100" width="100" xmlns="http://www.w3.org/2000/svg"><path d="M71.7 44.094c-2.627-4.033-5.132-8.147-7.8-12.18-4.196 3.381-8.676 6.436-13.422 9.023a1.02 1.02 0 0 1-.488.183 1.02 1.02 0 0 1-.49-.183c-4.745-2.587-9.225-5.642-13.42-9.023-2.669 4.033-5.174 8.147-7.801 12.18-1.548 2.484-3.32 4.888-4.298 7.658-1.527 3.686-2.118 7.718-1.955 11.71.265 5.479 2.22 10.835 5.479 15.235a28.604 28.604 0 0 0 11.263 8.94A28.72 28.72 0 0 0 49.99 90a28.72 28.72 0 0 0 11.222-2.363 28.604 28.604 0 0 0 11.262-8.94c3.259-4.4 5.214-9.756 5.479-15.235.163-3.992-.428-8.024-1.955-11.71-.978-2.77-2.75-5.174-4.298-7.658m-21.71-8.249c.081 0 .142-.02.224-.06 3.706-2.119 7.82-5.031 11.12-7.78-1.711-3.076-3.768-5.948-5.621-8.962-1.874-3.035-3.89-5.988-5.723-9.043-1.833 3.055-3.85 6.008-5.723 9.043-1.854 3.014-3.91 5.886-5.622 8.961 3.3 2.75 7.414 5.662 11.12 7.78.082.04.143.061.225.061" fill="#2754F0" fill-rule="evenodd"/></svg>