<svg height="100" width="100" xmlns="http://www.w3.org/2000/svg"><path d="M48.774 51.719l-3.396 1.969 6.348 3.637 3.372-1.955 9.022 5.209-13.458 7.768-27.919-15.975-.112 7.773L50.68 76.137 77.628 60.58l-15.79-9.117 3.183-1.845-6.347-3.637-3.158 1.83-4.431-2.558 3.878-2.249-6.345-3.637-3.855 2.235-7.54-4.354 13.455-7.768L69.28 40.15l6.815-3.957-25.431-14.504-26.954 15.56 14.31 8.262-2.697 1.564 6.345 3.637 2.675-1.55zm37.69-22.813v42.188L49.928 92.188 13.392 71.094V28.906L49.928 7.812z" fill="#2754F0"/></svg>