<svg height="100" width="100" xmlns="http://www.w3.org/2000/svg"><path d="M74.661 51.057c-2.262 5.59-4.651 11.132-6.936 16.717-5.926 2.433-11.846 4.894-17.772 7.327-5.92-2.466-11.84-4.916-17.755-7.392-2.136-5.185-4.25-10.38-6.436-15.542-.363-1.011-1.05-2.115-.473-3.186 2.246-5.568 4.701-11.06 6.854-16.668 5.931-2.564 11.934-4.964 17.91-7.436 5.881 2.45 11.746 4.932 17.65 7.32 2.235 5.152 4.278 10.386 6.497 15.549.362 1.049 1.06 2.207.461 3.311m14.51-3.053c.395.994.994 2.098.362 3.136-3.608 8.671-7.222 17.343-10.813 26.02-.445 1.61-2.301 1.807-3.586 2.444C66.769 83.053 58.378 86.43 50.064 90c-9.49-3.855-18.915-7.859-28.383-11.758C17.798 68.78 13.822 59.345 10 49.854c3.894-9.325 7.859-18.622 11.599-28.003C31.012 17.716 40.584 13.938 50.085 10c9.375 3.9 18.733 7.842 28.135 11.676 3.757 8.726 7.238 17.58 10.95 26.328zM50.09 35.147a575.93 575.93 0 0 0-10.616 4.366c-1.324 3.444-2.933 6.783-4.163 10.26.956 3.679 2.834 7.111 4.174 10.686 3.531 1.467 7.035 2.999 10.605 4.372 3.421-1.505 6.887-2.889 10.346-4.3 1.4-3.444 2.988-6.81 4.234-10.309-.938-3.701-2.85-7.155-4.212-10.742-3.465-1.422-6.93-2.85-10.368-4.333z" fill="#2754F0" fill-rule="evenodd"/></svg>