<svg height="100" width="100" xmlns="http://www.w3.org/2000/svg"><path d="M49.877 10h.114a27478.408 27478.408 0 0 1 33.834 57.76C77.222 75.165 70.685 82.63 64.043 90c-5.45-.118-10.903-.025-16.353 0 7.042-7.854 14.038-15.747 21.076-23.605-8.63-14.856-17.325-29.68-25.984-44.52 2.354-3.968 4.79-7.882 7.095-11.875zM35.356 89.964c-.36-.322-13.254-15.041-19.356-22.026 8.203-13.845 16.303-27.754 24.516-41.596 2.408 3.78 4.73 7.615 7.146 11.39-5.568 9.458-11.12 18.918-16.695 28.371 3.498 3.84 6.924 7.744 10.436 11.57 3.926-.015 7.85-.008 11.776-.004a8147.091 8147.091 0 0 1-10.547 12.295z" fill="#2754F0" fill-rule="evenodd"/></svg>