<svg height="100" width="100" xmlns="http://www.w3.org/2000/svg"><path d="M51.297 36.38c3.033-.518 5.343-3.144 5.343-6.315 0-3.54-2.88-6.411-6.431-6.411-3.553 0-6.432 2.87-6.432 6.411 0 3.154 2.285 5.769 5.293 6.306v8.79a6.433 6.433 0 0 0-3.75 2.145L17.342 31.232a1.447 1.447 0 0 1-.002-2.51l32.124-18.527a1.463 1.463 0 0 1 1.454-.002l32.156 18.472c.969.557.97 1.951.002 2.51L55.103 47.311a6.438 6.438 0 0 0-3.806-2.159zm-6.042 19.175a6.432 6.432 0 0 0 3.822 2.213L49.05 88.55c0 1.115-1.213 1.812-2.181 1.253L15.726 71.842A1.447 1.447 0 0 1 15 70.587l.031-35.869a1.453 1.453 0 0 1 2.182-1.253l27.039 15.594a6.359 6.359 0 0 0-.475 2.407c0 .758.139 1.481.381 2.156l-7.619 4.37a6.412 6.412 0 0 0-4.387-2.707c-3.517-.495-6.77 1.947-7.266 5.454-.496 3.507 1.953 6.75 5.47 7.244 3.518.494 6.771-1.947 7.267-5.454a6.377 6.377 0 0 0-.145-2.514zm40.093-20.837l.031 35.869c0 .517-.276.996-.726 1.255L53.51 89.802c-.969.56-2.18-.137-2.181-1.252l-.027-30.775a6.423 6.423 0 0 0 3.86-2.22l7.779 4.46a6.382 6.382 0 0 0-.145 2.514c.496 3.506 3.749 5.948 7.266 5.454 3.518-.495 5.967-3.737 5.471-7.244-.496-3.506-3.75-5.949-7.266-5.454a6.406 6.406 0 0 0-4.387 2.707l-7.62-4.37c.241-.675.38-1.399.38-2.156a6.35 6.35 0 0 0-.482-2.425l27.008-15.576a1.454 1.454 0 0 1 2.182 1.253z" fill="#2754F0" fill-rule="evenodd"/></svg>