<svg height="100" width="100" xmlns="http://www.w3.org/2000/svg"><path d="M84.845 29.95l-.017.682a11133.56 11133.56 0 0 0 0 33.699v5.716l-.614.358A3456.61 3456.61 0 0 1 64.66 81.701c-4.214 2.423-8.429 4.846-13.65 7.866l-.085.05s-.035.018-.086.035c-.273.17-.546.341-1.023.341a.938.938 0 0 1-.376-.034 1.596 1.596 0 0 1-.375-.12l-.086-.05c-5.63-3.242-10.186-5.887-14.742-8.532-6.04-3.498-12.063-6.996-18.615-10.75l-.614-.34v-2.475c0-12.37-.017-24.758 0-37.145l.017-.717.597-.341a4865.9 4865.9 0 0 0 19.144-11.04c4.42-2.576 8.856-5.153 14.213-8.241l.086-.051c.102-.034.222-.085.324-.103.12-.034.222-.05.341-.05.597-.035.973.204 1.331.426a.98.98 0 0 0 .137.085l.102.051a1379.9 1379.9 0 0 0 11.125 6.348c7.303 4.146 14.623 8.31 21.823 12.677zm-2.457 34.38c-.017-11.005-.017-22.01 0-33.016-6.876-4.164-14.025-8.225-21.175-12.268-3.753-2.133-7.507-4.266-11.124-6.365a1.686 1.686 0 0 1-.256-.153c-4.061 2.354-8.958 5.187-13.855 8.019-6.28 3.651-12.558 7.303-18.53 10.715-.018 12.15-.018 24.28 0 36.43v1.04a6688.18 6688.18 0 0 1 18.018 10.425c5.102 2.952 10.186 5.904 14.332 8.293 3.874-2.235 8.754-5.05 13.65-7.866a2364.037 2364.037 0 0 0 18.94-10.937zm-40.9-3.976c1.86 1.74 3.686 3.532 5.512 5.307a21.16 21.16 0 0 1 0 2.747c-1.757 1.706-3.583 3.327-5.358 5.016a.72.72 0 0 1-.682.273h-4.47c-2.645-4.624-5.307-9.23-7.952-13.855-1.348-2.405-2.815-4.76-4.095-7.2 2.952-2.15 5.836-4.368 8.77-6.535l.171.017c2.491 1.57 4.965 3.157 7.457 4.726.204.086.29.24.273.444v8.395c-.052.29.204.495.375.665zM66.025 41.5H33.384c.939-4.522 2.03-8.992 3.02-13.497h13.377c4.351 0 8.702 0 13.053-.017 1.092 4.505 2.184 9.01 3.191 13.514zm-9.81 17.933c-2.134.034-4.284-.051-6.434.034l-.887.051c-1.894-.017-3.77.034-5.665-.034-.017-.614.034-1.245.103-1.86.29-2.167.426-4.35.716-6.535-.938-2.542-1.962-5.033-2.866-7.593 2.866.035 5.733-.05 8.6.035l1.552.05c2.287-.085 4.59-.016 6.876-.033-.733 2.269-1.638 4.47-2.474 6.705-.495.99-.102 2.082-.034 3.106.12 2.03.444 4.044.512 6.074zm2.456-8.497c2.474-1.621 4.965-3.208 7.422-4.846a625.475 625.475 0 0 1 8.822 6.62c-4.044 6.945-8.003 13.923-11.961 20.902-1.57.034-3.14 0-4.71.017-1.876-1.74-3.787-3.446-5.63-5.221-.017-.904-.188-1.843 0-2.73 1.894-1.911 3.89-3.737 5.801-5.63.085-2.765.034-5.546.034-8.31.034-.273-.034-.632.222-.802z" fill="#2754F0" fill-rule="evenodd"/></svg>