<svg height="100" width="100" xmlns="http://www.w3.org/2000/svg"><path d="M49.955 10C71.993 10 89.91 27.828 90 49.955 89.91 71.993 72.083 89.91 50.045 90 28.007 90 10.09 72.172 10 50.045 10 28.007 27.828 10.09 49.955 10zm.09 78.298c21.232 0 38.342-17.111 38.342-38.343-.09-21.142-17.2-38.253-38.342-38.342-21.142 0-38.343 17.11-38.343 38.342 0 21.142 17.111 38.343 38.343 38.343zm0-74.088c19.708 0 35.744 16.036 35.744 35.745S69.753 85.7 50.045 85.7 14.3 69.664 14.3 49.955 30.336 14.21 50.045 14.21zm19.44 52.677v-1.165c-.896-.09-1.792-.179-2.688-.448-.537-.09-.985-.448-1.254-.985-.358-.717-.448-1.523-.448-2.24V43.057c0-1.344.09-2.598.18-3.852 0-.717.357-1.254.985-1.613.985-.537 2.06-.716 3.135-.627l-.09-1.075H59.9l-9.586 23.472-9.765-23.472H30.515v1.165c.896 0 1.792.179 2.687.448a5.06 5.06 0 0 1 2.15 1.433v20.336c.09 1.523-.358 3.136-1.254 4.39-.896 1.075-2.24 1.791-3.673 1.881v1.165h11.109v-1.165c-1.523-.269-2.867-1.075-3.852-2.33-.807-1.433-1.254-3.045-1.165-4.747V40.459l10.75 26.249h1.255L59.54 39.653v21.41c0 .897-.09 1.882-.18 2.778-.09.627-.537 1.075-1.075 1.344a5.954 5.954 0 0 1-3.046.537v1.165zm-30.37-25.98l8.69 21.142c.269.538.448 1.165.537 1.792a4.41 4.41 0 0 1-.537 1.523L37.682 41.176a18.06 18.06 0 0 0-1.613-2.867c-.627-.627-1.344-1.165-2.15-1.433h.896c.985-.09 1.881.268 2.598.985.717.896 1.344 1.97 1.702 3.046zm21.86-3.404c.268-.359.626-.448 1.253-.538-.358 1.165-.537 2.33-.448 3.494v21.232c0 .985-.09 1.97-.358 2.956-.269.538-.896.807-1.881.807h-.806c.447-.27.895-.628 1.343-.986a3.665 3.665 0 0 0 .359-2.15V41.086c0-.806 0-1.612.09-2.419 0-.448.178-.806.447-1.164zM35.62 62.587c.18.627.359 1.164.807 1.702.268.448.716.896 1.254 1.164h-4.569c.538-.358 1.075-.806 1.613-1.254.358-.448.716-.985.895-1.612z" fill="#2754F0" fill-rule="evenodd"/></svg>