<svg height="100" width="100" xmlns="http://www.w3.org/2000/svg"><path d="M92.022 55.65c-2.62-.976-5.24-1.947-7.86-2.924-.117-.255-.232-.512-.348-.766-1.091-2.42-2.19-4.836-3.282-7.255.612.134 1.28.093 1.86.33 2.985 2.923 5.931 5.889 8.908 8.821.42.421.841.841 1.267 1.259-.183.178-.363.357-.545.535m-2.581 2.566c-.644.637-1.285 1.275-1.928 1.912a72.698 72.698 0 0 1-.248-.543c-.535-1.186-1.07-2.37-1.608-3.555l-.32-.714c1.705.63 3.408 1.265 5.11 1.9-.336.331-.672.665-1.006 1m-4.91 4.866c-1.08 1.079-2.166 2.152-3.249 3.228-.65.646-1.299 1.294-1.954 1.936-.544-.549-1.098-1.089-1.644-1.636a947.412 947.412 0 0 0-.435-4.07c.71-1.273 1.422-2.542 2.134-3.812l1.477-2.639c.434-.77.864-1.544 1.298-2.315.035-.063.106-.187.14-.25.163.36.328.722.494 1.082.788 1.758 1.588 3.509 2.378 5.266.27.592.538 1.185.805 1.78-.482.475-.96.955-1.444 1.43M76.7 57.376c-.24-2.29-.487-4.58-.73-6.871-.201-1.918-.41-3.833-.61-5.75l-.088-.814c.96.136 1.917.277 2.876.415.936 2.051 1.858 4.11 2.793 6.162.106.23.212.463.321.693-.272.518-.566 1.026-.851 1.537l-1.293 2.31c-.486.868-.975 1.736-1.46 2.604-.259.463-.517.926-.778 1.389-.061-.558-.12-1.116-.18-1.675m-2.083 6.202c-1.717-1.724-3.452-3.432-5.179-5.146.098-.928.206-1.854.308-2.781.12-1.06.237-2.121.357-3.18l.43-3.844c.126-1.123.25-2.248.377-3.371.071-.64.142-1.28.215-1.919.692.1 1.385.2 2.077.304l.6 5.65c.253 2.351.498 4.703.752 7.054a7798.307 7798.307 0 0 0 .85 8.002c-.262-.258-.52-.519-.787-.769m-7.89-20.747l-.374.187c-3.625-2.15-7.25-4.303-10.872-6.457l.434-.427c.7-.693 1.392-1.394 2.092-2.087 3.356 1.178 6.712 2.352 10.066 3.536.273 1.146.551 2.291.83 3.435.05.215.102.43.154.646-.777.388-1.552.781-2.33 1.167m2.271 1.283c-.126 1.146-.258 2.293-.384 3.44l-.427 3.815-.36 3.226L67.6 56.6c-.751-.726-1.48-1.476-2.23-2.2-.377-.38-1.045-.371-1.416.011-.892.874-1.772 1.757-2.66 2.634-.713.71-1.427 1.417-2.141 2.125a426.65 426.65 0 0 1-1.93 1.91c-.361-.982-.686-1.98-1.067-2.956a9.113 9.113 0 0 1-.013-.183c.815-1.417 1.691-2.8 2.53-4.202.615-1.013 1.227-2.026 1.843-3.038.681-1.124 1.366-2.246 2.042-3.373.193-.399.657-.501 1.014-.701 1.743-.86 3.48-1.733 5.222-2.597l.214-.106c-.002.048-.01.142-.012.189M53.72 64.562c-1.235 1.231-2.477 2.455-3.712 3.687-.75-.745-1.51-1.481-2.248-2.238-.064-1.677-.126-3.354-.204-5.03-.046-1.52-.118-3.038-.175-4.557l-.014-.363c2.431 1.506 4.855 3.025 7.29 4.525.505.243.496.885.713 1.336.083.247.173.493.261.74-.633.637-1.274 1.266-1.911 1.9m-13.344-5.867c.094-.557.19-1.113.287-1.669.202-1.16.401-2.322.602-3.482.066-.384.133-.767.201-1.15 1.257.796 2.546 1.55 3.784 2.373.105.36.05.755.083 1.13.046 1.201.099 2.405.142 3.609.064 1.474.12 2.949.177 4.422-1.76-1.744-3.516-3.49-5.276-5.233m-.721-5.865c-.189 1.1-.382 2.2-.571 3.302l-.141.819c-.878-.817-1.753-1.636-2.627-2.454-.452-.451-1.29-.543-1.74-.043-1.337 1.321-2.67 2.646-4.003 3.969-.748.744-1.498 1.486-2.247 2.23-1.282 1.274-2.567 2.545-3.85 3.82l-.276.271c.065-.94.129-1.881.195-2.82.048-.664.089-1.328.141-1.99.266-.29.53-.582.795-.873.724-.794 1.446-1.59 2.17-2.385.745-.818 1.488-1.64 2.233-2.458.865-.949 1.727-1.9 2.591-2.849 1.306-1.434 2.608-2.871 3.914-4.305.375-.412.748-.824 1.124-1.235 1.096.407 2.194.812 3.292 1.22-.177 1.02-.355 2.04-.53 3.06-.155.906-.315 1.814-.47 2.72M22.95 43.06c-1.569.443-3.135.89-4.704 1.33.505-.494 1.002-.995 1.506-1.49.727-.724 1.456-1.445 2.183-2.168l2.217-2.2 3.024-3c.804-.797 1.606-1.596 2.412-2.392-.005 1.872-.023 3.745-.025 5.617-.01.81-.007 1.62-.014 2.43-.852.245-1.707.482-2.56.728-1.346.382-2.694.761-4.04 1.145m.145 8.312c-.063.898-.126 1.797-.187 2.695l-.027.38c-3.293-1.614-6.584-3.232-9.875-4.848.255-.26.51-.516.77-.771.44-.428.868-.868 1.306-1.298.264-.298.679-.33 1.036-.443 2.474-.695 4.944-1.403 7.419-2.1-.145 2.128-.298 4.256-.442 6.385m-.419 6.061c-.076 1.126-.157 2.252-.233 3.376l-.039.555c-3.32-.607-6.64-1.224-9.962-1.826-.294-.065-.645-.056-.855-.312-1.377-1.374-2.76-2.743-4.14-4.114.359-.364.726-.72 1.089-1.082.988-.98 1.974-1.962 2.964-2.941 3.728 1.873 7.491 3.682 11.232 5.53l-.056.814m-.643 9.286c-.005.049-.018.146-.024.195-.433.453-.889.883-1.327 1.33-1.217-1.195-2.416-2.409-3.639-3.6-.9-.916-1.822-1.813-2.731-2.72 2.651.486 5.303.97 7.953 1.459-.08 1.112-.154 2.224-.232 3.336m8.549-16.435c-.891.977-1.78 1.955-2.668 2.933-.738.814-1.48 1.625-2.218 2.44-.31.342-.622.685-.936 1.026.033-.507.069-1.013.104-1.519.064-.902.124-1.805.188-2.708.182-2.634.366-5.267.543-7.9l.04-.16c.349-.111.703-.202 1.054-.3 1.3 2.062 2.58 4.135 3.893 6.188m-.022-7.232c1.612.63 3.207 1.31 4.812 1.96l-1.074 1.182c-.768.847-1.538 1.693-2.31 2.539a3014.045 3014.045 0 0 1-3.272-5.215l.525-.147c.44-.096.867-.32 1.319-.32m1.026-4.059c0-.388.005-.775.01-1.161 2.649.211 5.297.431 7.946.64 1.096.096 2.193.177 3.29.272.232.655.47 1.31.708 1.963.754 2.147 1.579 4.272 2.293 6.432-4.744-1.97-9.503-3.902-14.252-5.858-.006-.763.004-1.526.005-2.288m.043-7.721c-.007-.262.264-.398.412-.576.719-.694 1.419-1.408 2.132-2.108.39-.387.778-.777 1.172-1.16 1.608 1.583 3.201 3.181 4.81 4.766.203.208.452.397.555.68.455 1.241.885 2.492 1.356 3.727l-.085.039c-2.068-.128-4.131-.335-6.199-.484-1.393-.122-2.789-.226-4.182-.344.02-1.513.004-3.027.03-4.54m22.256 26.465c-4.018-2.491-8.03-4.993-12.048-7.485.14-.804.277-1.61.418-2.413 3.17 1.3 6.339 2.6 9.507 3.903.66 1.858 1.316 3.719 1.977 5.577l.146.418m2.407-9.783c.234-1.749.478-3.496.716-5.245.125-.898.246-1.796.37-2.693a4703.3 4703.3 0 0 1 6.821 4.051c-.891.447-1.786.89-2.679 1.334-1.726.863-3.456 1.719-5.182 2.58l-.046-.027m2.134 1.239c.306-.151.61-.305.915-.456-.198.33-.397.656-.594.984-.6.988-1.2 1.976-1.798 2.964-.568.936-1.135 1.873-1.705 2.808-.448-1.244-.881-2.493-1.33-3.736l-.085-.262c1.52-.793 3.066-1.532 4.597-2.302m-9.175-7.97c.365.409 1.057.447 1.449.055.923-.896 1.826-1.815 2.745-2.716l.555-.552c.496.29.99.586 1.484.88-.126.943-.258 1.884-.385 2.826-.235 1.708-.471 3.415-.705 5.123-.101.751-.21 1.502-.306 2.253-.516.27-1.04.525-1.562.782-1.376-.559-2.747-1.132-4.125-1.687-.763-2.066-1.498-4.143-2.253-6.212-.502-1.402-1.01-2.803-1.516-4.204-.21-.584-.422-1.166-.63-1.75 1.755 1.728 3.496 3.472 5.249 5.203M62.2 29.87c.82-.818 1.644-1.633 2.466-2.45.363.375.746.73 1.11 1.107.123.115.166.282.209.44.467 1.975.953 3.946 1.43 5.918.02.089.063.264.085.353-2.638-.925-5.273-1.853-7.907-2.782.87-.862 1.735-1.726 2.606-2.586m11.33 6.353c1.826 1.805 3.639 3.625 5.473 5.423.308.315.617.63.935.936-2.96-.426-5.92-.86-8.879-1.288-.417-1.703-.828-3.407-1.243-5.11-.385-1.601-.778-3.201-1.163-4.803 1.627 1.613 3.252 3.229 4.877 4.842M94.8 54.508c-.376-.435-.816-.81-1.212-1.227-2.838-2.796-5.64-5.633-8.496-8.404-.759-.819-1.58-1.575-2.36-2.371-1.362-1.337-2.697-2.702-4.071-4.023-4.382-4.39-8.804-8.742-13.2-13.12-.357-.429-1.067-.496-1.474-.104-1.191 1.158-2.359 2.34-3.543 3.506-2.115 2.082-4.194 4.204-6.337 6.256 0 0-1.818 1.838-2.498 2.513-.536.53-1.068 1.064-1.606 1.59-1.35-1.326-2.673-2.683-4.04-3.989-3.25-3.28-6.553-6.506-9.82-9.77-.357-.426-1.06-.5-1.473-.11-.747.716-1.47 1.459-2.21 2.183-.721.72-1.448 1.435-2.17 2.154-1.923 1.912-3.85 3.818-5.774 5.73-.738.735-1.481 1.466-2.219 2.203-.816.803-1.624 1.616-2.442 2.419-.647.65-1.303 1.294-1.954 1.942-1.347 1.34-2.7 2.676-4.046 4.016-.701.714-1.448 1.4-2.123 2.13l.022.057-.103.024c-.661.597-1.27 1.252-1.911 1.873-1.009 1-2.017 2.002-3.026 3-.48.496-.989.96-1.46 1.462-.368.384-.326 1.047.064 1.4 1.974 1.959 3.94 3.925 5.925 5.873 2.88 2.877 5.777 5.736 8.664 8.606.374.435 1.109.46 1.5.036.87-.852 1.727-1.72 2.598-2.572.741-.74 1.488-1.478 2.23-2.217 1.29-1.277 2.577-2.556 3.864-3.836.763-.75 1.519-1.508 2.28-2.26.988-.977 1.97-1.959 2.959-2.935 4.627 4.59 9.254 9.183 13.879 13.776.376.432 1.103.486 1.506.063 1.619-1.595 3.228-3.201 4.84-4.804.804-.786 1.595-1.585 2.398-2.372 1.002-1 2.009-1.996 3.014-2.993.708-.704 1.418-1.406 2.124-2.112.53-.513 1.043-1.04 1.571-1.553 1.264 1.232 2.494 2.503 3.77 3.72 3.347 3.367 6.738 6.693 10.101 10.045.387.467 1.165.48 1.562.018 1.006-1.001 2.012-2.001 3.02-3 1.143-1.136 2.29-2.27 3.433-3.408a2534.06 2534.06 0 0 0 4.654-4.62c.853-.838 1.696-1.685 2.547-2.525.395-.412.837-.78 1.183-1.235.087-.346.108-.748-.14-1.035" fill="#2754F0" fill-rule="evenodd"/></svg>