<svg height="100" width="100" xmlns="http://www.w3.org/2000/svg"><path d="M61.352 75.33c-1.437-.01-2.754-.912-3.475-2.122-.358-.565-.516-1.22-.706-1.852-4.66-15.448-9.347-30.89-14.019-46.334 1.772.002 3.541-.005 5.313.003 1.513-.01 3.004 1.007 3.382 2.502 4.816 15.937 9.647 31.87 14.472 47.805-1.656 0-3.312.004-4.967-.002m-10.323.016c-1.63-.04-3.153-1.214-3.6-2.783-4.864-15.848-9.735-31.693-14.597-47.54 1.77-.002 3.539 0 5.309-.002 1.15-.014 2.317.537 2.97 1.496.269.385.389.844.524 1.287 4.868 15.846 9.73 31.695 14.593 47.543-1.732 0-3.466.005-5.199-.001m37.693-35.411a39.835 39.835 0 0 0-5.83-12.7c-4.908 15.873-9.807 31.75-14.716 47.625L64.25 62.17c-.117-.297.08-.59.146-.875 4.208-13.596 8.411-27.194 12.617-40.79a48.151 48.151 0 0 0-1.719-1.484c-4.072 13.113-8.136 26.229-12.216 39.34-1.228-4.248-2.609-8.448-3.903-12.674-.134-.39.092-.769.189-1.138 3.111-9.972 6.242-19.937 9.328-29.917a40.16 40.16 0 0 0-7.985-3.18C54.966 9.85 48.867 9.582 43 10.61c-7.742 1.348-15.04 5.076-20.697 10.527-5.91 5.647-10.024 13.149-11.566 21.18-1.196 6.164-.942 12.612.786 18.652a39.767 39.767 0 0 0 5.867 12.194A85283.42 85283.42 0 0 1 31.593 26.25c1.328 4.32 2.688 8.63 3.996 12.952-.615 2.193-1.315 4.366-1.96 6.55-3.437 11.352-6.865 22.705-10.305 34.055.549.487 1.106.966 1.68 1.427 3.886-12.862 7.78-25.72 11.67-38.581 1.325 4.33 2.705 8.646 3.996 12.983-2.985 9.975-6.042 19.932-9.023 29.909a39.755 39.755 0 0 0 9.724 3.522c9.106 2.018 18.913.744 27.169-3.613 7.55-3.94 13.775-10.356 17.475-18.028 4.128-8.456 5.082-18.391 2.707-27.491" fill="#2754F0" fill-rule="evenodd"/></svg>