<svg height="100" width="100" xmlns="http://www.w3.org/2000/svg"><path d="M50 80.187c-16.672 0-30.187-13.515-30.187-30.187S33.328 19.814 50 19.814c8.374 0 15.95 3.41 21.419 8.916l-4.713 4.578A23.54 23.54 0 0 0 50 26.383c-13.044 0-23.618 10.574-23.618 23.617 0 13.044 10.574 23.618 23.618 23.618 11.949 0 21.825-8.876 23.397-20.394H50v-6.486h30.01c.116 1.072.176 2.16.176 3.262C80.187 66.672 66.672 80.187 50 80.187M50 10c-22.091 0-40 17.909-40 40s17.909 40 40 40 40-17.909 40-40-17.909-40-40-40" fill="#2754F0" fill-rule="evenodd"/></svg>