<svg height="100" width="100" xmlns="http://www.w3.org/2000/svg"><path d="M84.355 53.203c-.017.654.013 1.307-.006 1.961.03.534-.116 1.059-.085 1.595-.545-.002-1.09 0-1.634-.007.007-2.456 0-4.914.005-7.37-1.336-.037-2.67-.009-4.006-.02-.002.457-.002.914-.01 1.372-.562.009-1.124.012-1.686.009-.01-.753-.008-1.507-.006-2.26.259-.259.514-.52.769-.786 1.912-.02 3.828-.039 5.738.006.482.298 1.026.78.921 1.415 0 1.36-.009 2.724 0 4.085zm-2.23 9.81c-3.296.01-6.592.011-9.888.002a73.309 73.309 0 0 1-.005-1.702c2.083-1.357 4.186-2.678 6.286-4.004.502.335.995.686 1.484 1.038-1.511.963-3.022 1.924-4.531 2.883 2.218.023 4.437-.002 6.657.012a98.3 98.3 0 0 1-.002 1.77zm-6.328 5.767c-.605.015-1.207.015-1.81-.01a51.26 51.26 0 0 1-.001-1.716 34.126 34.126 0 0 1 1.81-.006c.003.577.003 1.154 0 1.732zm-4.364 2.857c-.807 1.194-1.581 2.41-2.374 3.612-.954-1.422-1.877-2.86-2.82-4.292-.005-.952-.013-1.903.01-2.853.926 1.387 1.8 2.81 2.748 4.184.267-.113.388-.4.55-.621.73-1.173 1.51-2.31 2.242-3.48.021.867.035 1.738.013 2.608.021.325-.216.578-.369.842zM65.834 58.91c-1.317-.002-2.63 0-3.943-.002.002.476 0 .952-.01 1.427-.564.009-1.128.009-1.69.007-.018-.77-.014-1.54-.012-2.31a39.8 39.8 0 0 1 .88-.81c1.876.014 3.754.001 5.631.006.283.27.566.542.85.81.003 1.858.003 3.715.003 5.572-.573.004-1.145.002-1.715-.015-.002-1.562-.013-3.122.006-4.685zm-5.303 20.044c.441 0 .884.005 1.329.015.004.578.004 1.159-.004 1.738-1.805.026-3.61.019-5.414.004a28.21 28.21 0 0 1-.047-1.64c1.926-1.32 3.936-2.51 5.889-3.79.656-.552 1.252.369 1.813.638l.002.208c-1.466.945-2.966 1.839-4.4 2.833zM57.3 65.98c1.105-.021 2.207-.006 3.31-.013l2.035 7.118c-.57.002-1.14.002-1.708-.013-.485-1.813-1.01-3.615-1.502-5.426-.309-.02-.618-.033-.926-.048-.51 1.83-1.019 3.66-1.526 5.49-.57-.003-1.138-.003-1.706-.01A317.127 317.127 0 0 0 57.3 65.98zm-8.548-2.649c-.085-.556-.085-1.12-.09-1.682 2.09-1.39 4.247-2.681 6.336-4.072.497.343.988.693 1.494 1.022-1.445 1.016-2.98 1.901-4.452 2.88 2.206.04 4.411-.004 6.616.024.015.606.015 1.215-.002 1.822-3.3.019-6.601.006-9.902.006zm5.738 21.628c-.55.002-1.1.002-1.648 0a35.233 35.233 0 0 1-.013-1.773c.577-.004 1.153.005 1.727.043.01.577.007 1.155-.066 1.73zm-4.846-18.63c.616.006 1.231-.031 1.842-.112.722 1.19 1.575 2.37 1.946 3.725-.577.004-1.153.004-1.728.008a287.515 287.515 0 0 0-2.06-3.622zm2.164 13.906a48.4 48.4 0 0 0-.737.786c-.793.017-1.586.02-2.38-.004.01-.536-.058-1.082.07-1.607.448-.047.898-.03 1.35-.035.005-1.326 0-2.65.003-3.975-2.195-.013-4.392.028-6.584-.021-.007-.555-.006-1.11.002-1.664 2.477-.036 4.953-.002 7.43-.019.284.283.567.568.85.855-.01 1.893-.006 3.787-.004 5.684zm-1.234 8.688a54.71 54.71 0 0 1-1.763-.001c.002-1.346-.03-2.694.02-4.04.582.002 1.165.032 1.743.085a372.62 372.62 0 0 1 0 3.956zm-7.344-3.926c-.723-1.206-1.398-2.442-2.1-3.658.66-.006 1.32-.009 1.98.004.61 1.215 1.423 2.334 1.893 3.618-.592.032-1.182.032-1.773.036zm-8.346-6.36c-.01-.583-.009-1.166.002-1.747 2.343-.009 4.687-.022 7.03.006.004.577.004 1.154 0 1.732-2.345.034-4.688.019-7.032.008zm-1.513-2.546c-.583.008-1.164.009-1.743.002a58.794 58.794 0 0 1 .003-1.747 50.761 50.761 0 0 1 1.738.004c.008.579.009 1.159.002 1.74zm-6.413-13.055c-.009-.962-.019-1.927.011-2.887.917 1.402 1.837 2.805 2.743 4.211.973-1.389 1.844-2.847 2.808-4.243.02.945.004 1.892.013 2.837-.96 1.406-1.84 2.868-2.825 4.255-.913-1.393-1.798-2.805-2.75-4.173zm2.347 8.648c-1.534.075-3.075.039-4.61.01a92.218 92.218 0 0 1-.002-1.714c1.545-.051 3.093-.026 4.64-.015.009.572.045 1.148-.028 1.72zm-5.962-8.229c-.538.003-1.078.005-1.615.005-1.926-.02-3.855.032-5.782-.024-.321-.182-.645-.482-.79-.822-.051-1.895-.007-3.792-.017-5.687l.833-.812a85.104 85.104 0 0 1 2.21.009c.009.557.009 1.116.005 1.673-.459.011-.915.013-1.374.017.01 1.33-.006 2.658.01 3.987 2.172.006 4.343-.015 6.514.01.01.55.01 1.096.006 1.644zm-3.9-14.082a70.71 70.71 0 0 1 0 1.661c-.588.007-1.175.009-1.763-.002a38.02 38.02 0 0 1 .015-1.706c.583-.008 1.166.009 1.747.047zm-4.307-10.017c2.933-.017 5.87-.024 8.807.004.006.555.006 1.112.008 1.67-1.311.859-2.623 1.723-3.97 2.52-.57-.208-1.002-.68-1.488-1.027.726-.458 1.463-.902 2.167-1.393-1.84-.008-3.682.01-5.525-.01a58.099 58.099 0 0 1 .001-1.764zm9.912 14.006h-1.785c.009-1.865.003-3.732.007-5.597h1.776c.005 1.867 0 3.732.002 5.597zm-5.203-20.224c2.546-.014 5.095-.02 7.64.003.015.585.015 1.167.003 1.753-2.55.023-5.097.017-7.645.002a55.049 55.049 0 0 1 .002-1.758zm8.841.003c.579-.005 1.157-.007 1.738-.003a40.67 40.67 0 0 1 0 1.764c-.58.007-1.16.004-1.738-.002a75.883 75.883 0 0 1 0-1.76zm2.342-7.084a58.836 58.836 0 0 1-.006-1.745c.473-.008.947-.006 1.42-.002 1.265-.085 2.527-.06 3.792.013.004.549.002 1.1-.004 1.648-1.87 1.123-3.667 2.368-5.564 3.443-.56-.213-.986-.66-1.442-1.034 1.24-.756 2.456-1.553 3.71-2.289-.635-.032-1.271-.028-1.906-.034zM36.8 37.301c-.577.005-1.153.007-1.727.002-.006-1.362-.024-2.727.012-4.091a91.307 91.307 0 0 1 1.706.004c.017 1.36.009 2.724.009 4.085zm.656-10.631c.93 1.41 1.832 2.84 2.775 4.241.94-1.418 1.85-2.859 2.8-4.27 0 .934.061 1.879-.02 2.813-.862 1.477-1.858 2.872-2.786 4.308-.913-1.412-1.88-2.795-2.746-4.235-.098-.948-.028-1.906-.023-2.857zM41.4 16.657a28.917 28.917 0 0 1 1.822-.008c.008 2.56.019 5.12-.006 7.679-.58.012-1.158.012-1.735.008-.192-2.55-.038-5.12-.08-7.679zm3 17.624c.015.438.013.875.007 1.312 1.33.15 2.672.042 4.01.075.007-2.183-.015-4.369.013-6.548a55.91 55.91 0 0 1 1.689-.005c.028 2.478-.002 4.958.015 7.438-.262.249-.52.501-.776.754-1.935.022-3.87.002-5.804.01-.255-.243-.516-.477-.746-.74-.098-.76-.026-1.533-.028-2.296.54-.004 1.08-.004 1.62 0zm1.473-19.883c.3-.34.604-.87 1.132-.8 1.794.011 3.592-.027 5.386.02.31.193.548.482.814.73a790.995 790.995 0 0 0 0 5.556c-.534.006-1.07.03-1.603-.006a49.052 49.052 0 0 1-.128-.519c0-1.382.12-2.767.005-4.147-1.319.002-2.636.002-3.953 0-.006.465-.009.932-.013 1.397-.555 0-1.112 0-1.67-.004.005-.74-.077-1.492.03-2.227zm5.48 26.679c.003.57.002 1.138-.002 1.706-.608.017-1.219.017-1.827.006a89.332 89.332 0 0 1 0-1.72 32.86 32.86 0 0 1 1.83.008zM47.728 26.71c-.58.017-1.161.018-1.742.002a39.525 39.525 0 0 1-.002-1.75 31.759 31.759 0 0 1 1.742 0c.015.584.015 1.165.002 1.748zm-.692-6.43c.652-.015 1.303-.013 1.955-.013.624 1.213 1.406 2.345 1.913 3.616-.598.028-1.198.028-1.796.03a143.32 143.32 0 0 1-2.072-3.633zm-.75 34.96c-.009-1.44-.011-2.88.003-4.319a47.37 47.37 0 0 1 1.768-.004c.008 1.443.006 2.885.002 4.327-.592.01-1.181.01-1.772-.004zm-1.091 9.373a80.746 80.746 0 0 1 1.757-.002c.015 2.179 0 4.359.009 6.538a24.86 24.86 0 0 0-1.248.075 32.878 32.878 0 0 0-.531-.096c.013-2.171-.01-4.344.013-6.515zm-4.942-21.805c-.005-.586-.006-1.17-.005-1.751 2.54.01 5.08-.013 7.617.01a7.24 7.24 0 0 1-.023 1.736c-2.531.011-5.06.002-7.59.005zm-1.485 19.183c.013.585.012 1.17-.002 1.755-.58.005-1.16.007-1.742 0-.022-.6-.024-1.2.01-1.798a18.893 18.893 0 0 1 1.734.043zm-2.551-15.178a22.392 22.392 0 0 1-.004-1.783c1.432-.002 2.861 0 4.292-.002.013.595.013 1.19-.002 1.785-1.43.002-2.858.002-4.286 0zm-3.556 8.701a13.63 13.63 0 0 1 1.564.071c.009.59.007 1.181.003 1.77-2.55-.004-5.095.013-7.64-.008a51.74 51.74 0 0 1-.011-1.723c2.018-.219 4.057-.045 6.084-.11zm.453-9.957c.664 2.372 1.378 4.732 2.006 7.115-.553 0-1.105 0-1.655.005-.563-1.83-.999-3.695-1.58-5.517-.312.02-.625.043-.938.066-.416 1.835-1.01 3.622-1.464 5.449-.568-.003-1.136-.003-1.7-.007.676-2.372 1.348-4.747 2.04-7.115 1.098-.007 2.193-.013 3.29.004zm1.397-2.051c-.958.017-1.916.006-2.874.008-1.382-.938-2.818-1.803-4.18-2.773 1.374-1.003 2.84-1.875 4.25-2.822.933.01 1.863-.002 2.796.013-1.385.99-2.857 1.845-4.25 2.822 1.431.9 2.835 1.843 4.258 2.752zM32.28 69.91c2.102-1.35 4.2-2.709 6.332-4.014.491.345.986.68 1.473 1.033-1.526.95-3.022 1.949-4.563 2.872 2.233.043 4.468-.006 6.704.026.01.587.013 1.174-.004 1.762-3.312.01-6.623.026-9.934-.007a40.611 40.611 0 0 1-.008-1.672zm12.515-11.004c-.202.002-.403.004-.603.009-1.25-1.985-2.554-3.936-3.75-5.95-.217 2.19-.039 4.4-.11 6.599-.588.005-1.175.005-1.76-.01-.015-3.3-.015-6.6-.002-9.902a47.286 47.286 0 0 1 1.736.004c1.36 2.193 2.763 4.362 4.152 6.539.6.773.24 1.81.337 2.711zm9.127-12.354c-.005 1.65-.005 3.301-.003 4.955-.287.31-.576.617-.865.925-.744 0-1.486.002-2.229-.008a82.496 82.496 0 0 1-.002-1.698c.465-.006.93-.01 1.395-.017.002-1.298-.002-2.6.004-3.898-2.182-.195-4.38-.033-6.568-.09a83.653 83.653 0 0 1 0-1.691c2.246-.002 4.492.002 6.738-.004.816-.128 1.633.72 1.53 1.526zm1.604 9.582c-.567.008-1.134.008-1.7 0a103.02 103.02 0 0 1 0-1.758c.565-.002 1.133-.004 1.7.002a73.42 73.42 0 0 1 0 1.756zm.004-14.65c-.57.005-1.138.007-1.708.007.001-1.866-.003-3.735.004-5.603a97.286 97.286 0 0 1 1.7.003c.012 1.864.004 3.729.004 5.594zm-1.842-19.071a44.97 44.97 0 0 1 1.694-.002c1.534 2.38 3.026 4.788 4.57 7.162-.001.723.003 1.445-.012 2.168a70.16 70.16 0 0 0-.662-.116c-1.312-1.955-2.518-3.98-3.815-5.943-.021 2.21.006 4.42-.015 6.63-.587.01-1.176.01-1.766 0-.006-3.298-.017-6.599.006-9.9zm3.141-3.005a244.23 244.23 0 0 1 4.842-.004c.008.591.008 1.18.002 1.772-1.615.017-3.23.023-4.845-.004a78.7 78.7 0 0 1 .001-1.764zm5.666 6.048c-.6.015-1.202.015-1.8.005-.005-.569-.005-1.138-.003-1.709.6-.013 1.203-.013 1.803.004.004.566.004 1.134 0 1.7zm.718 1.45c2.792-.012 5.585-.011 8.377.003.003.566.003 1.134-.002 1.7-2.79.006-5.582.007-8.375.002-.002-.568-.005-1.138 0-1.704zm4.432 16.088c.006.578.005 1.157-.002 1.736a27.55 27.55 0 0 1-1.818.002 79.191 79.191 0 0 1 0-1.74 24.737 24.737 0 0 1 1.82.002zm-5.05 9.933c1.797-.023 3.593-.01 5.391-.006.073.525.118 1.059.066 1.59-.17.346-.576.208-.88.24-1.53-.044-3.066.089-4.585-.084-.01-.582-.01-1.16.009-1.74zm-2.789-16.523a42.243 42.243 0 0 1 1.721.006c.002.583.004 1.166-.004 1.749-.571.002-1.146 0-1.719-.002a70.921 70.921 0 0 1 .002-1.753zm-1.45 13.228c-.314-.411-.919-.723-.842-1.32a380.21 380.21 0 0 1-.002-4.789c-.08-.602.538-.91.855-1.324.746.002 1.492-.004 2.238.01.017.562.017 1.124.008 1.687-.471.009-.945.009-1.416.015v4c2.192.015 4.385-.009 6.577.012a45.3 45.3 0 0 1-.008 1.7c-2.47.017-4.94.003-7.41.009zm.352 3.219c.01.587.01 1.174 0 1.761-.579.002-1.157.002-1.734-.002a79.354 79.354 0 0 1 0-1.76 94.334 94.334 0 0 1 1.734 0zm12.05-13.528c-.54-1.824-1-3.67-1.558-5.49-.31.005-.621.01-.932.011-.463 1.837-1.02 3.646-1.498 5.476-.57.002-1.14.002-1.71-.002.701-2.35 1.359-4.717 2.03-7.076 1.105-.011 2.216-.183 3.315-.005.72 2.347 1.338 4.73 2.053 7.081-.565.005-1.134.005-1.7.005zm.837 19.987c-.585.01-1.17.01-1.753-.002-.02-2.044-.02-4.088 0-6.132.579-.008 1.164-.047 1.74.043.056 2.027.024 4.061.013 6.09zm7.669-16.331a98.3 98.3 0 0 1-.003 1.77c-2.552 0-5.105.021-7.657-.01a65.215 65.215 0 0 1-.003-1.747c2.555-.035 5.108-.011 7.663-.013zm-2.073-2.107c-.585.013-1.172.01-1.758-.002a42.623 42.623 0 0 1-.002-1.755 40.666 40.666 0 0 1 1.764-.002c.015.587.013 1.172-.004 1.76zM75.428 30.83c.585-.013 1.17-.015 1.758 0 .019 1.87.018 3.742-.003 5.615-.585.01-1.17.008-1.755-.002-.017-1.87-.017-3.741 0-5.613zm4.166 3.606c.654-.013 1.31-.01 1.964-.013.647 1.2 1.434 2.337 1.916 3.62-.596.021-1.194.023-1.79.026-.705-1.207-1.376-2.434-2.09-3.633zm7.529 29.902c.002-9.561.002-19.122 0-28.683.038-.977-.453-1.95-1.237-2.527L51.706 8.15a3.063 3.063 0 0 0-2.465-.595c-.53.104-1.01.369-1.435.69L13.868 33.046a3.176 3.176 0 0 0-1.363 2.624c-.007 9.558-.007 19.116 0 28.674-.015 1.035.523 2.04 1.374 2.623C25.19 75.232 36.5 83.498 47.808 91.765c1.082.925 2.78.999 3.896.096a50684.53 50684.53 0 0 0 34.058-24.889c.855-.576 1.408-1.598 1.36-2.635z" fill="#2754F0" fill-rule="evenodd"/></svg>