<svg xmlns="http://www.w3.org/2000/svg" xmlns:xlink="http://www.w3.org/1999/xlink" width="100" height="100"><defs><path id="a" d="M0 0h82.011v82H0z"/></defs><g fill="none" fill-rule="evenodd" transform="translate(9 9)"><path fill="#2754F0" d="M29.861 61.877l1.06 2.146 2.368.345-1.714 1.67.404 2.359-2.118-1.114-2.118 1.114.404-2.359-1.714-1.67 2.368-.345zm22.332 0l1.06 2.146 2.368.345-1.714 1.67.404 2.359-2.118-1.114-2.118 1.114.404-2.359-1.714-1.67 2.368-.345zM41.027 59.51l1.06 2.146 2.368.344-1.714 1.671.404 2.359-2.118-1.114-2.118 1.114.404-2.359L37.599 62l2.368-.344z"/><mask id="b" fill="#fff"><use xlink:href="#a"/></mask><path fill="#2754F0" d="M54.764 33.778c.18-.28.29-.637.296-1.118.008-.542-.092-1.057-.152-1.583l8.648 2.688 4.577-3.893-4.42-3.577-9.14 2.942c-.537-1.974-1.539-3.757-2.888-5.28l7.688-3.975.527-5.735-5.576.527-4.05 7.783a14.475 14.475 0 0 0-8.3-3.417l2.617-8.207L40.91 6.41l-3.526 4.524 2.611 8.194c-3.142.21-6.068 1.452-8.388 3.4l-3.85-7.648-5.68-.579.525 5.682 7.55 3.953a13.242 13.242 0 0 0-2.849 4.984L19.05 26.4l-4.367 3.524 4.314 3.683 7.83-2.23c-.045.48-.138.95-.123 1.441.017.535.25.857.577 1.098-9.318 1.794-17.768 5.173-24.1 9.246a43.179 43.179 0 0 1-.06-2.168C3.12 20.105 20.104 3.12 40.992 3.12c20.89 0 37.875 16.985 37.875 37.874.012.614 0 1.217-.037 1.83-6.196-4.147-14.72-7.379-24.067-9.046M76.988 52.85c-9.953-6.096-22.414-9.887-35.654-9.887-13.422 0-26.08 3.862-36.108 10.108a37.43 37.43 0 0 1-1.335-4.988c10.33-6.61 23.493-10.67 37.443-10.67 13.726 0 26.702 3.942 36.955 10.361a37.64 37.64 0 0 1-1.3 5.076m-3.725 7.921c-9.29-4.92-20.488-8.819-31.94-8.819-11.762 0-22.882 4.05-32.318 9.047-1.015-1.618-1.934-3.303-2.7-5.073 11.75-6.957 23.588-10.018 35.017-10.018 11.512 0 24.795 3.766 34.674 9.645-.766 1.823-1.703 3.552-2.733 5.218M51.776 74.812c-.905-.374-1.53-1.145-1.53-2.048v-.012c0-.555.542-1.012 1.192-1.012.65 0 1.192.446 1.192 1.012 0-1.024-.903-1.855-2.01-1.855-1.109 0-2.013.831-2.013 1.867h-.012c0 .964-.723 1.795-1.734 2.132h-.578c-1.025-.325-1.759-1.156-1.759-2.132v-.012c0-.555.542-1.012 1.192-1.012.651 0 1.193.446 1.193 1.012 0-1.024-.905-1.855-2.012-1.855-1.108 0-2.012.831-2.012 1.867h-.012c0 .964-.723 1.795-1.735 2.132h-.578c-1.024-.325-1.759-1.156-1.759-2.132v-.012c0-.555.542-1.012 1.192-1.012.652 0 1.194.446 1.194 1.012 0-1.024-.904-1.855-2.013-1.855-1.107 0-2.01.831-2.01 1.867h-.013c0 .964-.723 1.795-1.735 2.132h-.578c-1.023-.325-1.759-1.156-1.759-2.132v-.012c0-.555.542-1.012 1.193-1.012.65 0 1.192.446 1.192 1.012 0-1.024-.903-1.855-2.012-1.855-1.108 0-2.01.831-2.01 1.867h-.013c0 .747-.435 1.41-1.096 1.831-3.866-1.223-9.468-4.774-10.337-10.534 5.051-4.814 12.705-7.813 21.227-7.668 7.082 0 13.811 1.75 21.387 7.746-2.289 6.313-6.077 9.233-10.834 10.673M41.006 0C18.396 0 0 18.395 0 40.994 0 63.594 18.395 82 41.006 82s41.005-18.395 41.005-41.006C82.011 18.382 63.617 0 41.006 0" mask="url(#b)"/></g></svg>