<svg height="100" width="100" xmlns="http://www.w3.org/2000/svg"><path d="M78.576 44.319c-3.401 0-6.158-2.752-6.158-6.146a6.152 6.152 0 0 1 6.158-6.148h6.53C78.522 18.961 64.988 10 49.362 10c-19.493 0-35.73 13.943-39.28 32.4L31.36 56.615h10.429c3.4 0 6.157 2.752 6.157 6.146a6.153 6.153 0 0 1-6.157 6.149H29.47a6.133 6.133 0 0 1-2.837-.691L10 57.149C13.37 75.83 29.712 90 49.363 90c15.25 0 28.508-8.536 35.256-21.09h-6.043a6.13 6.13 0 0 1-2.838-.691l-35.915-23.9H29.472c-3.401 0-6.158-2.752-6.158-6.146a6.153 6.153 0 0 1 6.158-6.148h12.316c1.327 0 2.558.42 3.564 1.133l35.11 23.457h8.356a40.34 40.34 0 0 0 .144-12.296z" fill="#2754F0" fill-rule="evenodd"/></svg>