<svg height="100" width="100" xmlns="http://www.w3.org/2000/svg"><path d="M29.197 84.147v-.002c-7.387 0-13.374-6.045-13.374-13.502 0-7.454 5.987-13.499 13.374-13.499s13.375 6.045 13.375 13.5c-.008 7.454-5.99 13.493-13.375 13.503m0-32.858c10.591 0 19.178 8.666 19.178 19.354C48.375 81.334 39.788 90 29.197 90 18.606 90 10.02 81.334 10.02 70.643c0-10.688 8.586-19.354 19.177-19.354zM70.158 10c10.591 0 19.178 8.666 19.178 19.357 0 7.827-4.674 14.884-11.84 17.881a19.048 19.048 0 0 1-20.9-4.196c-5.484-5.534-7.123-13.86-4.155-21.093S62.402 10 70.158 10zm0 32.856c7.382-.01 13.365-6.05 13.375-13.5 0-7.456-5.988-13.5-13.375-13.5s-13.375 6.044-13.375 13.5c0 7.455 5.988 13.5 13.375 13.5zM48.373 15.852h-5.44c6.373 6.601 7.254 16.822 2.105 24.433-5.149 7.611-14.897 10.507-23.31 6.922S8.572 34.554 10.385 25.52c1.813-9.031 9.683-15.523 18.814-15.519h19.175zm-19.175 27c7.388 0 13.377-6.042 13.377-13.496-.007-7.452-5.99-13.494-13.374-13.504-7.388 0-13.375 6.044-13.375 13.499-.002 7.454 5.985 13.499 13.372 13.501z" fill="#2754F0" fill-rule="evenodd"/></svg>