<svg height="100" width="100" xmlns="http://www.w3.org/2000/svg"><path d="M78.75 51.521c-.232.477-.933 1.268-.933 1.268L67.96 63.312 55.24 50.017l12.523-13.488s7.215 7.344 10.52 11.29c.28.347.61.673.752 1.105.304.854.112 1.807-.287 2.597zM32.13 63.448s-7.778-8.162-11.52-12.378c-.58-.675-.385-1.738.156-2.375 2.277-2.548 11.387-12.153 11.387-12.153l12.69 13.243zm57.543-14.52c-.183-.408-.48-.75-.782-1.074C81.975 40.162 67.9 25 67.9 25L50.02 44.218 31.907 25.182s-14.24 15.292-21.214 23.071c-.908.88-.908 2.464-.094 3.403 3.625 4.059 21.434 23.358 21.434 23.358l17.964-19.348 17.836 19.366 21.518-23.394s.454-.463.55-.775c.212-.641.06-1.344-.228-1.935z" fill="#2754F0" fill-rule="evenodd"/></svg>