<svg height="100" width="100" xmlns="http://www.w3.org/2000/svg"><path d="M50 10c22.091 0 40 17.93 40 40.049 0 21.187-16.437 38.52-37.238 39.943v-15.29h5.101c6.328 0 11.476-5.156 11.476-11.491V46.187c0-6.335-5.148-11.49-11.476-11.49H43.41v54.85C24.456 86.402 10 69.92 10 50.05 10 27.931 27.908 10 50 10zm9.988 53.21a2.129 2.129 0 0 1-2.125 2.129h-5.1v-21.28h5.1a2.13 2.13 0 0 1 2.125 2.129zM48.086 30.442c3.992 0 7.227-3.238 7.227-7.234s-3.235-7.236-7.227-7.236c-3.99 0-7.225 3.24-7.225 7.236s3.235 7.234 7.225 7.234zm-8.076 44.26V35.123h-.85c-4.694 0-8.5 3.81-8.5 8.512V74.7z" fill="#2754F0" fill-rule="evenodd"/></svg>