<svg height="100" width="100" xmlns="http://www.w3.org/2000/svg"><path d="M75.735 39.019c4.911.124 7.213 2.382 7.342 7.204.089 3.325.045 6.65.005 9.974-.054 4.2-2.312 6.502-6.41 6.684-4.217.191-8.453.036-12.68.036h-.008.009c-4.071 1.066-5.876 3.684-5.689 7.897.147 3.28.049 6.578.022 9.867-.022 3.084-.902 6.426-4.293 6.51-5.044.125-10.04-.048-15.689-.101-3.262-.031-3.889-3.511-3.902-6.427-.022-3.627.125-7.262-.067-10.88-.23-4.39-2.493-6.586-6.897-6.769-3.622-.146-7.254.023-10.88-.062-2.867-.071-6.365-.729-6.4-4-.049-4.289-.369-12.017-.076-15.653.28-3.44 3.538-4.236 6.6-4.284 3.316-.054 6.636-.112 9.947.008 3.795.143 6.39-1.324 7.573-5.022.067-4.23.076-8.462.218-12.684.16-4.724 2.315-6.893 6.978-7.031 3.173-.098 6.35-.08 9.52-.009 5.062.116 7.275 2.427 7.364 7.64.053 3.173-.031 6.351.022 9.524.084 5.183 2.311 7.45 7.418 7.547 3.324.062 6.649-.053 9.973.031zm14.224-25.037c.804 12.684-10.293 21.044-22.276 16.809-1.68-.596-1.915-1.503-1.982-2.982-.382-8.36 7.818-14.551 12.587-15.543 3.058-.635 5.222-.857 9.289-.733 1.693.053 2.27.72 2.382 2.449z" fill="#2754F0" fill-rule="evenodd"/></svg>