<svg height="100" width="100" xmlns="http://www.w3.org/2000/svg"><path d="M93.36 78.6a4.598 4.598 0 0 0-2.95 1.087l-8.193-7.024 6.291-19.385c.072.004.139.021.212.021a3.198 3.198 0 0 0 3.195-3.199 3.197 3.197 0 0 0-3.195-3.198c-.073 0-.141.016-.213.022l-5.494-16.928a3.19 3.19 0 0 0 1.499-2.701c0-1.767-1.43-3.2-3.196-3.2-.781 0-1.488.293-2.043.76l-14.49-10.476c.145-.366.23-.762.23-1.18A3.197 3.197 0 0 0 61.818 10a3.19 3.19 0 0 0-3.088 2.42H41.185A3.19 3.19 0 0 0 38.096 10a3.198 3.198 0 0 0-3.195 3.2c0 .417.085.814.232 1.18L20.642 24.855a3.165 3.165 0 0 0-2.044-.76 3.198 3.198 0 0 0-3.196 3.2c0 1.14.602 2.134 1.5 2.701l-5.469 16.847c-.08-.005-.157-.024-.238-.024A3.196 3.196 0 0 0 8 50.018a3.197 3.197 0 0 0 3.195 3.198c.064 0 .122-.015.185-.019l5.522 17.01a3.19 3.19 0 0 0-1.5 2.703 3.198 3.198 0 0 0 3.196 3.198c.763 0 1.455-.28 2.005-.727l14.526 10.45a3.195 3.195 0 0 0-.228 1.174 3.197 3.197 0 0 0 3.195 3.198 3.19 3.19 0 0 0 3.089-2.418H58.73a3.19 3.19 0 0 0 3.088 2.418 3.197 3.197 0 0 0 3.195-3.198c0-.415-.084-.807-.227-1.17l16.484-11.93 8.122 6.964a4.6 4.6 0 0 0-.672 2.376 4.642 4.642 0 0 0 4.64 4.644c2.562 0 4.64-2.08 4.64-4.644a4.643 4.643 0 0 0-4.64-4.645zM81.833 31.41l5.19 15.989a3.186 3.186 0 0 0-1.392 1.923l-1.908.001h-.757a3.19 3.19 0 0 0-2.135-2.334zm-1.491-1.085l-1.065 16.552c-.075.014-.147.035-.222.055L72.45 34.44a3.182 3.182 0 0 0 1.056-2.361c0-.181-.025-.356-.054-.53l.859-.37 4.482-1.943c.391.507.925.887 1.548 1.088zM62.43 46.967a3.136 3.136 0 0 0-.612-.063c-.303 0-.59.056-.867.135L52.145 31.77c.323-.304.584-.67.758-1.084l14.252 1.769a3.17 3.17 0 0 0 1.13 2.079zm7.276-11.75c.196.037.398.061.606.061.264 0 .518-.04.764-.102l6.611 12.5a3.183 3.183 0 0 0-.95 1.647h-11.83a3.177 3.177 0 0 0-.998-1.62zM59.594 47.812a3.198 3.198 0 0 0-.864 1.51H41.184a3.177 3.177 0 0 0-.866-1.512l8.815-15.283c.264.072.537.121.824.121s.56-.05.825-.12zm-20.637-.775a3.177 3.177 0 0 0-.86-.133c-.212 0-.417.024-.615.063l-5.85-12.427a3.179 3.179 0 0 0 1.137-2.081l14.22-1.84c.17.43.426.812.75 1.127zm-2.88.606a3.173 3.173 0 0 0-1.068 1.68h-11.74a3.18 3.18 0 0 0-.966-1.595l6.565-12.546c.24.058.486.096.744.096.21 0 .415-.023.615-.061zm-12.808 3.24h11.739c.168.67.55 1.252 1.07 1.68l-5.859 12.441a3.232 3.232 0 0 0-.607-.061c-.26 0-.508.039-.75.097l-6.56-12.56c.467-.419.81-.968.967-1.597zm14.214 2.356c.199.04.403.062.613.062.303 0 .59-.055.868-.134l8.771 15.208a3.186 3.186 0 0 0-.75 1.138l-14.218-1.764a3.17 3.17 0 0 0-1.142-2.072zm2.839-.846c.417-.407.716-.928.863-1.51H58.73a3.19 3.19 0 0 0 .863 1.51l-8.769 15.21c-.277-.08-.564-.135-.867-.135s-.59.056-.867.135zm20.628.774c.278.079.565.134.868.134.21 0 .415-.022.613-.062l5.86 12.443a3.174 3.174 0 0 0-1.135 2.065L52.93 69.513a3.177 3.177 0 0 0-.751-1.138zm2.888-.604c.52-.428.9-1.01 1.069-1.68h11.882c.17.6.505 1.125.96 1.527l-6.68 12.634a3.168 3.168 0 0 0-.757-.101c-.211 0-.416.024-.615.062zm.025-36.925l14.49 10.475a3.178 3.178 0 0 0-.231 1.182c0 .175.024.343.05.511l-5.349 2.318a3.178 3.178 0 0 0-2.511-1.242c-.19 0-.373.024-.553.055l-5.638-12.522-.325-.722.067-.055zm-3.233.525c.367.148.767.234 1.188.234.191 0 .378-.024.56-.057l.856 1.902L68.34 29.58a3.203 3.203 0 0 0-.99 1.313l-14.238-1.842a3.16 3.16 0 0 0-.678-1.599zM41.185 13.98H58.73c.117.464.336.882.631 1.24l-8.284 11.245a3.183 3.183 0 0 0-1.12-.212c-.42 0-.819.086-1.186.234L40.546 15.23c.3-.36.52-.783.639-1.251zm-3.089 2.418c.42 0 .821-.086 1.19-.234l8.194 11.29a3.17 3.17 0 0 0-.677 1.59l-14.225 1.863a3.19 3.19 0 0 0-.99-1.322l5.95-13.244c.182.033.367.057.558.057zm-2.044-.76c.023.02.045.04.068.057l-5.95 13.244a3.167 3.167 0 0 0-.558-.056c-1.03 0-1.936.495-2.52 1.253L21.74 27.81c.027-.17.052-.34.052-.515 0-.418-.085-.815-.232-1.182zM21.118 29.24l5.35 2.325c-.027.17-.051.34-.051.516a3.18 3.18 0 0 0 1.072 2.374l-6.565 12.547a3.266 3.266 0 0 0-.18-.04l-1.155-16.64a3.181 3.181 0 0 0 1.529-1.082zm-3.02 39.61l-5.23-16.118a3.184 3.184 0 0 0 1.389-1.849h2.835a3.185 3.185 0 0 0 2.098 2.247zm-1.006-19.526H14.31a3.196 3.196 0 0 0-1.394-1.994L18.1 31.356l1.09 15.723a3.184 3.184 0 0 0-2.097 2.245zm2.497 20.56l1.155-16.638c.06-.011.119-.025.178-.039l6.12 11.717.444.847a3.177 3.177 0 0 0-1.07 2.371c0 .171.025.334.05.498l-5.365 2.305a3.173 3.173 0 0 0-1.512-1.06zM36.047 84.57l-14.5-10.43a3.19 3.19 0 0 0 .246-1.23c0-.176-.025-.345-.052-.513l5.346-2.315a3.176 3.176 0 0 0 2.525 1.258c.189 0 .372-.024.552-.056l5.955 13.227a1.415 1.415 0 0 0-.072.059zm3.238-.53a3.198 3.198 0 0 0-1.189-.234c-.191 0-.377.025-.56.057l-1.282-2.85-4.67-10.372c.442-.35.791-.808 1-1.344l3.446.427 10.772 1.338a3.17 3.17 0 0 0 .712 1.644l-1.392 1.918zm19.445 2.185H41.185a3.18 3.18 0 0 0-.646-1.26l8.23-11.334c.368.148.767.234 1.188.234s.821-.086 1.188-.234l8.23 11.336a3.162 3.162 0 0 0-.645 1.258zm3.648-2.362a3.201 3.201 0 0 0-.56-.057c-.42 0-.821.087-1.188.234l-3.37-4.642-4.86-6.692a3.158 3.158 0 0 0 .713-1.644l10.934-1.358 3.292-.408c.198.51.525.948.937 1.292L62.58 83.414zm1.488.705l-.068-.056.202-.453 5.752-12.776c.181.033.367.057.56.057 1.02 0 1.918-.488 2.503-1.234l6.924 2.975zm9.589-15.915a3.12 3.12 0 0 0 .052-.512c0-.941-.415-1.78-1.063-2.366l3.69-6.978 2.999-5.67c.045.012.088.022.134.03l1.19 18.53zM80.82 53.05a3.179 3.179 0 0 0 2.092-2.168h2.721a3.185 3.185 0 0 0 1.391 1.92l-5.19 15.993z" fill="#2754F0" fill-rule="evenodd"/></svg>