<svg height="100" width="100" xmlns="http://www.w3.org/2000/svg"><path d="M50 10c22.077 0 40 17.923 40 40S72.077 90 50 90 10 72.077 10 50s17.923-40 40-40zm11.329 60.852c5.252 0 9.523-4.271 9.523-9.523 0-5.264-4.271-9.523-9.523-9.523a9.516 9.516 0 0 0-9.523 9.523c0 5.252 4.259 9.523 9.523 9.523zM38.671 29.148c-5.252 0-9.523 4.271-9.523 9.523 0 5.264 4.271 9.523 9.523 9.523a9.516 9.516 0 0 0 9.523-9.523c0-5.252-4.259-9.523-9.523-9.523zm9.523 32.181c0-7.252 5.883-13.135 13.135-13.135 5.252 0 9.523-4.259 9.523-9.523 0-5.252-4.271-9.523-9.523-9.523-5.264 0-9.523 4.271-9.523 9.523 0 7.252-5.883 13.135-13.135 13.135-5.252 0-9.523 4.259-9.523 9.523 0 5.252 4.271 9.523 9.523 9.523 5.264 0 9.523-4.271 9.523-9.523zm13.135-2.864a2.864 2.864 0 1 1 0 5.728 2.864 2.864 0 0 1 0-5.728zm-22.658 0a2.864 2.864 0 1 1 0 5.728 2.864 2.864 0 0 1 0-5.728zm22.658-22.659a2.864 2.864 0 1 1 0 5.73 2.864 2.864 0 0 1 0-5.73zm-22.658 0a2.864 2.864 0 1 1 0 5.73 2.864 2.864 0 0 1 0-5.73z" fill="#2754F0" fill-rule="evenodd"/></svg>