<svg height="100" width="100" xmlns="http://www.w3.org/2000/svg"><path d="M43.482 17.779c-7.754 1.541-14.913 5.988-19.688 12.297-3.544 4.61-5.851 10.182-6.522 15.962-.176 1.923-.437 3.878-.053 5.793 5.294-5.317 11.892-9.2 18.88-11.842 6.028-2.239 12.36-3.625 18.754-4.236 1.742-.268 3.523-.018 5.254-.381-3.28-3.378-6.656-6.667-9.985-10a182.952 182.952 0 0 1 3.276-3.273c4.699 4.68 9.382 9.374 14.086 14.049.5.529 1.137.97 1.426 1.663-.829 1.018-1.847 1.86-2.744 2.815-3.623 3.575-7.164 7.23-10.834 10.753-1.074-1.079-2.2-2.105-3.202-3.252 1.507-1.55 3.052-3.06 4.575-4.594 1.1-1.126 2.326-2.141 3.239-3.436-1.908-.097-3.797.205-5.694.324-3.052.515-6.159.768-9.137 1.639-10.116 2.33-19.877 7.296-26.773 15.186-.652.558-.12 1.378.05 2.031 1.14 3.75 2.92 7.309 5.302 10.424 4.228 5.62 10.31 9.795 17.05 11.776 2.345.568 4.7 1.279 7.136 1.258 1.929.005 3.865.058 5.79-.066 5.629-.776 11.127-2.791 15.718-6.172 8.935-6.349 14.266-17.444 13.55-28.389-1.27 1.032-2.444 2.174-3.72 3.2-4.815 3.92-10.393 6.827-16.207 8.956-4.567 1.673-9.343 2.683-14.134 3.465-2.973.494-6.006.402-8.977.863 3.3 3.328 6.617 6.638 9.95 9.934-.996 1.047-1.936 2.179-3.096 3.047-.642-.08-1.04-.653-1.484-1.053-4.015-4.054-8.072-8.066-12.108-12.1-.7-.715-1.478-1.365-2.08-2.17.17-.524.636-.863.996-1.247 4.231-4.112 8.293-8.398 12.587-12.445 1.095 1.047 2.205 2.084 3.191 3.24-2.57 2.717-5.348 5.235-7.874 7.995 1.534.076 3.07-.003 4.594-.206 3.88-.468 7.787-.952 11.555-2.041 9.235-2.334 18.109-6.857 24.642-13.894.431-.558 1.231-1.034 1.194-1.81-2.505-9.954-9.98-18.51-19.538-22.282-2.791-1.179-5.772-1.86-8.76-2.308-3.392-.07-6.865-.355-10.185.527m.25-4.728c2.825-.356 5.68-.732 8.532-.456 1.71.177 3.428.327 5.12.648 6.27 1.27 12.22 4.133 17.078 8.306 5.025 4.175 8.69 9.813 11.034 15.88.92-1.294 1.652-2.707 2.344-4.13.36-.71.808-1.524 1.645-1.729.968-.329 2.175.037 2.688.953.51.763.363 1.77-.034 2.549-1.257 2.641-2.802 5.14-4.56 7.48-.23.397-.67.797-.512 1.297.628 3.12.5 6.325.392 9.485-.453 4.372-1.56 8.7-3.494 12.66-3.2 6.74-8.506 12.434-14.918 16.233-4.541 2.634-9.624 4.373-14.854 4.907a75.43 75.43 0 0 1-8.414-.005c-6.612-.695-13.01-3.25-18.312-7.254-5.88-4.386-10.413-10.521-12.913-17.417-.91 1.258-1.644 2.628-2.318 4.025-.363.71-.77 1.513-1.57 1.805-1.36.666-3.166-.516-3.166-2.015-.015-.729.358-1.387.66-2.023 1.172-2.229 2.416-4.428 3.934-6.441.29-.453.724-.881.721-1.452.053-1.35-.334-2.666-.334-4.013-.013-2.012-.063-4.03.06-6.04.545-4.289 1.66-8.525 3.529-12.434 4.549-9.485 13.22-16.936 23.357-19.814a27.473 27.473 0 0 1 4.305-1.005" fill="#2754F0" fill-rule="evenodd"/></svg>