<svg height="100" width="100" xmlns="http://www.w3.org/2000/svg"><path d="M55.402 44.079c.758.332 1.516.71 2.179 1.137.047 0 .095.047.095.047.189.095.331.237.52.38a.79.79 0 0 1 .237.189c.143.094.332.236.474.379.095.094.19.142.284.236.142.142.285.237.427.38l.284.284.379.378.284.285c.095.142.237.284.332.379.094.094.19.236.284.331l.284.427c.095.142.19.236.237.378l.284.427c.095.142.142.284.237.379.095.142.142.284.237.426.094.142.142.284.237.426.047.142.142.285.19.427.094.19.141.379.236.52.379.948.663 1.943.805 3.032l.426 1.658c.19.71 1.895 6.774 5.874 8.81 4.548 2.37 10.563 5.306 12.932 6.443L51.944 90.5V77.71c0-2.036 4.026-4.405 5.874-5.21l.094-.047c.38-.19.758-.38 1.137-.616l.142-.095a15.503 15.503 0 0 0 2.274-1.658c.047-.047.142-.095.19-.19.094-.047.142-.141.236-.189.237-.19.427-.426.664-.616l.094-.094c.237-.237.474-.474.663-.758.048-.095.143-.142.19-.237.19-.19.331-.426.52-.663.048-.048.096-.142.143-.19l.568-.852c0-.048.048-.048.048-.095.237-.379.474-.805.71-1.184-.947-1.137-1.658-2.369-2.226-3.505-.237.71-.568 1.42-.9 2.036-.142.285-.332.569-.474.853-.047.047-.047.095-.094.095-.142.237-.332.473-.474.663-.047.047-.095.142-.142.19-.142.236-.332.426-.521.615-.048.048-.048.095-.095.095-1.137 1.279-2.51 2.368-4.074 3.126l-.284.142c-.805.332-7.768 3.506-7.768 8.29v12.79L17.176 71.788c2.036-1.231 7.91-4.736 12.742-6.252 1.894-.616 5.92 1.942 8.194 3.79l.143.141c.284.285.615.569.947.806l.095.094c.71.569 1.468 1.137 2.32 1.564l.57.284c.046 0 .094.047.094.047a16.77 16.77 0 0 0 1.61.758c.095.047.142.047.237.095.048 0 .095.047.19.047.805.284 1.61.521 2.415.71.616-1.183 1.516-2.226 2.464-3.126a13.231 13.231 0 0 1-3.885-.852c-.047-.048-.142-.048-.19-.095a1.67 1.67 0 0 1-.425-.19c-.048-.047-.142-.047-.19-.094-.142-.048-.284-.142-.379-.19-.947-.473-1.8-.994-2.605-1.658l-1.232-1.136c-.047-.048-1.563-1.421-3.694-2.653-3.08-1.753-5.685-2.321-7.674-1.705-4.121 1.326-8.81 3.837-11.653 5.494l31.216-56.084v24.584c0 .853-1.279 3.127-5.59 5.069l-.284.142c-.426.19-.805.426-1.231.663l-.095.047c-.805.474-1.563 1.043-2.321 1.658-.474.38-.9.806-1.279 1.232l-.047.047a9.92 9.92 0 0 0-1.137 1.327l-.048.047c-.189.237-.331.474-.52.71 0 .048-.048.048-.048.095-.142.237-.284.427-.426.663 0 .048-.048.048-.048.095l-.426.71c-.047.048-.047.095-.095.19-.142.237-.237.474-.331.663 0 .048-.048.095-.048.095-.094.237-.19.426-.284.663-.047.095-.047.142-.095.237l-.284.71c-.047.095-.047.143-.095.237a2.26 2.26 0 0 1-.189.521c-.047.095-.047.19-.095.285-.047.237-.142.473-.19.663-.047.095-.047.237-.094.331-.047.143-.047.332-.095.474-.047.142-.047.284-.094.426-.048.19-.048.38-.095.569 0 .142-.048.237-.048.379 0 .19-.047.331-.047.52 0 .19 0 .332-.047.522v.71c0 .853.047 1.753.19 2.558 1.23.285 2.51.806 3.883 1.469-.378-1.232-.568-2.51-.615-3.837v-.237c0-.332 0-.616.047-.947v-.237c0-.284.047-.521.095-.805v-.095c.047-.284.095-.569.142-.9 0-.095.047-.142.047-.237.048-.237.142-.474.19-.71 0-.048.047-.095.047-.143l.284-.852c.048-.048.048-.142.095-.19.095-.237.19-.473.284-.663.048-.047.048-.095.095-.19.142-.284.237-.52.426-.757.048-.048.048-.095.095-.142.142-.237.237-.427.379-.664.047-.047.047-.094.095-.142.142-.236.331-.473.52-.71 0 0 0-.048.048-.048.19-.236.332-.426.521-.663.048-.047.048-.094.095-.142a14.48 14.48 0 0 1 2.89-2.463l1.468-.71c.805-.332 7.72-3.6 7.72-8.385V11.584l31.5 56.558c-2.794-1.374-7.768-3.837-11.604-5.826-2.227-1.137-3.695-5.163-4.121-6.632l-.427-1.705c0-.9-.237-1.8-.52-2.7a17.229 17.229 0 0 0-4.927-7.295l-.853-.71-.047-.048a9.615 9.615 0 0 0-.853-.615l-.047-.048c-.284-.19-.569-.379-.9-.568-.048 0-.048-.048-.095-.048-.284-.19-.616-.331-.9-.473-.047 0-.047-.048-.095-.048a18.238 18.238 0 0 0-.947-.426c-.047 0-.047-.047-.095-.047-.284-.095-.568-.237-.852-.332a13.508 13.508 0 0 0-2.369-.663c-.616 1.184-1.468 2.226-2.416 3.126 1.469.095 2.89.474 4.169.995m32.542 25.01L53.223 6.8C52.607 5.663 51.47 5 50.19 5s-2.415.663-3.031 1.8l-34.72 62.29c-.9 1.61-.38 3.694 1.231 4.642l34.77 20.794c.568.332 1.184.474 1.8.474s1.231-.142 1.8-.474l34.72-20.747c1.564-.995 2.132-3.079 1.185-4.69" fill="#2754F0" fill-rule="evenodd"/></svg>