<svg height="100" width="100" xmlns="http://www.w3.org/2000/svg"><path d="M70.671 57.703a7.007 7.007 0 0 1-3.432-.89c-2.658-1.561-4.465-.103-4.53 2.839 0 3.922-3.186 7.122-7.122 7.122a7.02 7.02 0 0 1-3.51-.929c-2.451-1.29-4.258-.168-4.464 3.2a7.113 7.113 0 0 1-7.11 6.787c-3.935 0-7.122-3.187-7.122-7.122s3.187-7.123 7.122-7.123c1.265 0 2.465.336 3.497.93 2.477 1.238 4.465-.169 4.465-2.865a7.12 7.12 0 0 1 7.122-7.123c1.226 0 2.387.31 3.394.852 2.529 1.367 4.529-.026 4.567-2.8a7.12 7.12 0 0 1 7.123-7.123 7.12 7.12 0 0 1 7.123 7.123 7.12 7.12 0 0 1-7.123 7.122M34.284 27.355c0-.607.49-1.084 1.097-1.084.4 0 .748.206.929.529l3.07-1.265a1.082 1.082 0 0 1 1.045-1.368c.594 0 1.085.491 1.085 1.085 0 .09-.013.18-.039.27l3.02 1.24c.193-.323.541-.53.941-.53.607 0 1.084.478 1.084 1.084 0 .4-.206.749-.529.93l1.278 3.083a1.082 1.082 0 0 1 1.368 1.045 1.09 1.09 0 0 1-1.085 1.084.993.993 0 0 1-.283-.039l-1.304 3.136c.31.18.516.529.516.929a1.09 1.09 0 0 1-1.083 1.084c-.336 0-.633-.155-.84-.4a7.038 7.038 0 0 1-4.128 1.329 7.12 7.12 0 0 1-7.123-7.123c0-1.574.503-3.02 1.368-4.193a1.117 1.117 0 0 1-.387-.826m21.342 7.006c3.922 0 7.122 3.187 7.122 7.11 0 3.935-3.2 7.123-7.122 7.123-1.303 0-2.465-.44-3.561-.942-2.62-1.136-4.413-.104-4.413 2.89a7.12 7.12 0 0 1-7.123 7.123c-3.923 0-7.11-3.188-7.11-7.123s3.187-7.123 7.11-7.123a7.12 7.12 0 0 1 3.974 1.213c2.039 1.239 3.974.039 4-3.161.026-3.923 3.187-7.11 7.123-7.11M50 10c-22.091 0-40 17.909-40 40s17.909 40 40 40 40-17.909 40-40-17.909-40-40-40" fill="#2754F0" fill-rule="evenodd"/></svg>