<svg height="100" width="100" xmlns="http://www.w3.org/2000/svg"><path d="M8.819 51.181s16.614-10.984 33.7-13.78l-2.716 4.528 2.126 4.016 5.748-9.134c.788-.04 1.575-.079 2.323-.079s1.535.04 2.283.079l5.63 9.134 2.166-4.213-2.599-4.37c17.087 2.756 33.701 13.504 33.701 13.78 0 .315-17.44 11.575-34.96 13.976l8.543-15.512-2.323-3.897-4.449 8.031-6.102 11.772c-.67.04-1.3.04-1.969.04s-1.338 0-2.008-.04l-8.307-15.827.04-.04-2.126-3.858-2.323 3.898 8.543 15.472C26.22 62.717 8.78 51.181 8.82 51.181zm45 18.386C76.889 67.835 95 51.18 95 51.18S77.402 34.96 54.803 32.873l-1.732-2.913L50 25l-1.811 2.913-2.992 4.961C22.598 35 5 51.142 5 51.181c0 0 18.11 16.654 41.181 18.386L50 76.457z" fill="#2754F0" fill-rule="evenodd"/></svg>