<svg height="100" width="100" xmlns="http://www.w3.org/2000/svg"><path d="M81.74 50.749c-.773 0-1.48.242-2.077.595a16.78 16.78 0 0 0 3.976-10.86c0-1.982-.353-3.876-.972-5.638a35.192 35.192 0 0 1 3.357 15.176c0 1.498-.11 2.952-.287 4.405a4.012 4.012 0 0 0-3.997-3.678m.552 15.22c.132-.595.22-1.19.22-1.828 0-2.18-.883-4.163-2.296-5.639.485.198.993.309 1.546.309a4.056 4.056 0 0 0 3.71-2.445 36.375 36.375 0 0 1-3.18 9.603m-2.54-11.211c0-1.102.905-2.005 2.01-2.005s2.01.903 2.01 2.005a2.015 2.015 0 0 1-2.01 2.004 2 2 0 0 1-2.01-2.004m-6.76 22.951c.553-.683.907-1.52.907-2.467a3.913 3.913 0 0 0-1.723-3.238 8.701 8.701 0 0 0 2.164.287 8.16 8.16 0 0 0 5.544-2.18 36.388 36.388 0 0 1-6.891 7.598m-3.026-.572c-1.038 0-1.9-.86-1.9-1.895 0-1.035.862-1.894 1.9-1.894 1.038 0 1.9.859 1.9 1.894a1.911 1.911 0 0 1-1.9 1.895m-15.064 8.568A16.995 16.995 0 0 0 66.08 74.89c-.022.11-.045.242-.045.352 0 2.159 1.767 3.921 3.932 3.921a3.94 3.94 0 0 0 1.7-.396c-4.814 3.612-10.557 6.079-16.764 6.938m-18.796-16.19c0-7.665 6.229-13.876 13.893-13.876 7.664.022 13.893 6.233 13.893 13.876S57.664 83.37 50 83.392c-7.664-.022-13.893-6.211-13.893-13.877m-7.752 9.252a3.941 3.941 0 0 0 1.7.396c2.165 0 3.932-1.762 3.932-3.92 0-.133-.044-.243-.044-.353a16.994 16.994 0 0 0 11.176 10.815 36.05 36.05 0 0 1-16.764-6.938m1.678-5.419c1.038 0 1.9.859 1.9 1.894a1.911 1.911 0 0 1-1.9 1.895c-1.038 0-1.9-.86-1.9-1.895 0-1.057.862-1.894 1.9-1.894m-3.931 1.894c0 .947.353 1.784.905 2.467a36.381 36.381 0 0 1-6.891-7.599 8.16 8.16 0 0 0 5.544 2.18c.75 0 1.48-.087 2.164-.286a3.914 3.914 0 0 0-1.722 3.238m-8.394-9.273c-1.501-2.995-2.562-6.211-3.18-9.603a4.056 4.056 0 0 0 3.71 2.445 3.94 3.94 0 0 0 1.547-.309 8.06 8.06 0 0 0-2.297 5.639c0 .639.088 1.233.22 1.828m2.54-11.19c0 1.102-.905 2.005-2.01 2.005s-2.01-.903-2.01-2.004.906-2.005 2.01-2.005 2.01.881 2.01 2.005M13.955 50c0-5.419 1.192-10.573 3.357-15.176a17.088 17.088 0 0 0-.972 5.639 16.78 16.78 0 0 0 3.976 10.859 3.995 3.995 0 0 0-2.076-.595c-2.099 0-3.822 1.63-3.998 3.678A36.041 36.041 0 0 1 13.954 50m19.238 17.29a18.504 18.504 0 0 0-.155 2.225c0 1.366.177 2.688.486 3.965a3.909 3.909 0 0 0-3.49-2.158c-.22 0-.42.044-.618.066a8.137 8.137 0 0 0 3.777-4.097m-7.532-8.282c2.827 0 5.146 2.29 5.146 5.132a5.144 5.144 0 0 1-5.146 5.132c-2.827 0-5.146-2.29-5.146-5.132s2.319-5.154 5.146-5.132m-3.91-6.168a16.635 16.635 0 0 0 4.992 3.238 5.823 5.823 0 0 0-1.082-.088c-1.524 0-2.96.419-4.175 1.146a3.84 3.84 0 0 0 .796-2.357c0-.727-.2-1.366-.53-1.939m7.73 4.075a16.944 16.944 0 0 0 10.182-.793 17.008 17.008 0 0 0-5.83 8.304c0-.088.021-.198.021-.286 0-3.128-1.767-5.837-4.373-7.225m3.821-30.33c7.686 0 13.915 6.233 13.915 13.877 0 7.665-6.25 13.876-13.915 13.876-7.686 0-13.915-6.233-13.915-13.876s6.25-13.855 13.915-13.877m2.165-9.516a3.99 3.99 0 0 0-1.502 3.106 4.01 4.01 0 0 0 2.407 3.679 17.483 17.483 0 0 0-3.07-.287c-5.19 0-9.807 2.313-12.921 5.97A36.167 36.167 0 0 1 35.467 17.07m2.54 1.102c1.104 0 2.01.903 2.01 2.004 0 1.102-.906 2.005-2.01 2.005s-2.01-.903-2.01-2.005a2 2 0 0 1 2.01-2.004m5.522 8.832a17.037 17.037 0 0 0-5.743-2.819c.066 0 .132.022.22.022a4.046 4.046 0 0 0 3.756-2.555c-.023.088-.023.176-.023.264 0 1.917.663 3.679 1.79 5.088m3.953-12.951a8.231 8.231 0 0 0-5.477 5.793 4.003 4.003 0 0 0-3.998-3.723c-.133 0-.265.022-.398.044 3.114-1.145 6.428-1.85 9.873-2.114m7.73 7.863c0 2.864-2.34 5.199-5.212 5.199-2.871 0-5.212-2.335-5.212-5.199 0-2.863 2.34-5.198 5.212-5.198 2.871 0 5.212 2.335 5.212 5.198m7.157-5.749c-.133-.022-.265-.044-.398-.044-2.12 0-3.843 1.652-3.998 3.723a8.23 8.23 0 0 0-5.477-5.793c3.445.264 6.78.969 9.873 2.114m1.634 4.01c0 1.1-.905 2.004-2.01 2.004s-2.01-.903-2.01-2.005c0-1.101.906-2.004 2.01-2.004s2.01.88 2.01 2.004m15.616 9.34c-3.114-3.635-7.73-5.97-12.921-5.97-1.038 0-2.076.11-3.07.287a4.01 4.01 0 0 0 2.407-3.679c0-1.255-.596-2.357-1.501-3.106a36.501 36.501 0 0 1 15.085 12.467m-21.358-7.863a4.046 4.046 0 0 0 3.754 2.555c.067 0 .133-.022.221-.022a16.84 16.84 0 0 0-5.742 2.82 8.22 8.22 0 0 0 1.767-5.089c0-.088-.022-.176 0-.264m-12.612 7.247c1.259.793 2.739 1.255 4.351 1.255s3.092-.462 4.351-1.255a16.946 16.946 0 0 0-4.35 8.766 16.703 16.703 0 0 0-4.352-8.766M56.36 53.833A16.952 16.952 0 0 0 50 52.599c-2.254 0-4.396.463-6.362 1.234 3.313-2.555 5.654-6.3 6.361-10.617a16.804 16.804 0 0 0 6.361 10.617m10.337.506c-7.686 0-13.915-6.233-13.915-13.876 0-7.666 6.25-13.877 13.915-13.877 7.686 0 13.915 6.233 13.915 13.877s-6.25 13.876-13.915 13.876m11.795 2.798a8.124 8.124 0 0 0-4.175-1.146c-.375 0-.729.044-1.082.088a17.526 17.526 0 0 0 4.992-3.238 4.082 4.082 0 0 0-.508 1.939c0 .88.287 1.696.773 2.357m-9.321 7.004a5.144 5.144 0 0 1 5.146-5.132c2.85 0 5.169 2.29 5.169 5.132 0 2.82-2.32 5.132-5.169 5.132-2.827 0-5.146-2.29-5.146-5.132m-2.408 3.172a8.23 8.23 0 0 0 3.8 4.075 2.798 2.798 0 0 0-.62-.066c-1.523 0-2.849.88-3.489 2.158.31-1.277.486-2.599.486-3.965 0-.748-.066-1.497-.177-2.202m-.618-2.864a16.909 16.909 0 0 0-5.831-8.304 16.95 16.95 0 0 0 10.182.793 8.142 8.142 0 0 0-4.351 7.203c0 .088.022.176 0 .308M50 10c-22.065.066-40 17.974-40 40s17.935 39.934 40 40c22.065-.044 40-17.974 40-40S72.065 10.066 50 10" fill="#2754F0" fill-rule="evenodd"/></svg>