<svg height="100" width="100" xmlns="http://www.w3.org/2000/svg"><path d="M57.16 48.637c-5.623 0-8.285-1.085-13.91-1.085a22.86 22.86 0 0 0-4.16.358c1.13-10.452 9.84-18.365 20.21-18.364 6.35 0 10.7 3.108 10.7 9.545s-5.222 9.546-12.84 9.546M40.7 70.455c-6.35 0-10.7-3.109-10.7-9.546s5.222-9.545 12.84-9.545c5.623 0 8.285 1.084 13.91 1.085a22.86 22.86 0 0 0 4.16-.358c-1.13 10.451-9.84 18.364-20.21 18.364M50 10c-22.091 0-40 17.909-40 40s17.909 40 40 40 40-17.909 40-40-17.909-40-40-40" fill="#2754F0" fill-rule="evenodd"/></svg>