<svg height="100" width="100" xmlns="http://www.w3.org/2000/svg"><path d="M73.341 19.004c-3.47 2.91-7.052 6.492-8.507 10.857-1.679 5.149.672 10.41 2.91 14.999 2.24 4.7 4.702 9.29 6.828 14.103 1.68 3.806 4.03 8.283 3.47 12.536-.448 3.022-1.455 5.933-2.015 8.955-.447 2.015 1.456 0 2.127-.56 3.918-3.358 8.171-7.163 9.738-12.312.784-2.575.336-4.925-.56-7.388-.895-2.35-1.902-4.589-2.91-6.94-2.126-4.7-4.365-9.402-6.604-14.103a76.446 76.446 0 0 1-2.574-5.26 18.281 18.281 0 0 1-1.343-6.045c-.112-1.679-.112-3.246.112-4.925.112-1.231.447-2.35.56-3.582.111-.671-.448-.895-1.232-.335zm-51.264 0c.783-.56 1.343-.336 1.23.335-.111 1.232-.447 2.351-.559 3.582-.224 1.68-.224 3.246-.112 4.925a18.28 18.28 0 0 0 1.343 6.044 76.418 76.418 0 0 0 2.575 5.261c2.239 4.701 4.477 9.402 6.604 14.104 1.007 2.35 2.015 4.589 2.91 6.94.895 2.462 1.343 4.812.56 7.387-1.567 5.149-5.82 8.954-9.738 12.312-.672.56-2.575 2.575-2.127.56.56-3.022 1.567-5.933 2.015-8.955.56-4.253-1.791-8.73-3.47-12.536-2.127-4.813-4.59-9.402-6.828-14.103-2.239-4.59-4.59-9.85-2.91-15 1.455-4.364 5.037-7.946 8.507-10.856zm24.848-8.507c1.008-.784 1.68-.672 1.344.56 0 1.343-.448 2.574-.56 3.917-.224 2.015-.336 4.142-.224 6.156.112 2.687.56 5.373 1.567 7.947.672 1.903 1.79 3.694 2.686 5.597a430.502 430.502 0 0 1 7.724 16.23c1.343 2.91 2.686 5.82 3.917 8.843 1.12 2.574 2.463 5.26 2.687 8.059.447 6.827-4.813 12.648-9.403 17.013a56.235 56.235 0 0 1-5.484 4.813c-.448.336-.896.672-1.008-.112-.112-1.007.56-2.35.784-3.358 1.007-3.47 2.238-7.387 2.015-11.08-.224-3.023-1.456-6.045-2.575-8.732-3.134-7.61-7.387-14.663-10.633-22.162-1.68-3.917-3.246-7.947-4.366-11.977-.895-3.357-.671-6.715 1.008-9.961 2.35-4.59 6.604-8.507 10.521-11.753z" fill="#2754F0" fill-rule="evenodd"/></svg>