<svg height="100" width="100" xmlns="http://www.w3.org/2000/svg"><path d="M33.784 57.084c-.062.055-.105.1-.157.13-3.445 1.99-6.887 3.985-10.345 5.952-.191.108-.562.086-.757-.031-.913-.552-1.886-.918-2.951-.947-3.543-.09-5.698 2.803-5.819 5.317-.14 2.945 2.088 5.962 5.691 5.935 3.16-.024 5.565-2.558 5.534-5.72-.005-.564.161-.884.657-1.165 3.671-2.09 7.328-4.207 10.981-6.328.353-.206.637-.24 1.022-.058 2.278 1.07 4.634 1.252 7.063.565.241-.067.562.001.803.104.715.304 1.397.69 2.115.98.41.165.548.389.548.824-.013 5.726-.012 11.451-.002 17.177 0 .404-.126.634-.495.81-1.93.93-3.385 3.33-2.988 5.897.46 2.982 3.524 5.234 6.48 4.655 2.605-.508 4.316-2.286 4.682-5.022.248-1.855-.644-4.304-3.03-5.53-.324-.165-.502-.346-.501-.744.012-5.562.013-11.124 0-16.684 0-.495.227-.596.66-.672 1.142-.2 2.288-.422 3.404-.735.506-.142.905-.162 1.395.049 2.448 1.053 4.832.873 7.113-.504.325-.195.559-.204.886-.013a950.551 950.551 0 0 0 9.061 5.222c.49.278.68.585.666 1.16-.088 3.327 2.814 6.046 6.197 5.685 3.321-.353 5.675-3.55 4.904-6.783-.923-3.874-5.12-5.622-8.51-3.528-.357.22-.615.28-.996.057a885.986 885.986 0 0 0-8.63-4.983c-.427-.243-.484-.469-.348-.926.87-2.933.279-5.543-1.822-7.79-.41-.44-2.337-3.516-2.605-4.083-.213-.45-.123-.689.305-.934 4.377-2.507 8.748-5.026 13.111-7.557.352-.203.59-.207.935.025 1.23.825 2.609 1.086 4.055.833 2.816-.494 4.857-3.042 4.606-6.05-.274-3.262-3.474-5.701-6.67-4.994-2.806.622-4.568 2.814-4.536 5.696.005.49-.131.77-.57 1.021-4.432 2.537-8.853 5.09-13.267 7.658-.398.232-.615.184-.936-.125-2.079-2.003-4.581-3.128-7.436-3.485-.964-.121-.964-.116-.964-1.11 0-5.213.013-10.426-.016-15.638-.003-.727.167-1.149.848-1.54 2.444-1.405 3.373-4.428 2.255-7.005-1.128-2.6-4.009-3.99-6.71-3.167-2.46.75-3.83 2.487-4.072 5.015-.185 1.95.738 4.118 2.964 5.335.342.186.58.35.58.82a2913.89 2913.89 0 0 0-.003 17.24c0 .455-.207.609-.579.797-1.111.56-2.304 1.05-3.248 1.831-1.089.899-2.106 1.418-3.622 1.418-.148-.004-.243.01-.397.007-.376-.008-.798-.024-1.105-.2-4.471-2.55-8.919-5.141-13.395-7.683-.64-.362-.948-.751-.842-1.488.043-.293-.048-.608-.096-.91-.437-2.754-3.13-5.057-6.38-4.523-3.188.525-5.213 3.41-4.687 6.499.671 3.944 5.173 5.94 8.568 3.783.383-.243.649-.262 1.041-.033 3.366 1.963 6.745 3.902 10.12 5.85.578.334 1.155.67 1.73 1.004-3.877 4.108-4.313 8.52-1.493 13.337m54.193-24.921c-.068 2.663-1.224 4.648-3.455 5.985-.411.246-.554.497-.553.966.014 7.265.013 14.53.002 21.793-.001.436.11.7.51.93 2.581 1.491 3.887 4.242 3.424 7.134-.445 2.771-2.66 5.048-5.53 5.593-1.663.317-3.274.065-4.732-.83-.445-.272-.758-.224-1.175.016a5752.973 5752.973 0 0 1-18.756 10.82c-.428.246-.588.516-.587 1.016.007 3.495-2.691 6.537-6.061 6.876-3.59.362-6.763-1.893-7.538-5.376-.119-.536-.159-1.096-.171-1.644-.01-.371-.112-.599-.442-.79a9970.809 9970.809 0 0 1-19.024-10.973c-.343-.2-.613-.202-.959.008-4.14 2.493-9.419.103-10.297-4.554-.554-2.942.643-5.692 3.276-7.242.416-.245.604-.492.603-1-.019-7.266-.016-14.53-.004-21.794 0-.437-.113-.695-.513-.927-2.643-1.535-3.887-4.203-3.379-7.198.504-2.975 2.805-5.158 5.8-5.585 1.604-.228 3.152.065 4.54.951.323.207.563.2.891.011A7572.2 7572.2 0 0 1 42.82 15.408c.383-.22.532-.473.533-.924.01-4 3.172-7.064 7.178-6.982 3.122.062 6.044 2.64 6.487 5.72.04.284.104.458.104.848 0 .855.314 1.217.98 1.597a3782.832 3782.832 0 0 1 18.384 10.602c.42.245.726.255 1.164.007 4.157-2.371 9.197-.1 10.209 4.592.095.437.086.896.119 1.295zM43.108 43.81c-4.84-.216-8.612 4.355-7.41 9.084 1.05 4.123 5.352 6.47 9.487 5.12.487-.16.865-.139 1.315.146 2.935 1.845 6.022 2.073 9.21.732.497-.208.877-.24 1.358.056 1.074.66 2.284.8 3.504.606 2.29-.363 3.91-2.075 4.386-4.545.367-1.908-.703-4.197-2.561-5.256-.65-.37-.937-.808-1.08-1.535-.732-3.716-2.942-6.249-6.506-7.433-3.625-1.204-6.927-.398-9.725 2.203-.649.602-1.09.9-1.978.822zm36.427 24.016c0 .904.698 1.612 1.588 1.612.83-.002 1.628-.799 1.619-1.623-.01-.856-.756-1.58-1.632-1.584-.91-.002-1.575.67-1.575 1.595zM48.638 14.383c-.003.853.746 1.607 1.607 1.615.848.01 1.6-.752 1.598-1.614a1.57 1.57 0 0 0-1.6-1.588c-.903 0-1.602.692-1.605 1.587zm-27.693 53.45c.004-.926-.658-1.601-1.567-1.602-.877 0-1.642.737-1.638 1.578.004.841.777 1.62 1.613 1.629.885.007 1.589-.702 1.592-1.605zM50.26 84.056c-.905-.007-1.612.668-1.622 1.553-.01.89.683 1.581 1.59 1.586.914.005 1.61-.665 1.615-1.554.004-.893-.681-1.579-1.583-1.585zM19.396 33.763c.925-.009 1.563-.666 1.55-1.598-.014-.927-.668-1.554-1.608-1.54-.902.013-1.624.735-1.597 1.596.027.883.741 1.55 1.655 1.542zm61.694.002c.908.006 1.627-.668 1.649-1.545.021-.865-.697-1.581-1.599-1.594-.94-.012-1.596.617-1.605 1.542-.01.932.63 1.59 1.555 1.597z" fill="#2754F0" fill-rule="evenodd"/></svg>