<svg height="100" width="100" xmlns="http://www.w3.org/2000/svg"><path d="M49.79 15.283c8.174 4.539 31.603 17.543 38.652 21.443l-38.23 21.201c-.28.154-.512.184-.734.06-1.39-.781-29.82-16.725-37.92-21.265l38.231-21.44m43.45 33.85c-1.28-.766-3.005-.707-4.613.156-.266.143-37 20.598-38.435 21.47-.264.161-.397.243-.952-.06-.603-.33-37.43-20.905-38.223-21.341-.351-.194-.817-.539-.817-1.298v-6.14L46.934 62.52a5.785 5.785 0 0 0 2.826.743 6.162 6.162 0 0 0 2.972-.79c7.689-4.264 39.039-21.65 39.986-22.174 1.42-.787 2.294-2.205 2.282-3.699-.012-1.404-.799-2.66-2.106-3.357-.76-.405-21.546-11.937-40.744-22.595-.775-.43-1.585-.648-2.408-.648-.76 0-1.51.196-2.17.566A734608.58 734608.58 0 0 0 6.95 33.346c-1.222.686-1.95 1.942-1.949 3.362v11.351c0 2.492 1.28 4.625 3.51 5.852.78.429 37.614 21.009 38.24 21.35 2.633 1.435 4.794.76 6.14-.06.855-.515 30.189-16.903 36.911-20.626v5.696c0 .07 0 .28-1.004.912-1.302.806-36.581 20.646-38.25 21.55-.713.387-.802.335-1.095.167-1.269-.73-39.808-22.377-41.448-23.298l-2.546 4.533c.401.226 40.158 22.557 41.405 23.273 1.052.604 2.033.826 2.92.826 1.304 0 2.407-.479 3.24-.93.29-.157 37.093-20.806 38.543-21.72.939-.592 3.434-2.165 3.434-5.313v-7.852c0-1.419-.642-2.617-1.762-3.287" fill="#2754F0" fill-rule="evenodd"/></svg>