<svg height="100" width="100" xmlns="http://www.w3.org/2000/svg"><path d="M93.553 57.875H95v4.594h-1.447c-4.727 0-8.897-2.67-11.008-6.61-2.123 3.94-6.286 6.61-10.986 6.61h-1.446v-4.594h1.446c4.349 0 7.886-3.538 7.886-7.886 0-4.348-3.537-7.886-7.886-7.886h-1.446V37.5l1.456.009c4.704.03 8.853 2.699 10.959 6.617 2.122-3.944 6.287-6.617 10.989-6.617h1.447v4.594h-1.447c-4.328 0-7.85 3.538-7.85 7.886 0 4.348 3.538 7.886 7.886 7.886zM56.62 37.509c6.881 0 12.48 5.599 12.48 12.48 0 6.882-5.599 12.48-12.48 12.48s-12.48-5.598-12.48-12.48c0-6.881 5.599-12.48 12.48-12.48zm0 20.366c4.348 0 7.886-3.538 7.886-7.886 0-4.348-3.538-7.886-7.886-7.886s-7.886 3.538-7.886 7.886c0 4.348 3.537 7.886 7.886 7.886zm-20.66-9.333L36 62.47h-4.557V48.542zM14.332 49.99c0-6.881 5.598-12.48 12.48-12.48H42.44v4.594H26.813c-4.349 0-7.886 3.538-7.886 7.886 0 6.881-5.598 12.48-12.48 12.48H5v-4.594h1.447c4.348 0 7.886-3.538 7.886-7.886z" fill="#2754F0" fill-rule="evenodd"/></svg>