<svg height="100" width="100" xmlns="http://www.w3.org/2000/svg"><path d="M70.389 63.29c-10.222 0-20.184-4.456-28.832-11.271 9.96-8.65 19.92-18.348 31.453-18.348 23.066-.002 23.59 29.88-2.621 29.619M73.535 30c28.57 0 29.618 36.171-2.884 36.171-12.58 0-22.541-5.766-30.405-12.843-7.338 6.29-14.415 11.533-22.279 11.533-16.513 0-17.3-21.756-2.102-25.425.524-.262.524.524 0 .524-11.533 3.67-11.533 22.017 1.834 22.017 6.555 0 14.943-6.29 20.185-11.27-3.142-2.883-6.024-6.291-8.384-9.174-.262-.262-.262-.524 0-.787.262 0 .524 0 .786.263a134.478 134.478 0 0 0 8.65 8.65C48.896 40.744 60.167 30 73.535 30zM22.947 41.009a3.407 3.407 0 1 1 0-6.815 3.407 3.407 0 0 1 0 6.815z" fill="#2754F0" fill-rule="evenodd"/></svg>