<svg height="100" width="100" xmlns="http://www.w3.org/2000/svg"><path d="M57.672 46.932a.43.43 0 0 0-.427.163.434.434 0 0 0 .087.608C73.75 60.117 50.379 88.542 5 58.293c38.475 37.719 92.05-3.945 52.672-11.36zM35.756 30.341c-34.072 11.352 4.962 38.135 8.349 24.606a.438.438 0 0 0-.553-.526c-5.011 1.696-32.629-6.346-7.796-24.08zM95 37.163c-29.5-21.915-84.856-3.842-56.3 11.629a.436.436 0 0 0 .589-.18.442.442 0 0 0 .014-.386C27.687 22.666 86.675 30.441 95 37.163zM70.52 69.007c15.593-7.389 2.912-32.665-17.716-27.785a.436.436 0 0 1-.517-.331.428.428 0 0 1 .15-.427C68.49 27.896 98.615 57.228 70.52 69.007z" fill="#2754F0" fill-rule="evenodd"/></svg>