<svg height="100" width="100" xmlns="http://www.w3.org/2000/svg"><path d="M86.202 34.645c-1.547-.128-3.083-.486-4.24-1.42-.792-.64-1.387-1.524-1.819-2.699-.42-1.144-.675-2.562-.764-4.228h1.539c1.403 0 2.728.551 3.73 1.553a5.246 5.246 0 0 1 1.554 3.731zm0 28.794c-4.357.285-7.424 1.593-9.344 3.978-.933 1.158-1.565 2.53-1.933 4.193-.195.882-.315 1.844-.366 2.962H24.335c-.282-4.357-1.58-7.422-3.943-9.34-1.153-.934-2.52-1.568-4.178-1.936a16.301 16.301 0 0 0-2.416-.335V37.91c4.353-.285 7.42-1.59 9.342-3.968.933-1.154 1.566-2.52 1.934-4.176.226-1.014.35-2.131.386-3.468h50.117c.21 4.64 1.523 7.88 3.998 9.88 1.154.933 2.52 1.566 4.177 1.934.745.166 1.547.277 2.45.339zm0 5.848a5.246 5.246 0 0 1-1.554 3.73 5.246 5.246 0 0 1-3.73 1.555h-2.559c.092-1.728.42-3.487 1.456-4.773.64-.795 1.523-1.39 2.698-1.823 1.018-.374 2.254-.618 3.69-.73zm-67.12 5.285a5.246 5.246 0 0 1-3.73-1.554 5.246 5.246 0 0 1-1.554-3.731v-2.52c1.54.131 3.062.49 4.201 1.415.787.638 1.378 1.52 1.806 2.696.37 1.018.613 2.256.723 3.694zm-5.284-42.99c0-1.404.551-2.729 1.554-3.73a5.246 5.246 0 0 1 3.73-1.554h2.58c-.054 1.871-.334 3.845-1.475 5.257-.64.792-1.523 1.386-2.7 1.818-1.018.374-2.254.617-3.69.729zm67.12-9.082c5.008 0 9.082 4.074 9.082 9.082v37.705c0 5.008-4.074 9.082-9.082 9.082H19.082c-5.008 0-9.082-4.074-9.082-9.082V31.582a9.02 9.02 0 0 1 2.666-6.416 9.019 9.019 0 0 1 6.416-2.666zM63.513 35.852a18.833 18.833 0 0 0-13.363-5.534 18.833 18.833 0 0 0-13.364 5.535 18.832 18.832 0 0 0-5.535 13.362 18.833 18.833 0 0 0 5.536 13.362 18.833 18.833 0 0 0 13.363 5.535 18.833 18.833 0 0 0 13.364-5.535 18.833 18.833 0 0 0 5.535-13.362 18.833 18.833 0 0 0-5.535-13.362zm-2.685 24.04a15.003 15.003 0 0 1-10.678 4.422c-4.034 0-7.826-1.57-10.679-4.422a15 15 0 0 1-4.423-10.677 15 15 0 0 1 4.423-10.677 15.004 15.004 0 0 1 10.679-4.423 15 15 0 0 1 10.678 4.423 15 15 0 0 1 4.423 10.677 15 15 0 0 1-4.423 10.677zm-9.917-18.136h-3.798V53.41h11.178v-3.798h-7.38z" fill="#2754F0" fill-rule="evenodd"/></svg>