<svg height="100" width="100" xmlns="http://www.w3.org/2000/svg"><path d="M47.15 18.543c-7.234.616-14.2 3.87-19.34 8.99-5.185 5.08-8.524 12-9.228 19.227-.764 7.165 1.032 14.576 5.02 20.581 4.246 6.477 10.936 11.31 18.446 13.235 6.795 1.772 14.182 1.203 20.611-1.634 7.211-3.135 13.152-9.074 16.29-16.287 3.053-6.928 3.472-14.967 1.177-22.178-2.154-6.882-6.776-12.938-12.802-16.888-5.895-3.904-13.136-5.708-20.173-5.046m-3.414-8.068c7.799-1.196 15.96-.139 23.115 3.226 7.971 3.68 14.646 10.078 18.676 17.879 3.362 6.442 4.884 13.821 4.377 21.07-.491 8.508-3.894 16.794-9.421 23.269-5.658 6.688-13.574 11.425-22.151 13.22-7.745 1.615-15.98.959-23.32-2.03-7.98-3.208-14.851-9.077-19.282-16.448-4.219-6.95-6.21-15.212-5.633-23.32.477-8.257 3.698-16.306 8.943-22.69 6.13-7.533 15.092-12.695 24.696-14.176zM31.795 30.747c-.003 3.061 0 6.122-.003 9.186 4.214.003 8.428-.008 12.64.005-.003 11.084.002 22.17-.003 33.253 3.683.003 7.368-.013 11.051.008a34604.9 34604.9 0 0 0 0-33.29c4.243-.006 8.484 0 12.727-.003v-9.16c-12.137-.002-24.275-.002-36.412 0z" fill="#2754F0" fill-rule="evenodd"/></svg>