<svg height="100" width="100" xmlns="http://www.w3.org/2000/svg"><path d="M79.83 33.904c-.969.564-2.017.977-2.976 1.553-1.114.64-2.312 1.118-3.415 1.776-1.024.588-2.13 1.025-3.139 1.64-.966.546-1.997.966-2.947 1.54-1.158.648-2.392 1.153-3.53 1.839-.864.475-1.776.853-2.626 1.354-1.01.602-2.111 1.034-3.128 1.626-1.076.639-2.24 1.107-3.325 1.73-1.029.615-2.152 1.052-3.175 1.677-1.153.585-2.29 1.215-3.49 1.695-.07 2.195-.512 4.354-.629 6.544-.113 1.702-.454 3.377-.534 5.083-.13 2.032-.533 4.035-.618 6.072-.05.876-.218 1.737-.293 2.61-.27 1.887-.278 3.808-.614 5.685-.159 1.6-.282 3.203-.444 4.803-.298 1.716-.352 3.473-.53 5.208-.135.48-.123.984-.224 1.473-.045.472-.09.944-.158 1.415 2.282-3.262 4.512-6.56 6.778-9.833 4.236-6.226 8.576-12.378 12.759-18.638.094-.09.188-.179.284-.268.626-1.11 1.437-2.1 2.123-3.173 5.813-8.413 11.566-16.86 17.384-25.27-1.138.693-2.385 1.184-3.534 1.86m-6.926-10.792c-.524.883-1.4 1.462-2.013 2.272-.503.653-1.166 1.156-1.68 1.798-.6.771-1.39 1.367-1.993 2.134-.566.705-1.299 1.257-1.852 1.974-.528.697-1.245 1.22-1.77 1.915-.532.697-1.244 1.228-1.781 1.919-.58.726-1.325 1.298-1.907 2.024-.534.677-1.23 1.207-1.754 1.896-.564.714-1.304 1.264-1.858 1.986-.552.725-1.292 1.275-1.852 1.992-.5.635-1.142 1.14-1.657 1.763-.589.738-1.304 1.36-1.964 2.032.496-.24 1-.467 1.466-.763 1.006-.578 2.08-1.027 3.097-1.59.907-.563 1.91-.951 2.829-1.494 1.095-.641 2.275-1.115 3.37-1.753 1.107-.65 2.305-1.128 3.413-1.773.96-.577 2.015-.98 2.974-1.558 1.077-.626 2.244-1.084 3.314-1.723 1.033-.597 2.145-1.041 3.169-1.652.865-.503 1.793-.884 2.663-1.377 1.001-.616 2.101-1.046 3.12-1.63.87-.513 1.786-.941 2.7-1.368-3.123-2.13-6.187-4.345-9.309-6.479a28.17 28.17 0 0 1-.725-.545M15.296 9.01c1.276 1.534 2.581 3.041 3.814 4.61 4.225 4.998 8.36 10.07 12.574 15.079 5.232 6.345 10.528 12.638 15.756 18.987 1.142-1.027 2.068-2.255 3.166-3.323.64-.867 1.51-1.529 2.173-2.375.518-.623 1.163-1.128 1.666-1.765.557-.712 1.291-1.26 1.843-1.978.583-.757 1.367-1.33 1.946-2.09.498-.65 1.156-1.15 1.663-1.792.57-.724 1.314-1.29 1.887-2.014.527-.667 1.212-1.189 1.734-1.863.552-.715 1.29-1.258 1.836-1.979.554-.724 1.296-1.276 1.865-1.988.501-.653 1.156-1.163 1.678-1.796.64-.794 1.417-1.46 2.115-2.2-1.302-.157-2.535-.627-3.823-.852-.237-.087-.477-.167-.714-.249-.511-.097-1.025-.197-1.54-.278-.24-.086-.48-.168-.72-.253-.455-.09-.913-.18-1.366-.278-.795-.302-1.638-.415-2.461-.603-2.538-.7-5.132-1.177-7.66-1.91-.754-.165-1.528-.255-2.263-.506l-.533-.162a23.01 23.01 0 0 1-1.366-.296c-.728-.273-1.499-.38-2.26-.513a31.178 31.178 0 0 0-.52-.188c-2.21-.507-4.4-1.083-6.613-1.557-.24-.087-.483-.168-.723-.257a28.689 28.689 0 0 0-1.537-.275c-.24-.084-.479-.162-.717-.25a51.883 51.883 0 0 0-1.374-.283c-.177-.057-.353-.111-.53-.167-.742-.226-1.505-.373-2.266-.507a24.328 24.328 0 0 0-.517-.18c-2.104-.464-4.184-1.02-6.29-1.482-.076-.021-.23-.065-.309-.085-.736-.262-1.518-.34-2.275-.514-.24-.089-.482-.17-.723-.256a46.306 46.306 0 0 1-1.366-.277c-.728-.278-1.496-.409-2.263-.524-.176-.06-.352-.122-.53-.18-.81-.243-1.66-.335-2.457-.63m-2.68-.272c.288.623.545 1.26.763 1.91 5.57 15.438 11.11 30.88 16.694 46.314 3.658 10.2 7.34 20.397 11.014 30.598.275.888.72 1.725.841 2.658.315-.742.308-1.556.376-2.345.105-1.976.47-3.924.613-5.896.092-2.002.52-3.97.592-5.973.144-1.68.439-3.346.536-5.03.096-1.628.413-3.232.524-4.858.045-1.072.221-2.134.29-3.204.295-1.72.354-3.48.53-5.218.317-1.664.357-3.366.533-5.048.156-.536.068-1.107.228-1.643a89.32 89.32 0 0 1 .18-1.727c-3.237-3.842-6.44-7.715-9.656-11.578-8.014-9.658-16.059-19.29-24.058-28.96M11.064 5h1.218c1.842.61 3.764.94 5.639 1.436 2.033.503 4.073.979 6.11 1.47.077.026.231.081.31.107 4.658 1.11 9.315 2.218 13.96 3.381.748.204 1.516.313 2.268.507.078.03.235.087.313.116.703.162 1.412.303 2.1.52.746.206 1.514.32 2.262.518 9.521 2.341 19.054 4.63 28.58 6.94 4.174 2.848 8.279 5.799 12.44 8.666.476.317 1.033.665 1.157 1.27.115.57.2 1.216-.07 1.752-14.078 20.455-28.136 40.928-42.2 61.395-.525.66-.855 1.569-1.673 1.922h-1.191c-.803-.272-.992-1.137-1.21-1.849C30.712 64.403 20.357 35.652 10 6.901v-.709c.238-.489.573-.934 1.064-1.192" fill="#2754F0" fill-rule="evenodd"/></svg>