<svg height="100" width="100" xmlns="http://www.w3.org/2000/svg"><path d="M50 10c22.09 0 40 17.91 40 40S72.09 90 50 90 10 72.095 10 50s17.907-40 40-40zm4.94 45.312c11.04-.51 19.34-2.698 19.34-5.32s-8.3-4.81-19.34-5.32l-.003-.002v-5.95h13.607v-9.066H31.491v9.066H45.1v5.946c-11.06.508-19.376 2.698-19.376 5.322s8.32 4.814 19.376 5.326v19.06h9.84zm.002-9.952c9.752.434 17.028 2.138 17.028 4.166s-7.28 3.733-17.028 4.168l-.002.004v-.005c-.278.017-1.704.103-4.88.103-2.54 0-4.326-.072-4.955-.105v.008c-9.771-.433-17.065-2.134-17.065-4.17s7.294-3.735 17.065-4.169v6.644c.64.044 2.47.152 4.997.152 3.034 0 4.56-.126 4.84-.152z" fill="#2754F0" fill-rule="evenodd"/></svg>