<svg height="100" width="100" xmlns="http://www.w3.org/2000/svg"><path d="M75.922 40.811c.6-.549 1.366-.83 2.125-.83.747 0 1.49.273 2.064.83l4.87 4.632c3.95 3.746 7.73 5.347 2.35 10.727L56.238 87.263c-3.44 3.44-9.024 3.44-12.464 0L12.682 56.17c-5.62-5.653-1.294-7.39 2.826-11.204l4.496-4.155a3.092 3.092 0 0 1 4.188 0l8.003 7.39c2.18 2.044 5.551 2.044 7.765 0l8.003-7.39a3.092 3.092 0 0 1 4.189 0l8.003 7.39c2.18 2.044 5.55 2.044 7.764 0zM43.774 12.58c1.72-1.72 3.976-2.58 6.232-2.58s4.513.86 6.232 2.58l19.855 19.854c1.123 1.158 1.123 3.03 0 4.155l-5.994 5.96-3.985 3.711a3.092 3.092 0 0 1-4.188 0l-8.003-7.39c-2.18-2.043-5.551-2.043-7.765 0l-8.003 7.39a3.092 3.092 0 0 1-4.189 0l-3.984-3.712-5.994-5.993a2.919 2.919 0 0 1 0-4.155z" fill="#2754F0" fill-rule="evenodd"/></svg>