<svg height="100" width="100" xmlns="http://www.w3.org/2000/svg"><path d="M30.88 29.514c.003 2.735-.019 5.473-.004 8.208-1.834.5-3.966.66-5.264 2.227-1.458 1.327-1.153 3.427-1.188 5.193-.043 5.225.117 10.453-.078 15.674-2.409.578-4.806 1.206-7.208 1.823-.936.177-2.074.369-2.851-.33-.734-.514-1.064-1.43-1.018-2.302.003-9.332.007-18.667-.004-28-.16-1.386.958-2.585 2.263-2.84a313.386 313.386 0 0 0 11.648-2.902c.784-.202 1.7-.319 2.394.199 1.04.617 1.302 1.93 1.31 3.05zm27.566-.72c.16 3.015 0 6.04.067 9.06-1.78.45-3.767.858-4.88 2.475-1.196 1.688-.912 3.909-.965 5.863-.032 4.802.096 9.612-.053 14.411-1.64.536-3.342.837-4.998 1.291-1.486.323-2.937.944-4.476.897-1.359-.035-2.31-1.475-2.192-2.756.01-9.346 0-18.695 0-28.041-.146-1.37.9-2.65 2.249-2.848 4.064-.912 8.09-1.987 12.134-2.99 1.6-.426 3.117 1.07 3.114 2.638zm28.276-.014c.056 9.112-.008 18.224.028 27.336-.057.954.124 2.11-.677 2.823-.703.82-1.845.926-2.824 1.164-3.685.77-7.282 1.926-10.97 2.664-1.618.425-3.178-1.132-2.966-2.735.011-9.46-.007-18.923.008-28.382-.075-1.277 1.088-2.288 2.266-2.512 3.976-.911 7.927-1.922 11.875-2.94 1.621-.564 3.398.901 3.26 2.582zM38.696 60.773c-.01 2.777 2.937 4.647 5.509 4.476.106 1.5.447 3.132-.192 4.554-.815 1.522-2.674 1.682-4.174 2.026-3.796.745-7.467 2.053-11.297 2.628-.706-.61-1.625-1.181-1.774-2.181-.166-1.238-.067-2.494-.081-3.735.007-8.275 0-16.55.003-24.825.029-.723-.042-1.571.536-2.121 1.135-1.11 2.809-1.248 4.277-1.6 2.395-.517 4.728-1.365 7.186-1.553a3693.99 3693.99 0 0 0 .007 22.331zm28.507 1.125c.727 2.184 3.075 3.48 5.32 3.351-.014 1.483.146 2.99-.134 4.455-.454 1.242-1.838 1.593-2.987 1.859-2.99.596-5.923 1.433-8.885 2.146-1.167.29-2.34.727-3.561.628-1.199-.419-1.99-1.724-1.908-2.976.021-9.754-.05-19.505.039-29.255.702-.766 1.532-1.45 2.596-1.607 3.061-.649 6.058-1.585 9.148-2.1.099.947.209 1.894.209 2.849-.004 4.735-.007 9.47-.007 14.205.074 2.146-.181 4.32.17 6.445z" fill="#2754F0" fill-rule="evenodd"/></svg>