<svg height="100" width="100" xmlns="http://www.w3.org/2000/svg"><path d="M50.425 40.557l29.512-30.161c.311-.32.857-.398 1.323-.24.467.16.778.638.778 1.115v13.768a3.953 3.953 0 0 1-1.167 2.864L61.015 48.197c-.78.796-1.714 1.194-2.804 1.194H43.417a32.195 32.195 0 0 0-.104-.08h-.597c-1.168 0-2.258-.478-3.115-1.274L19.98 27.983c-.857-.875-1.246-1.99-1.246-3.183V11.19c0-.477.311-.955.78-1.115.543-.158 1.011-.079 1.4.32zm-.585.597L20.29 10.953c-.155-.16-.389-.081-.389-.081s-.234.08-.234.319V24.8c0 .955.39 1.91 1.012 2.547L40.302 47.4c.682.697 1.51 1.017 2.415 1.034zm10.416 11.27l19.681 19.962c.772.783 1.158 1.722 1.158 2.819v13.62c0 .47-.308.94-.694 1.097a1.336 1.336 0 0 1-1.313-.236l-28.79-29.199 6.253-6.34a.382.382 0 0 0 0-.548.369.369 0 0 0-.54 0l-6.252 6.34-29.253 29.67c-.386.313-.848.47-1.311.234-.464-.234-.695-.626-.695-1.095V75.36c0-1.174.462-2.27 1.234-3.131l19.45-19.727c.85-.861 1.93-1.253 3.087-1.253h15.207c1.08 0 2.006.392 2.778 1.174zm20.693-41.551c-.078 0-.234-.08-.39.079L43.807 48.515H58.21c.778 0 1.558-.318 2.18-.954l19.857-20.294c.623-.558.935-1.354.935-2.228V11.27c0-.32-.157-.398-.234-.398z" fill="#2754F0" fill-rule="evenodd"/></svg>