<svg height="100" width="100" xmlns="http://www.w3.org/2000/svg"><path d="M5.02 35.104h7.684c.041 2.609 0 5.218.02 7.827-2.568 0-5.156-.041-7.724 0 .02-2.609 0-5.218.02-7.827zm11.66 0c2.547 0 5.094-.021 7.641 0v7.827c-2.526-.041-5.053-.062-7.6.021-.083-2.61 0-5.24-.041-7.848zm11.348-.042c2.464.062 4.929.042 7.414.02-.02 2.61-.02 5.22 0 7.808-2.465.041-4.95 0-7.414.041zm10.727 0c4.08.042 8.18 0 12.28.02 4.1.022 8.284 1.761 10.955 4.93 2.34 2.795 3.355 6.502 3.355 10.105.062 3.48-.807 7.041-2.92 9.858-2.61 3.54-7.02 5.405-11.348 5.55-4.121.062-8.222 0-12.322 0 0-10.148.02-20.316 0-30.463zm7 6.213c.041 6.047-.021 12.073.041 18.12 2.879-.124 6.13.559 8.698-1.16 2.94-1.843 3.914-5.612 3.686-8.905-.124-2.878-1.491-5.902-4.142-7.248-2.547-1.325-5.529-.807-8.283-.807zm23.939-6.254h1.719c7.144 8.904 14.165 17.933 21.392 26.776.062-8.946 0-17.872.02-26.797.725 0 1.45.02 2.175.041-.02 10.168-.02 20.316 0 30.463h-2.009C85.93 56.744 78.971 47.86 71.89 39.12v26.383h-2.216c.021-10.168.021-20.315.021-30.483zM16.68 46.43h7.662c-.02 2.568 0 5.157 0 7.725H16.7c-.02-2.568 0-5.157-.02-7.725zm11.348.02c2.464-.02 4.929-.04 7.414 0-.062 2.569.02 5.137-.042 7.725h-7.35c-.02-2.588 0-5.156-.02-7.724zm.02 11.204c2.465.062 4.909 0 7.373.042.02 2.588-.041 5.198.02 7.807-2.464 0-4.949.02-7.413 0 .02-2.61 0-5.219.02-7.849z" fill="#2754F0" fill-rule="evenodd"/></svg>