<svg height="100" width="100" xmlns="http://www.w3.org/2000/svg"><path d="M47.929 51.697c8.254-1.027 16.47 3.87 19.037 12.398 1.303 4.383.91 8.647-1.106 12.794-.276.553-.513 1.066-.79 1.58-.158.315-.355.63-.632.868-4.186 3.949-8.768 7.423-13.744 10.344-.198.118-.395.237-.553.316L50.14 90c-.593-.237-2.41-1.343-4.344-2.645a75.342 75.342 0 0 1-11.928-9.912 73.308 73.308 0 0 1-9.638-12.161 71.267 71.267 0 0 1-6.516-12.835c-.05-.128-.09-.26-.119-.395.198.118.277.158.395.237 1.383 1.066 2.844 1.974 4.424 2.645 2.015.87 4.108 1.461 6.32 1.659 4.463.434 8.65-.474 12.599-2.685a18.618 18.618 0 0 1 6.596-2.211zM87.7 25.044c0 .158.041.276.041.434 0 2.093-.118 4.225-.276 6.318a78.824 78.824 0 0 1-1.383 9.16 73.88 73.88 0 0 1-10.348 24.838 76.418 76.418 0 0 1-4.463 6.16c-.16.12-.239.277-.476.396.08-.75.158-1.422.198-2.133.197-3.909-.632-7.62-2.489-11.056-1.779-3.277-4.265-5.883-7.464-7.858-.277-.197-.593-.355-.87-.552-4.385-2.765-7.07-6.674-8.017-11.767-1.696-9.16 4.068-18.006 13.113-20.178 3.199-.75 6.32-.67 9.44.316 2.564.79 5.015 1.856 7.464 3.001 1.696.79 3.318 1.658 4.937 2.565.198.119.356.198.593.356zM34.737 52.959c-8.137 1.859-16.353-2.167-19.907-9.71a5.626 5.626 0 0 1-.434-1.304 73.716 73.716 0 0 1-1.343-7.74 70.633 70.633 0 0 1-.553-8.646c.033-.17.047-.342.041-.514h-.001a73.729 73.729 0 0 1 15.916-6.87c7.583-2.252 15.285-3.318 23.185-3.16 3.673.08 9.795.671 10.822 1.067.041.079-.042.118-.119.118-.355.158-.75.276-1.106.434-6.516 2.725-11.137 8.45-12.48 15.4a25.325 25.325 0 0 0-.356 3.434c-.041 1.738-.197 3.475-.71 5.172-1.738 6.12-6.755 10.898-12.955 12.32z" fill="#2754F0" fill-rule="evenodd"/></svg>