<svg height="100" width="100" xmlns="http://www.w3.org/2000/svg"><path d="M40.441 11.285c8.787-2.146 18.304-1.238 26.488 2.626a39.878 39.878 0 0 1 9.175 5.954c-8.325 8.3-25.732 25.737-26.192 26.068-8.683-8.7-17.411-17.356-26.085-26.065 4.743-4.132 10.499-7.094 16.614-8.583zM17.837 26.266c.225.172.44.36.635.563 1.96 1.988 3.976 3.926 5.912 5.935-.177.426-.461.794-.697 1.187a30.519 30.519 0 0 0-4.55 16.573c.058 8.641 4.068 17.139 10.631 22.758 4.483 3.918 10.138 6.49 16.045 7.272 6.582.906 13.45-.387 19.23-3.663a31.107 31.107 0 0 0 11.27-10.868c3.373-5.494 4.928-12.07 4.384-18.489a30.656 30.656 0 0 0-2.693-10.298c-.699-1.571-1.605-3.035-2.505-4.498 2.037-1.998 4.048-4.024 6.064-6.044.17-.129.297-.428.551-.344a39.596 39.596 0 0 1 6.91 15.23 40.178 40.178 0 0 1-.764 19.894 39.738 39.738 0 0 1-8.36 15 39.993 39.993 0 0 1-13.83 10.094c-6.135 2.717-12.967 3.81-19.648 3.22a39.75 39.75 0 0 1-16.937-5.473 40.025 40.025 0 0 1-13.513-13.283c-5.09-8.105-7.005-18.083-5.441-27.507a39.669 39.669 0 0 1 5.306-14.259c.613-1.035 1.328-2.005 2-3zm12.907 12.829c6.424 6.377 12.815 12.786 19.227 19.174 6.398-6.398 12.786-12.807 19.201-19.19 3.09 5.357 3.763 12.023 1.802 17.886-1.65 5.03-5.19 9.4-9.754 12.09-4.75 2.84-10.59 3.756-15.994 2.566-3.604-.782-7-2.496-9.777-4.918-3.5-3.03-6.013-7.179-7.044-11.689-1.25-5.352-.4-11.152 2.339-15.92z" fill="#2754F0" fill-rule="evenodd"/></svg>