<svg height="100" width="100" xmlns="http://www.w3.org/2000/svg"><path d="M74.881 59.09a17.34 17.34 0 0 0-8.494-2.135l.024-.014c-3.952.046-7.194-3.028-7.24-6.864-.046-3.786 3.033-6.896 6.908-7.025v-.002l-.007-.004a17.33 17.33 0 0 0 8.6-2.319c8.08-4.663 10.736-14.802 5.933-22.645C75.8 10.238 65.356 7.66 57.277 12.323c-8.08 4.663-10.736 14.802-5.933 22.645 2.001 3.269.895 7.493-2.471 9.436-3.32 1.915-7.592.898-9.63-2.26h-.003v.009a16.697 16.697 0 0 0-6.345-6.09c-8.183-4.489-18.567-1.688-23.19 6.258-4.624 7.944-1.738 18.023 6.446 22.512 8.185 4.489 18.567 1.687 23.19-6.258.029-.048.054-.098.081-.146v.012h.002c1.964-3.207 6.218-4.318 9.58-2.474 3.41 1.871 4.613 6.07 2.686 9.38-4.624 7.946-1.737 18.025 6.447 22.513 8.184 4.489 18.567 1.687 23.19-6.258 4.624-7.945 1.738-18.023-6.446-22.512" fill="#2754F0" fill-rule="evenodd"/></svg>