<svg height="100" width="100" xmlns="http://www.w3.org/2000/svg"><path d="M74.411 30.132c3.915 4.806 6.475 10.744 6.983 16.944.812 8.018-1.863 16.201-6.92 22.436 1.749 1.726 3.474 3.463 5.229 5.184 5.943-6.967 9.4-16.099 9.132-25.288.12-8.95-3.4-17.745-9.11-24.568a1547.784 1547.784 0 0 1-5.314 5.292M26.344 31.8c8.755.005 17.504 0 26.26.005-1.806 3.178-3.635 6.344-5.418 9.532-8.578.018-17.15 0-25.722.012-3.08 10.04-.28 21.527 7.017 29.065 6.447 6.84 16.265 10.333 25.585 9.075 7.898-.92 15.219-5.229 20.128-11.446-13.561-.035-27.128.022-40.695-.035 6.966-12.03 13.818-24.127 20.722-36.191 4.017-.04 8.035 0 12.052-.017-5.109 8.823-10.058 17.744-15.213 26.545 9.373.005 18.74.011 28.111-.006 2.852-9.75.435-20.825-6.434-28.345-6.681-7.59-17.402-11.327-27.351-9.601-7.492 1.217-14.43 5.377-19.042 11.407m14.778-20.848c7.55-1.623 15.585-1.206 22.837 1.503 10.64 3.852 19.424 12.475 23.464 23.042 2.486 6.19 2.995 13.007 2.28 19.59-1.182 8.961-5.594 17.442-12.2 23.597-7.327 6.92-17.385 11.035-27.5 10.715-7.812.268-15.59-2.2-22.099-6.458-8.618-5.663-14.95-14.75-17.058-24.86-1.738-8.486-.823-17.566 2.977-25.384 5.155-10.915 15.521-19.145 27.3-21.745" fill="#2754F0" fill-rule="evenodd"/></svg>