<svg height="100" width="100" xmlns="http://www.w3.org/2000/svg"><path d="M72.007 72c-5.878 5.869-13.693 9.109-22.003 9.109S33.88 77.87 28 72c-5.87-5.88-9.108-13.694-9.108-22.004s3.229-16.124 9.109-22.004c5.878-5.869 13.693-9.109 22.003-9.109v.001c8.31 0 16.123 3.239 22.003 9.109 5.869 5.878 9.109 13.693 9.109 22.003S77.877 66.12 72.007 72m-6.433-58.865A39.96 39.96 0 0 1 90 49.987c0 5.4-1.06 10.637-3.143 15.569A40.129 40.129 0 0 1 65.574 86.84 39.5 39.5 0 0 1 50.004 90a39.78 39.78 0 0 1-15.569-3.143 40.129 40.129 0 0 1-21.283-21.283A39.7 39.7 0 0 1 10 49.996c0-5.401 1.06-10.636 3.143-15.57A39.96 39.96 0 0 1 49.996 10c5.392 0 10.644 1.05 15.578 3.135zm-13.806 42.21c3.465-4.004 6.843-7.911 10.22-11.914 1.069-1.242 2.666-2.484 2.936-3.908.53-2.674.173-5.514.173-8.449h-10.76v-7.111h-8.622v7.285H35.85v8.708h16.62c-1.51 1.685-2.84 3.109-4.176 4.62-3.465 4.003-6.843 7.91-10.22 11.913-.982 1.242-2.58 2.484-2.849 3.908-.53 2.666-.173 5.505-.173 8.353h10.672v7.2h8.979c-.174-2.485-.27-4.793-.443-7.285h10.672v-8.71H47.6c1.52-1.606 2.848-3.021 4.168-4.61z" fill="#2754F0" fill-rule="evenodd"/></svg>