<svg xmlns="http://www.w3.org/2000/svg" width="100" height="100"><g fill="#2754F0" fill-rule="evenodd"><path d="M41.466 45.334l11.833-6.812-.021-.013z"/><path d="M14 38.522v22.984l18.389 10.532v-22.92l.007-.005 1.271-.763 18.344-10.584-18.3-10.736z"/><path d="M33.667 49.842v22.909l6.877-3.897V53.848L53.3 46.56v-8.038l-11.833 6.813z"/><path d="M41.466 45.334l-7.816 4.5V72.76l.016-.01V49.841zm20.875-12.541L42.705 21.489l-.004.002 19.64 11.308zm-19.64-11.301v8.693l12.689 7.268v14.291l6.951 3.98V32.8z"/><path d="M62.41 9.999L43.98 20.746l18.361 10.556 1.277.768v22.943l18.383-10.418V21.491z"/><path d="M62.341 55.724l.009.007V32.806l-.009-.007z"/><path d="M42.712 55.069l8.255 4.767 11.384 6.553L82 55.076l-7.364-4.322-12.285 7.298-12.224-7.308z"/><path d="M50.967 59.835l11.383 6.572v-.019zm11.383 6.554v.018l.016.01 19.635-11.322v-.02z"/><path d="M42.7 78.059l19.651 11.254L82 78.179V56.572L63.656 67.161l-1.304.723-.001-.001-1.289-.744L42.7 56.537z"/><path d="M50.967 135.068l-8.254-80-.012.112z"/></g></svg>