<svg height="100" width="100" xmlns="http://www.w3.org/2000/svg"><path d="M28.328 36.27c-2.992-3.778-5.86-7.653-8.692-11.55-.09-.13-.168-.265-.25-.4a38.815 38.815 0 0 1 3.445-3.616C28.96 15 36.92 11.277 45.247 10.301c1.124-.153 2.259-.181 3.385-.301h2.397c1.504.099 3.01.188 4.504.4 5.113.72 10.099 2.42 14.545 5.05-1.024.814-2.12 1.529-3.17 2.307C59.816 22.833 52.741 27.936 45.64 33c-.575-.477-1.074-1.036-1.62-1.545-1.62-1.552-3.195-3.15-4.83-4.683-.596.215-1.14.546-1.696.844-3.71 2.07-6.867 5.087-9.166 8.654zm59.118-.31c3.064 8.057 3.375 17.116.912 25.372a39.466 39.466 0 0 1-3.56 8.344c-.235-.2-.4-.464-.584-.705L69.687 49.779c-.94-1.257-1.909-2.493-2.834-3.76 2.12-2.277 4.331-4.475 6.458-6.747a25.813 25.813 0 0 0-6.237-8.415c-1.035-.942-2.175-1.753-3.327-2.54 1.404-1.164 2.875-2.247 4.32-3.36 2.51-1.892 5.023-3.781 7.593-5.59 5.275 4.388 9.368 10.176 11.786 16.593zM36.253 71.684c-1.057.887-2.171 1.703-3.261 2.548a338.781 338.781 0 0 1-5.872 4.395c-.934.661-1.829 1.377-2.792 1.996-6.21-5.191-10.781-12.31-12.905-20.12C10.56 57.408 10.14 54.206 10 51v-2c.046-.693.09-1.387.138-2.08a39.752 39.752 0 0 1 2.67-11.576c.72-1.78 1.522-3.54 2.52-5.184 1.41 1.775 2.756 3.602 4.14 5.4 4.387 5.746 8.771 11.493 13.154 17.24.288.378.596.74.843 1.148-2.213 2.31-4.484 4.566-6.689 6.886.532 1.256 1.252 2.424 2.004 3.56a25.85 25.85 0 0 0 3.974 4.58c1.08 1.01 2.286 1.868 3.499 2.71zm35.455-7.95c.893 1.099 1.745 2.232 2.611 3.353 2.145 2.82 4.269 5.655 6.323 8.541-.586.817-1.312 1.526-2 2.257-5.748 5.916-13.36 10-21.486 11.463-1.92.368-3.874.524-5.825.652h-2.897c-.86-.109-1.726-.127-2.585-.226-5.589-.587-11.067-2.35-15.905-5.214 1.656-1.263 3.337-2.494 5.002-3.748 6.354-4.74 12.706-9.484 19.056-14.23 1.078.993 2.095 2.05 3.155 3.064 1.24 1.186 2.432 2.429 3.698 3.59 3.108-1.422 5.895-3.52 8.191-6.044.99-1.071 1.836-2.26 2.662-3.458z" fill="#2754F0" fill-rule="evenodd"/></svg>